<svg xmlns="http://www.w3.org/2000/svg" width="255.117" height="56.465" viewBox="0 0 255.117 56.465">
  <g id="グループ_11115" data-name="グループ 11115" transform="translate(21573 21204)">
    <path id="パス_241149" data-name="パス 241149" d="M417.966,304.312V337.79l-20.777-33.478H387.2v52.7h9.99v-33.7l20.777,33.7h9.993v-52.7Z" transform="translate(-21960.197 -21506.447)" fill="#fff"/>
    <path id="パス_241150" data-name="パス 241150" d="M433.669,354.885c8.019,8.021,25.359,3.685,38.725-9.68s17.7-30.709,9.685-38.731-25.362-3.685-38.73,9.68S425.647,346.863,433.669,354.885Z" transform="translate(-21960.197 -21506.447)" fill="rgba(255,255,255,0.7)"/>
    <path id="パス_241151" data-name="パス 241151" d="M516.5,304.265v.152l-.094-.018-6.223,28.737L503.955,304.4l-.091.018v-.152l-16.236.047v52.7h9.99V322.35l7.681,34.626h9.99l7.447-34.626v34.658h10v-52.7Z" transform="translate(-21960.197 -21506.447)" fill="#fff"/>
    <path id="パス_241152" data-name="パス 241152" d="M569.1,354.9l-11-50.631H543.579l-11,50.631-.114.524v1.588h9.888l8.49-39.237,8.385,39.255h9.99v-1.605Z" transform="translate(-21960.197 -21506.447)" fill="#fff"/>
    <g id="グループ_11110" data-name="グループ 11110" transform="translate(-21960.197 -21506.447)">
      <path id="パス_241153" data-name="パス 241153" d="M586.924,337.605l-.187-1.986-.51-6.4-3.747.088.448,4.673h-4.667l8.256-12.829-4.251.029-2.722,4.178-1.714-1.717,6.073-9.193-4.254-.094-6.483,9.75,4.351,4.371-3.765,5.777-.293.99v2.367h5.221v19.418h3.633V337.605Z" fill="#fff"/>
      <path id="パス_241154" data-name="パス 241154" d="M574.3,339.832c-.123,5.013-.832,12.844-2.025,14.566l-.067,1.178,3.407-.029c2.242-3.235,2.265-13.43,2.315-15.621l-3.63-.094Z" fill="#fff"/>
      <path id="パス_241155" data-name="パス 241155" d="M586.423,339.58l-3.615.369c.009.088.9,8.795.9,12.076h3.633C587.34,348.557,586.458,339.943,586.423,339.58Z" fill="#fff"/>
    </g>
    <path id="パス_241156" data-name="パス 241156" d="M590.521,314.147c-.585,3.156-1.863,8.01-3.492,9.531l.036,1.33h3.084c3.015-2.824,4.02-9.768,4.2-10.817Z" transform="translate(-21960.197 -21506.447)" fill="#fff"/>
    <path id="パス_241157" data-name="パス 241157" d="M597.075,314.1a79.063,79.063,0,0,0,4.3,10.9h3.519l-.041-.944a64.887,64.887,0,0,1-3.8-9.961Z" transform="translate(-21960.197 -21506.447)" fill="#fff"/>
    <path id="パス_241158" data-name="パス 241158" d="M604.048,330.791c-1.36-1.857-3.566-4.424-3.425-6.258l-3.466-.064c-.12,2,1.975,5.654,3.164,7.347H592.78a33.769,33.769,0,0,0,4.491-11.379l-3.577-.632h0c-.011.076-1.394,7.605-5.5,12.023l-.487.524v3.1h16.7v-4.184Z" transform="translate(-21960.197 -21506.447)" fill="#fff"/>
    <path id="パス_241159" data-name="パス 241159" d="M589.816,337.725c.621,6.619.216,13.714-2.051,14.189l.129,4.418c6.7-1.395,6.067-15.686,5.8-18.563Z" transform="translate(-21960.197 -21506.447)" fill="#fff"/>
    <path id="パス_241160" data-name="パス 241160" d="M601.4,347.941v2.965s.045,1.453-.316,1.869a1.657,1.657,0,0,1-1.274.387,1.821,1.821,0,0,1-1.4-.387c-.36-.416-.313-1.869-.313-1.869V337.734h-3.63l.017,12.894a6,6,0,0,0,1.163,4.5,5.067,5.067,0,0,0,4.041,1.664,5.171,5.171,0,0,0,4.163-1.664,5.836,5.836,0,0,0,1.18-4.225v-2.965Z" transform="translate(-21960.197 -21506.447)" fill="#fff"/>
    <path id="パス_241161" data-name="パス 241161" d="M601.774,337.763c.009.053.78,5.655.78,8.245h2.724a77.283,77.283,0,0,0-.808-8.262Z" transform="translate(-21960.197 -21506.447)" fill="#fff"/>
    <path id="パス_241162" data-name="パス 241162" d="M598.5,337.763c.009.053.779,5.655.779,8.245H602a77.182,77.182,0,0,0-.806-8.262Z" transform="translate(-21960.197 -21506.447)" fill="#fff"/>
    <path id="パス_241163" data-name="パス 241163" d="M642.315,328.412h-2.877v-8.6h2.745v-4.085H625.868v4.085h2.476v8.6h-3.7V332.5h3.7v7.84c-.018,2.812-.941,8.944-3.657,9.873l-.008,6.486c6.193-2.109,7.746-15.17,7.752-16.353V332.5h2.921v24.413h4.086V332.5h2.877Zm-9.884,0v-8.6h2.921v8.6Z" transform="translate(-21960.197 -21506.447)" fill="#fff"/>
    <path id="パス_241164" data-name="パス 241164" d="M625,319.811v-4.085H611.038v4.085h4.506c-.152,2.7-1,11-5.64,15.641l-.111,6.243a12.851,12.851,0,0,0,2.965-2.443v17.432h10.884V332.045a3.694,3.694,0,0,0-.988-2.537,3.466,3.466,0,0,0-2.587-1.037h-1.983a50.427,50.427,0,0,0,1.526-8.66ZM618.178,332.5a1.306,1.306,0,0,1,1.3,1.307l-.042,17.5a1.3,1.3,0,1,1-2.61,0l.041-17.5A1.308,1.308,0,0,1,618.178,332.5Z" transform="translate(-21960.197 -21506.447)" fill="#fff"/>
  </g>
</svg>
