<?xml version="1.0" encoding="utf-8"?>
<!-- Generator: Adobe Illustrator 26.0.1, SVG Export Plug-In . SVG Version: 6.00 Build 0)  -->
<svg version="1.1" id="レイヤー_1" xmlns="http://www.w3.org/2000/svg" xmlns:xlink="http://www.w3.org/1999/xlink" x="0px"
	 y="0px" viewBox="0 0 841.9 595.3" style="enable-background:new 0 0 841.9 595.3;" xml:space="preserve">
<style type="text/css">
	.st0{fill:#FFFFFF;}
	.st1{clip-path:url(#SVGID_00000014594569174132227280000004830395691132722590_);}
</style>
<g>
	<g>
		<path class="st0" d="M148.5,357.8c-42,0-76.1-34.2-76.1-76.1c0-42,34.2-76.1,76.1-76.1c42,0,76.1,34.2,76.1,76.1
			C224.6,323.6,190.4,357.8,148.5,357.8z"/>
		<path class="st0" d="M148.5,209.7c39.7,0,71.9,32.2,71.9,71.9c0,39.7-32.2,71.9-71.9,71.9c-39.7,0-71.9-32.2-71.9-71.9
			C76.5,241.9,108.7,209.7,148.5,209.7 M148.5,201.3c-44.3,0-80.3,36-80.3,80.3c0,44.3,36,80.3,80.3,80.3c44.3,0,80.3-36,80.3-80.3
			C228.8,237.3,192.8,201.3,148.5,201.3L148.5,201.3z"/>
	</g>
	<g>
		<defs>
			<path id="SVGID_1_" d="M220.4,281.6c0,39.7-32.2,71.9-71.9,71.9c-39.7,0-71.9-32.2-71.9-71.9c0-39.7,32.2-71.9,71.9-71.9
				C188.2,209.7,220.4,241.9,220.4,281.6z"/>
		</defs>
		<clipPath id="SVGID_00000147902240751475381480000008375408939772330172_">
			<use xlink:href="#SVGID_1_"  style="overflow:visible;"/>
		</clipPath>
		<path style="clip-path:url(#SVGID_00000147902240751475381480000008375408939772330172_);" d="M154.3,290.2h-0.2
			c2,3.7,3.3,8,3.9,12.8h-27.4c-2.4-9-9.2-12.8-17.3-12.8l0,0h-11.7v120.1H74.4V276.6c0-7.5-7.9-13.6-0.3-13.6h80.3
			c4.5,0,8.1-3.6,8.1-8.1c0-4.5-3.6-8.1-8.1-8.1h-161v-27.3h161c19.5,0,35.4,15.9,35.4,35.4C189.7,274.3,173.8,290.2,154.3,290.2z
			 M194.4,215.6v88.7c0,10-8.1,18.1-18.1,18.1c-6,0-11.7-3-15.1-8c-1.2-1.7-2-3.7-2.5-5.7h-27.2c0.7,7.4,3.2,14.5,7.4,20.7
			c8.4,12.5,22.4,19.9,37.4,19.9c24.8,0,45-20.2,45-45v-88.7H194.4z"/>
	</g>
	<g>
		<path d="M148.5,205.2c42.1,0,76.4,34.3,76.4,76.4c0,42.1-34.3,76.4-76.4,76.4S72,323.8,72,281.6C72,239.5,106.3,205.2,148.5,205.2
			 M148.5,199.6c-45.3,0-82,36.7-82,82c0,45.3,36.7,82,82,82c45.3,0,82-36.7,82-82C230.5,236.3,193.8,199.6,148.5,199.6L148.5,199.6
			z"/>
	</g>
</g>
<g>
	<path d="M279.7,303.1L268.6,268h-3.3v35.1h-18.6v-82.3h28.1c11,0,16.9,2.8,19.5,9c1.3,3.1,1.9,7.7,1.9,14.2
		c0,12.8-2.3,17.6-10.4,21.4l13.9,37.6H279.7z M278,238.8c-0.5-2.7-2.3-3.8-6.6-3.8h-6.1v18.9h6.2c5.2,0,6.9-1.9,6.9-8.5
		C278.3,243.2,278.1,240.2,278,238.8z"/>
	<path d="M326.1,303.1v-82.3h42.5v14.5H346v19h21.3v14.5H346v19.8h22.6v14.6H326.1z"/>
	<path d="M431.7,303.1l-17.1-53.6v53.6h-16.8v-82.3h19.7l17.2,53.4v-53.4h17v82.3H431.7z"/>
	<path d="M519.5,303.1l-2.8-18.8h-15.3l-2.9,18.8H479l16.7-82.3h26.6l16.7,82.3H519.5z M509.2,233.8l-5.6,36.6h11.1L509.2,233.8z"/>
	<path d="M595.9,235.1v67.9h-20.2v-67.9h-16.3v-14.3h52.9v14.3H595.9z"/>
	<path d="M691.1,290.9c-3,11.2-13.6,13.4-24,13.4c-10,0-22-2-25.6-12.8c-0.9-2.9-1.2-7-1.2-10.1v-60.6h19.8v62
		c0,4.4,1.5,7.3,6.5,7.3c4.5,0,5.6-2.9,5.6-6.8v-62.6h19.9v59.1C692.2,283.6,692,287.3,691.1,290.9z"/>
	<path d="M744.6,304.2c-9.3,0-20.7-1.3-24.5-11.3c-1.3-3.6-1.5-7.6-1.5-11.3c0-1.6,0-3.3,0.1-4.9h19.7v6.5c0,4,1.4,6.5,5.8,6.5
		c4,0,6.3-1.6,6.3-5.7c0-7.7-1.4-7.8-7.5-12.2l-11.9-8.6c-8.7-6.3-11.5-8.6-11.5-20.2c0-18.9,7.7-23.8,25.8-23.8
		c16.9,0,23.2,4.5,23.2,22c0,1.6,0,3.1-0.1,4.8h-18.8v-5.8c0-4.3-0.6-6.9-5.6-6.9c-4.9,0-4.9,3.6-4.9,7.3c0,4.2,0.2,5.9,3.7,8.4
		l16.9,11.8c9.1,6.3,10.6,9.3,10.6,20.6C770.5,299.2,760.9,304.2,744.6,304.2z"/>
</g>
<g>
	<path d="M259.8,344.7c-1.4,3.9-4.7,4.5-8.3,4.5h-5.7v-6.4h3c2.2,0,2.5-0.9,2.5-2.9V312h9V340C260.3,341.4,260.3,343.3,259.8,344.7z
		"/>
	<path d="M272.5,349.1V312h9v37.1H272.5z"/>
	<path d="M317.2,343.7c-1.4,5-6.1,6-10.8,6c-4.5,0-9.9-0.9-11.6-5.8c-0.4-1.3-0.5-3.1-0.5-4.6V312h8.9V340c0,2,0.7,3.3,2.9,3.3
		c2,0,2.5-1.3,2.5-3V312h9v26.6C317.6,340.3,317.6,342,317.2,343.7z"/>
	<path d="M332.4,336.8v-6.4h14.3v6.4H332.4z"/>
	<path d="M373.8,344.7c-1.4,3.9-4.7,4.5-8.3,4.5h-5.7v-6.4h3c2.2,0,2.5-0.9,2.5-2.9V312h9V340C374.2,341.4,374.2,343.3,373.8,344.7z
		"/>
	<path d="M386.5,349.1V312h9v37.1H386.5z"/>
	<path d="M422.9,318.5v30.6h-9.1v-30.6h-7.4V312h23.8v6.5H422.9z"/>
	<path d="M451.1,349.6c-4.2,0-9.3-0.6-11-5.1c-0.6-1.6-0.7-3.4-0.7-5.1c0-0.7,0-1.5,0.1-2.2h8.9v2.9c0,1.8,0.6,2.9,2.6,2.9
		c1.8,0,2.8-0.7,2.8-2.6c0-3.5-0.6-3.5-3.4-5.5l-5.4-3.9c-3.9-2.8-5.2-3.9-5.2-9.1c0-8.5,3.5-10.7,11.6-10.7c7.6,0,10.4,2,10.4,9.9
		c0,0.7,0,1.4-0.1,2.2h-8.5v-2.6c0-1.9-0.3-3.1-2.5-3.1c-2.2,0-2.2,1.6-2.2,3.3c0,1.9,0.1,2.7,1.7,3.8l7.6,5.3
		c4.1,2.8,4.8,4.2,4.8,9.3C462.8,347.4,458.5,349.6,451.1,349.6z"/>
	<path d="M496.6,343.7c-1.4,5-6.1,6-10.8,6c-4.5,0-9.9-0.9-11.6-5.8c-0.4-1.3-0.5-3.1-0.5-4.6V312h8.9V340c0,2,0.7,3.3,2.9,3.3
		c2,0,2.5-1.3,2.5-3V312h9v26.6C497,340.3,497,342,496.6,343.7z"/>
	<path d="M543.2,349.1l-1.3-8.5h-6.9l-1.3,8.5H525l7.5-37.1h12l7.5,37.1H543.2z M538.6,317.9l-2.5,16.5h5L538.6,317.9z"/>
	<path d="M578.6,349.2c-1.7,0.4-3.6,0.4-5.4,0.4c-4.5,0-9.7-0.6-11.1-5.7c-0.4-1.3-0.4-2.6-0.4-3.8v-18.3c0-1.6,0.1-3.2,0.6-4.7
		c1.8-4.8,6.7-5.7,11.3-5.7c4.5,0,9.7,1.1,11.3,6c0.4,1.1,0.4,2.4,0.4,3.5v4.9h-8.8v-4.6c0-2.3-0.5-3.3-3.1-3.3
		c-2.3,0-2.8,1.3-2.8,3.4v18.4c0,2.3,0.3,3.7,2.9,3.7c2.3,0,2.9-1.1,2.9-3.2V335h9.1v3.3C585.6,343.9,584.7,347.7,578.6,349.2z"/>
	<path d="M613,349.1l-1.3-8.5h-6.9l-1.3,8.5h-8.8l7.5-37.1h12l7.5,37.1H613z M608.4,317.9l-2.5,16.5h5L608.4,317.9z"/>
	<path d="M646.1,349.1h-13.9V312h13.5c4.4,0,8.5,0.7,9.9,5.5c0.4,1.2,0.4,2.5,0.4,3.7v18.9C656,347.3,652.7,349.1,646.1,349.1z
		 M646.9,321.8c0-2.5-0.9-3.4-3.4-3.4h-2.7v24.3h2.8c2.4,0,3.3-0.6,3.3-3.2V321.8z"/>
	<path d="M668.2,349.1V312h19.2v6.5h-10.2v8.6h9.6v6.5h-9.6v8.9h10.2v6.6H668.2z"/>
	<path d="M725.9,349.1v-23.6c0-1.2,0.1-2.4,0.1-3.6l-5.8,27.2h-7.9l-5.8-27.4c0.1,2,0.1,4.1,0.1,6.1v21.2h-7.8V312h12
		c1.9,9.4,4,18.8,5.6,28.3c0.3-2.3,0.5-4.5,1-6.7l4.4-21.6h12.1v37.1H725.9z"/>
	<path d="M761.9,336.1v13h-8.8v-13l-8.8-24h8.8l4.5,16.4l4.5-16.4h9L761.9,336.1z"/>
</g>
</svg>
