<svg xmlns="http://www.w3.org/2000/svg" xmlns:xlink="http://www.w3.org/1999/xlink" width="100" height="100" viewBox="0 0 100 100">
  <defs>
    <clipPath id="clip-path">
      <rect id="長方形_23640" data-name="長方形 23640" width="100" height="100" transform="translate(-24723 -17786)" fill="#ff8484" stroke="#707070" stroke-width="1" opacity="0.443"/>
    </clipPath>
    <radialGradient id="radial-gradient" cx="0.13" cy="0.174" r="0.938" gradientTransform="translate(0.156 -0.042) rotate(43.828)" gradientUnits="objectBoundingBox">
      <stop offset="0" stop-color="#feddee"/>
      <stop offset="1" stop-color="#ddeefa"/>
    </radialGradient>
    <clipPath id="clip-path-2">
      <rect id="長方形_23482" data-name="長方形 23482" width="37" height="35" transform="translate(-0.001 0.318)" fill="none"/>
    </clipPath>
  </defs>
  <g id="top_feature_method_icon_01" transform="translate(24723 17786)" clip-path="url(#clip-path)">
    <circle id="楕円形_8381" data-name="楕円形 8381" cx="24" cy="24" r="24" transform="translate(-24722 -17749.49)" opacity="0.4" fill="url(#radial-gradient)"/>
    <circle id="楕円形_8383" data-name="楕円形 8383" cx="16.5" cy="16.5" r="16.5" transform="translate(-24672 -17769.49)" opacity="0.4" fill="url(#radial-gradient)"/>
    <circle id="楕円形_8382" data-name="楕円形 8382" cx="13.5" cy="13.5" r="13.5" transform="translate(-24655 -17714.49)" opacity="0.4" fill="url(#radial-gradient)"/>
    <g id="グループ_11108" data-name="グループ 11108" transform="translate(-25344.895 -22124.49)">
      <g id="グループ_10764" data-name="グループ 10764" transform="translate(21668.395 20366.486)">
        <path id="パス_47006" data-name="パス 47006" d="M0,0H31.483V10.995H16.236l-.1,40.12L0,51.084Z" transform="translate(-21037.002 -16018.602)" fill="none" stroke="#1c439a" stroke-width="2"/>
        <g id="グループ_10752" data-name="グループ 10752" transform="translate(-21033.004 -9.473)">
          <g id="グループ_10751" data-name="グループ 10751" transform="translate(0 39.134)">
            <g id="グループ_10741" data-name="グループ 10741" transform="translate(0 -16006.13)">
              <g id="長方形_23485" data-name="長方形 23485" fill="none" stroke="#1c439a" stroke-width="2">
                <rect width="5.997" height="5.498" stroke="none"/>
                <rect x="1" y="1" width="3.997" height="3.498" fill="none"/>
              </g>
            </g>
            <g id="グループ_10742" data-name="グループ 10742" transform="translate(8.995 -16006.13)">
              <g id="長方形_23485-2" data-name="長方形 23485" fill="none" stroke="#1c439a" stroke-width="2">
                <rect width="3.646" height="5.498" stroke="none"/>
                <rect x="1" y="1" width="1.646" height="3.498" fill="none"/>
              </g>
            </g>
          </g>
          <g id="グループ_10750" data-name="グループ 10750" transform="translate(0 29.636)">
            <g id="グループ_10741-2" data-name="グループ 10741" transform="translate(0 -16006.13)">
              <g id="長方形_23485-3" data-name="長方形 23485" fill="none" stroke="#1c439a" stroke-width="2">
                <rect width="5.997" height="5.498" stroke="none"/>
                <rect x="1" y="1" width="3.997" height="3.498" fill="none"/>
              </g>
            </g>
            <g id="グループ_10742-2" data-name="グループ 10742" transform="translate(8.995 -16006.13)">
              <g id="長方形_23485-4" data-name="長方形 23485" fill="none" stroke="#1c439a" stroke-width="2">
                <rect width="3.668" height="5.498" stroke="none"/>
                <rect x="1" y="1" width="1.668" height="3.498" fill="none"/>
              </g>
            </g>
          </g>
          <g id="グループ_10749" data-name="グループ 10749" transform="translate(0 20.138)">
            <g id="グループ_10741-3" data-name="グループ 10741" transform="translate(0 -16006.13)">
              <g id="長方形_23485-5" data-name="長方形 23485" fill="none" stroke="#1c439a" stroke-width="2">
                <rect width="5.997" height="5.498" stroke="none"/>
                <rect x="1" y="1" width="3.997" height="3.498" fill="none"/>
              </g>
            </g>
            <g id="グループ_10742-3" data-name="グループ 10742" transform="translate(8.995 -16006.13)">
              <g id="長方形_23485-6" data-name="長方形 23485" fill="none" stroke="#1c439a" stroke-width="2">
                <rect width="3.801" height="5.498" stroke="none"/>
                <rect x="1" y="1" width="1.801" height="3.498" fill="none"/>
              </g>
            </g>
          </g>
          <g id="グループ_10748" data-name="グループ 10748" transform="translate(0 10.64)">
            <g id="グループ_10741-4" data-name="グループ 10741" transform="translate(0 -16006.13)">
              <g id="長方形_23485-7" data-name="長方形 23485" fill="none" stroke="#1c439a" stroke-width="2">
                <rect width="5.997" height="5.498" stroke="none"/>
                <rect x="1" y="1" width="3.997" height="3.498" fill="none"/>
              </g>
            </g>
            <g id="グループ_10742-4" data-name="グループ 10742" transform="translate(8.995 -16006.13)">
              <g id="長方形_23485-8" data-name="長方形 23485" fill="none" stroke="#1c439a" stroke-width="2">
                <rect width="3.733" height="5.498" stroke="none"/>
                <rect x="1" y="1" width="1.733" height="3.498" fill="none"/>
              </g>
            </g>
          </g>
          <g id="グループ_10747" data-name="グループ 10747" transform="translate(0 1.142)">
            <g id="グループ_10741-5" data-name="グループ 10741" transform="translate(0 -16006.13)">
              <g id="長方形_23485-9" data-name="長方形 23485" fill="none" stroke="#1c439a" stroke-width="2">
                <rect width="5.997" height="5.498" stroke="none"/>
                <rect x="1" y="1" width="3.997" height="3.498" fill="none"/>
              </g>
            </g>
            <g id="グループ_10742-5" data-name="グループ 10742" transform="translate(8.995 -16006.13)">
              <g id="長方形_23485-10" data-name="長方形 23485" fill="none" stroke="#1c439a" stroke-width="2">
                <rect width="5.997" height="5.498" stroke="none"/>
                <rect x="1" y="1" width="3.997" height="3.498" fill="none"/>
              </g>
            </g>
            <g id="グループ_10743" data-name="グループ 10743" transform="translate(17.99 -16006.13)">
              <g id="長方形_23485-11" data-name="長方形 23485" fill="none" stroke="#1c439a" stroke-width="2">
                <rect width="5.997" height="5.498" stroke="none"/>
                <rect x="1" y="1" width="3.997" height="3.498" fill="none"/>
              </g>
            </g>
          </g>
        </g>
        <path id="パス_47005" data-name="パス 47005" d="M0,0H28.985V39.979H0Z" transform="translate(-21020.885 -16007.497)" fill="none" stroke="#1c439a" stroke-width="2"/>
        <g id="グループ_10755" data-name="グループ 10755" transform="translate(-21016.885 -10.953)">
          <g id="グループ_10754" data-name="グループ 10754" transform="translate(0 -20738.266)">
            <g id="グループ_10741-6" data-name="グループ 10741" transform="translate(0 4762.479)">
              <g id="長方形_23485-12" data-name="長方形 23485" fill="none" stroke="#1c439a" stroke-width="2">
                <rect width="5.997" height="5.497" stroke="none"/>
                <rect x="1" y="1" width="3.997" height="3.497" fill="none"/>
              </g>
            </g>
            <g id="グループ_10742-6" data-name="グループ 10742" transform="translate(7.996 4762.479)">
              <g id="長方形_23485-13" data-name="長方形 23485" fill="none" stroke="#1c439a" stroke-width="2">
                <rect width="5.997" height="5.497" stroke="none"/>
                <rect x="1" y="1" width="3.997" height="3.497" fill="none"/>
              </g>
            </g>
            <g id="グループ_10743-2" data-name="グループ 10743" transform="translate(15.992 4762.479)">
              <g id="長方形_23485-14" data-name="長方形 23485" fill="none" stroke="#1c439a" stroke-width="2">
                <rect width="5.997" height="5.497" stroke="none"/>
                <rect x="1" y="1" width="3.997" height="3.497" fill="none"/>
              </g>
            </g>
          </g>
          <g id="グループ_10753" data-name="グループ 10753" transform="translate(0 -20746.762)">
            <g id="グループ_10741-7" data-name="グループ 10741" transform="translate(0 4762.479)">
              <g id="長方形_23485-15" data-name="長方形 23485" fill="none" stroke="#1c439a" stroke-width="2">
                <rect width="5.997" height="5.497" stroke="none"/>
                <rect x="1" y="1" width="3.997" height="3.497" fill="none"/>
              </g>
            </g>
            <g id="グループ_10742-7" data-name="グループ 10742" transform="translate(7.996 4762.479)">
              <g id="長方形_23485-16" data-name="長方形 23485" fill="none" stroke="#1c439a" stroke-width="2">
                <rect width="5.997" height="5.497" stroke="none"/>
                <rect x="1" y="1" width="3.997" height="3.497" fill="none"/>
              </g>
            </g>
            <g id="グループ_10743-3" data-name="グループ 10743" transform="translate(15.992 4762.479)">
              <g id="長方形_23485-17" data-name="長方形 23485" fill="none" stroke="#1c439a" stroke-width="2">
                <rect width="5.997" height="5.497" stroke="none"/>
                <rect x="1" y="1" width="3.997" height="3.497" fill="none"/>
              </g>
            </g>
          </g>
          <g id="グループ_10744" data-name="グループ 10744" transform="translate(0 -20755.26)">
            <g id="グループ_10741-8" data-name="グループ 10741" transform="translate(0 4762.479)">
              <g id="長方形_23485-18" data-name="長方形 23485" fill="none" stroke="#1c439a" stroke-width="2">
                <rect width="5.997" height="5.497" stroke="none"/>
                <rect x="1" y="1" width="3.997" height="3.497" fill="none"/>
              </g>
            </g>
            <g id="グループ_10742-8" data-name="グループ 10742" transform="translate(7.996 4762.479)">
              <g id="長方形_23485-19" data-name="長方形 23485" fill="none" stroke="#1c439a" stroke-width="2">
                <rect width="5.997" height="5.497" stroke="none"/>
                <rect x="1" y="1" width="3.997" height="3.497" fill="none"/>
              </g>
            </g>
            <g id="グループ_10743-4" data-name="グループ 10743" transform="translate(15.992 4762.479)">
              <g id="長方形_23485-20" data-name="長方形 23485" fill="none" stroke="#1c439a" stroke-width="2">
                <rect width="5.997" height="5.497" stroke="none"/>
                <rect x="1" y="1" width="3.997" height="3.497" fill="none"/>
              </g>
            </g>
          </g>
        </g>
        <g id="グループ_10741-9" data-name="グループ 10741" transform="translate(-21016.465 -15978.513)">
          <g id="長方形_23485-21" data-name="長方形 23485" fill="none" stroke="#1c439a" stroke-width="2">
            <rect width="5.997" height="5.997" stroke="none"/>
            <rect x="1" y="1" width="3.997" height="3.997" fill="none"/>
          </g>
        </g>
        <g id="グループ_10742-9" data-name="グループ 10742" transform="translate(-21008.625 -15978.513)">
          <g id="長方形_23485-22" data-name="長方形 23485" fill="none" stroke="#1c439a" stroke-width="2">
            <rect width="5.997" height="10.994" stroke="none"/>
            <rect x="1" y="1" width="3.997" height="8.994" fill="none"/>
          </g>
        </g>
        <g id="グループ_10743-5" data-name="グループ 10743" transform="translate(-21000.896 -15978.513)">
          <g id="長方形_23485-23" data-name="長方形 23485" fill="none" stroke="#1c439a" stroke-width="2">
            <rect width="5.997" height="5.997" stroke="none"/>
            <rect x="1" y="1" width="3.997" height="3.997" fill="none"/>
          </g>
        </g>
        <line id="線_66" data-name="線 66" x2="50.211" transform="translate(-21039.5 -15967.521)" fill="none" stroke="#1c439a" stroke-width="2"/>
      </g>
      <g id="グループ_10763" data-name="グループ 10763" transform="translate(675.275 4394.195)">
        <g id="グループ_10737" data-name="グループ 10737" transform="translate(-0.275 -0.512)" clip-path="url(#clip-path-2)">
          <path id="パス_46971" data-name="パス 46971" d="M4,33.6V14.526A1.526,1.526,0,0,1,5.526,13h5.341" transform="translate(-0.693 -2.745)" fill="none" stroke="#1c439a" stroke-miterlimit="10" stroke-width="2"/>
          <line id="線_65" data-name="線 65" y2="9" transform="translate(33.999 21.318)" fill="none" stroke="#1c439a" stroke-miterlimit="10" stroke-width="2"/>
          <path id="パス_46972" data-name="パス 46972" d="M36.1,40H22.365l-1.526,1.526H17.023L15.5,40H1v.763a3.052,3.052,0,0,0,3.052,3.052H33.047A3.052,3.052,0,0,0,36.1,40.763Z" transform="translate(0.018 -9.143)" fill="none" stroke="#1c439a" stroke-miterlimit="10" stroke-width="2"/>
          <path id="パス_46973" data-name="パス 46973" d="M15,3.289A2.289,2.289,0,0,1,17.289,1H37.128a2.289,2.289,0,0,1,2.289,2.289v14.5a2.289,2.289,0,0,1-2.289,2.289H27.971l-4.039,4.8a.763.763,0,0,1-1.3-.539V20.075H17.289A2.289,2.289,0,0,1,15,17.786Z" transform="translate(-3.3 0.099)" fill="none" stroke="#1c439a" stroke-miterlimit="10" stroke-width="2"/>
          <path id="パス_46974" data-name="パス 46974" d="M34.156,12.578v4.578H25V8h6.867" transform="translate(-5.67 -1.56)" fill="none" stroke="#1c439a" stroke-miterlimit="10" stroke-width="2"/>
          <path id="パス_46975" data-name="パス 46975" d="M28,12.578l2.289,2.289L35.63,8" transform="translate(-6.381 -1.56)" fill="none" stroke="#1c439a" stroke-miterlimit="10" stroke-width="2"/>
        </g>
      </g>
    </g>
  </g>
</svg>
