<svg xmlns="http://www.w3.org/2000/svg" xmlns:xlink="http://www.w3.org/1999/xlink" width="68" height="68" viewBox="0 0 68 68"><defs><linearGradient id="a" x1="0.5" x2="0.5" y2="1" gradientUnits="objectBoundingBox"><stop offset="0" stop-color="#1c6a9a"/><stop offset="1" stop-color="#1c439a"/></linearGradient></defs><g transform="translate(-878 -7961.647)"><g transform="translate(878 7961.647)" stroke="rgba(255,255,255,0.33)" stroke-width="1" fill="url(#a)"><circle cx="34" cy="34" r="34" stroke="none"/><circle cx="34" cy="34" r="33.5" fill="none"/></g><path d="M91.868,35.993c5.48,10.447,11.637,11.523,13.427,10.584l.467-.245-4.192-7.992c-.153.079-.31.159-.468.242-1.443.758-2.885-1.43-4.732-4.951s-2.828-5.95-1.385-6.708c.16-.083.313-.165.466-.247l-4.192-7.992-.467.245C89,19.869,86.387,25.546,91.868,35.993ZM108.3,45c.692-.363.312-1.158-.081-1.907L105.4,37.727c-.3-.577-.8-.9-1.208-.69-.254.133-.845.415-1.608.793l4.184,7.975ZM98.013,25.262c.4-.212.421-.811.118-1.387s-2.815-5.368-2.815-5.368c-.394-.75-.831-1.514-1.523-1.151l-1.53.8,4.184,7.976C97.192,25.722,97.759,25.395,98.013,25.262Z" transform="translate(813.373 7965.568)" fill="#fff"/></g></svg>