<svg xmlns="http://www.w3.org/2000/svg" xmlns:xlink="http://www.w3.org/1999/xlink" width="68" height="68" viewBox="0 0 68 68"><defs><linearGradient id="a" x1="0.5" x2="0.5" y2="1" gradientUnits="objectBoundingBox"><stop offset="0" stop-color="#1c6a9a"/><stop offset="1" stop-color="#1c439a"/></linearGradient></defs><g transform="translate(-283 -7961.647)"><g transform="translate(283 7961.647)" stroke="rgba(255,255,255,0.33)" stroke-width="1" fill="url(#a)"><circle cx="34" cy="34" r="34" stroke="none"/><circle cx="34" cy="34" r="33.5" fill="none"/></g><path d="M12.655,13.353a1.7,1.7,0,0,0,1.156-.587l8.047-7.972a2.812,2.812,0,0,0-1.9-.49H5.074a2.376,2.376,0,0,0-1.657.455l8.091,8.007A1.671,1.671,0,0,0,12.655,13.353ZM2.6,18.851l6.586-6.515L2.591,5.83a3.064,3.064,0,0,0-.237,1.409v10.2A2.989,2.989,0,0,0,2.6,18.851Zm2.727,1.533H20.209a2.4,2.4,0,0,0,1.672-.46l-6.712-6.65-.593.593a2.781,2.781,0,0,1-1.92.9,2.78,2.78,0,0,1-1.922-.9l-.594-.592L3.446,19.916A2.907,2.907,0,0,0,5.324,20.384ZM22.7,18.842a3.166,3.166,0,0,0,.225-1.4V7.239A3.055,3.055,0,0,0,22.7,5.857l-6.565,6.479Z" transform="translate(304.359 7984.516)" fill="#f7f9fc"/></g></svg>