<svg xmlns="http://www.w3.org/2000/svg" xmlns:xlink="http://www.w3.org/1999/xlink" width="844.509" height="135.169" viewBox="0 0 844.509 135.169">
  <defs>
    <linearGradient id="linear-gradient" x1="0.5" x2="0.5" y2="1" gradientUnits="objectBoundingBox">
      <stop offset="0" stop-color="#f7f9fc"/>
      <stop offset="1" stop-color="#f7f9fc" stop-opacity="0"/>
    </linearGradient>
  </defs>
  <path id="パス_47011" data-name="パス 47011" d="M113.886-42.975a52.013,52.013,0,0,1-7.232,23.064A42.887,42.887,0,0,1,89.364-3.98Q78.237,1.807,62.148,1.807q-16.275,0-28.22-7.638A49.821,49.821,0,0,1,15.491-27.487Q9-41.5,9-60.479V-70.954q0-19.066,6.634-33.053A50.626,50.626,0,0,1,34.4-125.679q12.131-7.684,28.614-7.684,15.828,0,26.715,5.826a42.246,42.246,0,0,1,16.91,16.113,56.921,56.921,0,0,1,7.314,23.55H90.692q-1.349-12.579-7.453-19.539t-20.228-6.96q-10.124,0-16.885,5T35.951-94.74q-3.414,9.634-3.414,23.6v10.656a77.139,77.139,0,0,0,3.056,23.022q3.056,9.722,9.584,15.026t16.972,5.3q9.582,0,15.479-2.981a20.266,20.266,0,0,0,8.965-8.747,39.643,39.643,0,0,0,4.036-14.121ZM243.03-62.312q0,19.946-6.838,34.3A51.5,51.5,0,0,1,217.073-5.922q-12.28,7.728-28.645,7.728-16.078,0-28.506-7.728A52.288,52.288,0,0,1,140.48-28.008q-7.013-14.358-7.013-34.3v-6.809q0-19.946,6.968-34.333a52.176,52.176,0,0,1,19.352-22.131q12.383-7.745,28.461-7.745,16.366,0,28.69,7.745a51.764,51.764,0,0,1,19.208,22.131q6.884,14.387,6.884,34.333ZM219.667-69.3q0-14.572-3.721-24.522T205.2-108.9a27.99,27.99,0,0,0-16.953-5.123,27.706,27.706,0,0,0-16.785,5.123q-7.023,5.123-10.783,15.073T156.919-69.3v6.989q0,14.534,3.805,24.546T171.6-22.584a27.726,27.726,0,0,0,16.83,5.171q9.986,0,16.967-5.171t10.627-15.183q3.646-10.012,3.646-24.546ZM373.689,0H350.374L292.3-92.669V0H269.014V-131.523H292.3l58.246,92.846v-92.846h23.141Zm84.943,0H435.461V-131.523h23.172Zm41.007-112.692H394.8v-18.831H499.639ZM522.129,0H497.6l49.525-131.523H562.7L561.12-112.86Zm32.21-112.86-1.678-18.663h15.612L617.952,0H593.479Zm37.609,82.806h-71.69V-48.885h71.69ZM736.894-42.975a52.014,52.014,0,0,1-7.232,23.064A42.887,42.887,0,0,1,712.372-3.98q-11.126,5.786-27.215,5.786-16.275,0-28.22-7.638A49.822,49.822,0,0,1,638.5-27.487q-6.493-14.018-6.493-32.992V-70.954q0-19.066,6.634-33.053A50.626,50.626,0,0,1,657.4-125.679q12.131-7.684,28.614-7.684,15.828,0,26.715,5.826a42.246,42.246,0,0,1,16.91,16.113,56.922,56.922,0,0,1,7.314,23.55H713.7q-1.349-12.579-7.453-19.539t-20.228-6.96q-10.124,0-16.885,5T658.959-94.74q-3.414,9.634-3.414,23.6v10.656A77.139,77.139,0,0,0,658.6-37.457q3.056,9.722,9.584,15.026t16.972,5.3q9.582,0,15.479-2.981a20.266,20.266,0,0,0,8.965-8.747,39.642,39.642,0,0,0,4.036-14.121ZM812.5,0H789.329V-131.523H812.5Zm41.006-112.692H748.668v-18.831H853.507Z" transform="translate(-8.998 133.362)" opacity="0.05" fill="url(#linear-gradient)"/>
</svg>
