<svg xmlns="http://www.w3.org/2000/svg" xmlns:xlink="http://www.w3.org/1999/xlink" width="100" height="100" viewBox="0 0 100 100">
  <defs>
    <clipPath id="clip-path">
      <rect id="長方形_23637" data-name="長方形 23637" width="100" height="100" transform="translate(-24723 -17097)" fill="#ff8484" stroke="#707070" stroke-width="1" opacity="0.443"/>
    </clipPath>
    <radialGradient id="radial-gradient" cx="0.13" cy="0.174" r="0.938" gradientTransform="translate(0.156 -0.042) rotate(43.828)" gradientUnits="objectBoundingBox">
      <stop offset="0" stop-color="#feddee"/>
      <stop offset="1" stop-color="#ddeefa"/>
    </radialGradient>
    <clipPath id="clip-path-2">
      <rect id="長方形_23482" data-name="長方形 23482" width="56" height="54" transform="translate(0 -0.512)" fill="none"/>
    </clipPath>
    <clipPath id="clip-path-3">
      <rect id="長方形_23487" data-name="長方形 23487" width="36" height="37" transform="translate(0.047 0.373)" fill="none"/>
    </clipPath>
  </defs>
  <g id="top_feature_method_icon_04" transform="translate(24723 17097)" clip-path="url(#clip-path)">
    <circle id="楕円形_8373" data-name="楕円形 8373" cx="24" cy="24" r="24" transform="translate(-24673 -17053.49)" opacity="0.4" fill="url(#radial-gradient)"/>
    <circle id="楕円形_8378" data-name="楕円形 8378" cx="16.5" cy="16.5" r="16.5" transform="translate(-24717 -17064.49)" opacity="0.4" fill="url(#radial-gradient)"/>
    <circle id="楕円形_8374" data-name="楕円形 8374" cx="16.5" cy="16.5" r="16.5" transform="translate(-24681 -17093.49)" opacity="0.4" fill="url(#radial-gradient)"/>
    <g id="グループ_11105" data-name="グループ 11105" transform="translate(-25357 -22134.49)">
      <g id="グループ_10760" data-name="グループ 10760" transform="translate(667 5067.512)">
        <g id="グループ_10737" data-name="グループ 10737" clip-path="url(#clip-path-2)">
          <path id="パス_46971" data-name="パス 46971" d="M4,44.4V15.326A2.325,2.325,0,0,1,6.326,13h8.14" transform="translate(0.651 2.116)" fill="none" stroke="#1c439a" stroke-miterlimit="10" stroke-width="2"/>
          <line id="線_65" data-name="線 65" y2="14" transform="translate(51 32.488)" fill="none" stroke="#1c439a" stroke-miterlimit="10" stroke-width="2"/>
          <path id="パス_46972" data-name="パス 46972" d="M54.488,40H33.558l-2.326,2.326H25.419L23.093,40H1v1.163a4.651,4.651,0,0,0,4.651,4.651H49.837a4.651,4.651,0,0,0,4.651-4.651Z" transform="translate(0.163 6.512)" fill="none" stroke="#1c439a" stroke-miterlimit="10" stroke-width="2"/>
          <path id="パス_46973" data-name="パス 46973" d="M15,4.488A3.488,3.488,0,0,1,18.488,1H48.721a3.488,3.488,0,0,1,3.488,3.488V26.581a3.488,3.488,0,0,1-3.488,3.488H34.767l-6.155,7.317a1.163,1.163,0,0,1-1.985-.822v-6.5h-8.14A3.488,3.488,0,0,1,15,26.581Z" transform="translate(2.442 0.163)" fill="none" stroke="#1c439a" stroke-miterlimit="10" stroke-width="2"/>
          <path id="パス_46974" data-name="パス 46974" d="M38.953,14.977v6.977H25V8H35.465" transform="translate(4.07 1.302)" fill="none" stroke="#1c439a" stroke-miterlimit="10" stroke-width="2"/>
          <path id="パス_46975" data-name="パス 46975" d="M28,14.977l3.488,3.488L39.628,8" transform="translate(4.558 1.302)" fill="none" stroke="#1c439a" stroke-miterlimit="10" stroke-width="2"/>
        </g>
      </g>
      <g id="グループ_10759" data-name="グループ 10759" transform="translate(642.953 5050.627)">
        <g id="グループ_10758" data-name="グループ 10758" transform="translate(0 0)" clip-path="url(#clip-path-3)">
          <path id="パス_47002" data-name="パス 47002" d="M18.645,23.791v9.557a1.47,1.47,0,0,1-1.47,1.47H2.47A1.47,1.47,0,0,1,1,33.348V2.47A1.47,1.47,0,0,1,2.47,1h14.7a1.47,1.47,0,0,1,1.47,1.47V6.882" transform="translate(2.061 1.656)" fill="none" stroke="#1c439a" stroke-miterlimit="10" stroke-width="2"/>
          <line id="線_67" data-name="線 67" x2="18" transform="translate(3.047 32.373)" fill="none" stroke="#1c439a" stroke-miterlimit="10" stroke-width="2"/>
          <line id="線_68" data-name="線 68" x2="3" transform="translate(10.047 33.373)" fill="none" stroke="#1c439a" stroke-miterlimit="10" stroke-width="2"/>
          <path id="パス_47003" data-name="パス 47003" d="M23.613,11H11.47A1.47,1.47,0,0,0,10,12.47V23.5a1.47,1.47,0,0,0,1.47,1.47h2.941l2.206,3.676,2.206-3.676h4.791a1.47,1.47,0,0,0,1.47-1.47V12.47A1.47,1.47,0,0,0,23.613,11Z" transform="translate(-0.323 -0.992)" fill="none" stroke="#1c439a" stroke-linejoin="round" stroke-width="2"/>
          <path id="パス_47004" data-name="パス 47004" d="M21.882,17l-3.676,5.146L16,19.941" transform="translate(-1.911 -2.581)" fill="none" stroke="#1c439a" stroke-miterlimit="10" stroke-width="2"/>
        </g>
      </g>
    </g>
  </g>
</svg>
