<svg xmlns="http://www.w3.org/2000/svg" xmlns:xlink="http://www.w3.org/1999/xlink" width="328" height="360" viewBox="0 0 328 360">
  <defs>
    <clipPath id="clip-top_feature_item_01_img_04">
      <rect width="328" height="360"/>
    </clipPath>
  </defs>
  <g id="top_feature_item_01_img_04" clip-path="url(#clip-top_feature_item_01_img_04)">
    <g id="グループ_11084" data-name="グループ 11084" transform="translate(18683 18781)">
      <g id="長方形_23491" data-name="長方形 23491" transform="translate(-18683 -18765)" fill="#cbe1f3" stroke="#4c9ed7" stroke-width="1">
        <rect width="328" height="328" rx="8" stroke="none"/>
        <rect x="0.5" y="0.5" width="327" height="327" rx="7.5" fill="none"/>
      </g>
      <g id="長方形_23493" data-name="長方形 23493" transform="translate(-18653 -18699)" fill="#fff" stroke="#99cbe8" stroke-width="1">
        <rect width="270" height="114" rx="8" stroke="none"/>
        <rect x="0.5" y="0.5" width="269" height="113" rx="7.5" fill="none"/>
      </g>
      <g id="長方形_23501" data-name="長方形 23501" transform="translate(-18653 -18571)" fill="#fff" stroke="#99cbe8" stroke-width="1">
        <rect width="270" height="114" rx="8" stroke="none"/>
        <rect x="0.5" y="0.5" width="269" height="113" rx="7.5" fill="none"/>
      </g>
      <rect id="長方形_23496" data-name="長方形 23496" width="79" height="41" rx="8" transform="translate(-18643 -18645)" fill="#e4eff9"/>
      <rect id="長方形_23497" data-name="長方形 23497" width="79" height="41" rx="8" transform="translate(-18558 -18645)" fill="#e4eff9"/>
      <rect id="長方形_23498" data-name="長方形 23498" width="79" height="41" rx="8" transform="translate(-18472 -18645)" fill="#e4eff9"/>
      <rect id="長方形_23500" data-name="長方形 23500" width="120" height="42" rx="8" transform="translate(-18578 -18517)" fill="#e4eff9"/>
      <path id="長方形_23492" data-name="長方形 23492" d="M8,0H320a8,8,0,0,1,8,8V49a0,0,0,0,1,0,0H0a0,0,0,0,1,0,0V8A8,8,0,0,1,8,0Z" transform="translate(-18683 -18765)" fill="#4c9ed7"/>
      <path id="長方形_23494" data-name="長方形 23494" d="M8,0H262a8,8,0,0,1,8,8V41a0,0,0,0,1,0,0H0a0,0,0,0,1,0,0V8A8,8,0,0,1,8,0Z" transform="translate(-18653 -18699)" fill="#97c9e8"/>
      <path id="長方形_23499" data-name="長方形 23499" d="M8,0H262a8,8,0,0,1,8,8V41a0,0,0,0,1,0,0H0a0,0,0,0,1,0,0V8A8,8,0,0,1,8,0Z" transform="translate(-18653 -18571)" fill="#97c9e8"/>
      <path id="パス_241134" data-name="パス 241134" d="M9.2-3.568A3.322,3.322,0,0,1,7.95-.826a5.441,5.441,0,0,1-3.485,1A8.184,8.184,0,0,1,.826-.6V-3.129a15,15,0,0,0,2.2.817,6.515,6.515,0,0,0,1.648.237,2.343,2.343,0,0,0,1.375-.343,1.172,1.172,0,0,0,.479-1.02,1.125,1.125,0,0,0-.211-.672,2.36,2.36,0,0,0-.62-.567,15.936,15.936,0,0,0-1.666-.87A7.894,7.894,0,0,1,2.268-6.609,3.992,3.992,0,0,1,1.327-7.8,3.386,3.386,0,0,1,.976-9.378a3.321,3.321,0,0,1,1.156-2.681,4.8,4.8,0,0,1,3.195-.976,7.544,7.544,0,0,1,1.912.237,13.14,13.14,0,0,1,1.9.668l-.879,2.118a12.859,12.859,0,0,0-1.7-.589,5.474,5.474,0,0,0-1.323-.167,1.752,1.752,0,0,0-1.187.36,1.189,1.189,0,0,0-.413.94,1.164,1.164,0,0,0,.167.628,1.836,1.836,0,0,0,.532.519,16.441,16.441,0,0,0,1.727.9,6.872,6.872,0,0,1,2.47,1.727A3.371,3.371,0,0,1,9.2-3.568Zm8.327-7.2a2.776,2.776,0,0,0-2.382,1.156A5.377,5.377,0,0,0,14.3-6.39q0,4.3,3.226,4.3a10.2,10.2,0,0,0,3.278-.677V-.483a9.1,9.1,0,0,1-3.533.659,5.389,5.389,0,0,1-4.289-1.7A7.2,7.2,0,0,1,11.5-6.407a7.973,7.973,0,0,1,.729-3.511,5.272,5.272,0,0,1,2.1-2.312,6.2,6.2,0,0,1,3.2-.8,8.646,8.646,0,0,1,3.762.905l-.879,2.215a14.549,14.549,0,0,0-1.45-.6A4.326,4.326,0,0,0,17.529-10.767ZM35.568-6.442a6.973,6.973,0,0,1-1.582,4.9A5.865,5.865,0,0,1,29.451.176a5.865,5.865,0,0,1-4.535-1.714A7,7,0,0,1,23.334-6.46a6.9,6.9,0,0,1,1.586-4.9,5.932,5.932,0,0,1,4.548-1.692A5.85,5.85,0,0,1,34-11.347,6.99,6.99,0,0,1,35.568-6.442Zm-9.378,0A5.368,5.368,0,0,0,27.008-3.2a2.86,2.86,0,0,0,2.443,1.09q3.261,0,3.261-4.333t-3.243-4.342A2.879,2.879,0,0,0,27.017-9.69,5.345,5.345,0,0,0,26.19-6.442ZM46.462,0,45.53-3.059H40.846L39.914,0H36.978l4.535-12.9h3.331L49.4,0ZM44.88-5.344q-1.292-4.157-1.455-4.7t-.233-.861q-.29,1.125-1.661,5.563Zm5.989,1.09v-2.2h4.72v2.2Zm7.483-8.112q0-1.31,1.459-1.31t1.459,1.31a1.277,1.277,0,0,1-.365.971,1.533,1.533,0,0,1-1.094.347Q58.352-11.048,58.352-12.366ZM61.147,0H58.467V-9.826h2.681Zm3.4-10.206a22.591,22.591,0,0,1,2.988-.36c3.492-.252,4.608-.36,6.066-.576a7.96,7.96,0,0,0-2.5,1.818,6.268,6.268,0,0,0-1.71,4.23A4.816,4.816,0,0,0,71.968-.756,10.829,10.829,0,0,0,76.18.432c.342.054.378.054.612.108l.324-2.448c-.18.018-.342.018-.36.018a10.923,10.923,0,0,1-2.682-.468A3.022,3.022,0,0,1,71.68-5.292c0-1.818,1.35-3.618,3.636-4.806a8.05,8.05,0,0,1,3.564-.972,2.787,2.787,0,0,1,.378.018l-.126-2.286a9.7,9.7,0,0,1-1.854.144c-4.806.234-7.884.4-9.2.468-2.646.18-2.646.18-2.97.18-.09,0-.288,0-.684-.018ZM75.568-8.478A12.149,12.149,0,0,1,77.458-5.8l1.26-.666a11.665,11.665,0,0,0-1.89-2.646Zm5.292.846a10.41,10.41,0,0,0-1.872-2.538l-1.206.63a13.262,13.262,0,0,1,1.836,2.61Zm1.782-6.012a12.656,12.656,0,0,1,2.646,2.412l1.314-1.44a11.75,11.75,0,0,0-2.646-2.3Zm-.468,4.518A12.244,12.244,0,0,1,85-6.75l1.206-1.566a14.438,14.438,0,0,0-2.826-2.2Zm2.5,3.672A15.5,15.5,0,0,1,82.318-.018l1.692,1.4c.2-.432.234-.5.4-.864a25.787,25.787,0,0,0,1.836-4.878Zm6.678,2.5c.414,0,.828.018,1.26.054-.036-.432-.054-.864-.054-1.584v-8.5a13.945,13.945,0,0,1,.072-1.656c-.378.036-.846.054-1.4.072H88.276a9.657,9.657,0,0,1-1.422-.072c.036.612.054.972.054,1.548v8.532c0,.828-.018,1.188-.054,1.656A11.876,11.876,0,0,1,88.1-2.952Zm-2.772-9.972H90.85v1.674H88.582Zm0,3.222H90.85v1.71H88.582Zm0,3.258H90.85v1.872H88.582ZM89.9-1.872A15.3,15.3,0,0,0,92.29,1.35a7.188,7.188,0,0,1,1.4-1.3,9,9,0,0,1-2.358-2.79Zm5.67-1.08A11.335,11.335,0,0,1,95.494-4.5v-7.83a9,9,0,0,1,.09-1.566H93.6a9.047,9.047,0,0,1,.09,1.53v7.884a9.177,9.177,0,0,1-.09,1.53Zm-7.614.2A6.379,6.379,0,0,1,85.63.144a9.493,9.493,0,0,1,1.35,1.35,10.718,10.718,0,0,0,2.448-3.366ZM98.464-12.78a12.079,12.079,0,0,1,.108-2.07H96.556a17.781,17.781,0,0,1,.108,2.07v11.7c0,.414-.108.486-.72.486a10.941,10.941,0,0,1-1.836-.144,7.255,7.255,0,0,1,.45,1.908c.36.018,1.152.036,1.53.036,1.89,0,2.376-.4,2.376-1.89ZM108.4-1.494A5.216,5.216,0,0,1,105.664-4c.27-.846.378-1.26.468-1.62.162-.738.162-.756.252-1.062l-2-.378a11.157,11.157,0,0,1-.36,1.944,10.658,10.658,0,0,1-3.1,5.094,4.9,4.9,0,0,1,1.548,1.476,12.751,12.751,0,0,0,2.466-3.528c1.476,2.178,3.834,3.1,8.046,3.1,1.422,0,2.358-.018,3.834-.054a7,7,0,0,1,.5-2.052c-1.836.162-3.06.216-4.1.216a21.042,21.042,0,0,1-2.934-.18v-3.1h3.4a12.151,12.151,0,0,1,1.764.09V-5.976a9.233,9.233,0,0,1-1.764.108h-3.4v-2.3h2.358a12.9,12.9,0,0,1,1.854.09V-9.99a12.6,12.6,0,0,1-1.854.09h-6.894a12.063,12.063,0,0,1-1.818-.09v1.908a12.814,12.814,0,0,1,1.818-.09H108.4Zm-.306-11.79h-4.7c-.72,0-1.332-.018-1.98-.072.036.414.072.864.072,1.332v1.386a7.955,7.955,0,0,1-.09,1.422h2v-2.25h11.628v2.25h1.944a11.622,11.622,0,0,1-.072-1.4v-1.4a9.9,9.9,0,0,1,.072-1.332c-.666.054-1.278.072-2,.072h-4.86v-.684a5.466,5.466,0,0,1,.09-1.134h-2.214a5.825,5.825,0,0,1,.108,1.152Zm23.814.72v11.5c0,.468-.144.558-.81.558a23.776,23.776,0,0,1-2.7-.2,6.937,6.937,0,0,1,.5,2c.792.036,1.458.054,1.98.054,2.556,0,3.042-.306,3.042-2V-12.564a20,20,0,0,1,2.016.108V-14.49a20.478,20.478,0,0,1-2.214.108h-11.79a19.1,19.1,0,0,1-2.178-.108v2.034a21.718,21.718,0,0,1,2.214-.108Zm-2.466,3.4a8.793,8.793,0,0,1,.09-1.53,15.716,15.716,0,0,1-1.728.072h-4.536a14.279,14.279,0,0,1-1.674-.072,11.024,11.024,0,0,1,.09,1.656v5.67a12.662,12.662,0,0,1-.108,1.62h2.07V-3.24h4.23c.072,0,.234,0,.468.018h.468c.324.018.4.018.7.054a12.155,12.155,0,0,1-.072-1.458Zm-5.814.288h3.888v3.888h-3.888Zm14.526-.972a8.289,8.289,0,0,1,1.17-.126c1.242-.072,4.3-.4,5.454-.576.126.288.216.5.414.972l1.62-.954a26.966,26.966,0,0,0-2.232-3.762l-1.44.7c.4.648.5.81.828,1.44-1.116.144-1.548.18-2.7.252.414-.684,1.062-1.89,1.278-2.358a5.761,5.761,0,0,1,.342-.666L140.8-15.3a12.534,12.534,0,0,1-1.512,3.492h-.27a1.228,1.228,0,0,1-.216.018,7.919,7.919,0,0,1-.864-.054Zm10.692-3.726a7.671,7.671,0,0,1,.09-1.458h-2.07a9.02,9.02,0,0,1,.09,1.548V-9a1.078,1.078,0,0,0,.7,1.188,6.422,6.422,0,0,0,2.466.252c2.358,0,3.042-.108,3.51-.558.414-.414.576-1.026.72-2.718a6.71,6.71,0,0,1-1.8-.558c-.036,1.332-.108,1.692-.306,1.872-.234.18-.648.234-2.106.234-1.134,0-1.3-.072-1.3-.5v-1.134A25.218,25.218,0,0,0,153-12.51c.882-.432.882-.432,1.26-.594l-1.332-1.656a9.04,9.04,0,0,1-2.088,1.26,11.468,11.468,0,0,1-2,.756Zm.018,8.316a7.413,7.413,0,0,1,.09-1.494h-2.07a8.834,8.834,0,0,1,.09,1.6V-.414a1.168,1.168,0,0,0,.558,1.17c.468.288,1.044.36,2.808.36,2.268,0,2.9-.126,3.384-.666.468-.522.666-1.206.792-2.9a7.34,7.34,0,0,1-1.836-.612,5.331,5.331,0,0,1-.288,2.07c-.162.27-.612.36-1.8.36a5.412,5.412,0,0,1-1.278-.09c-.342-.072-.45-.18-.45-.486V-2.9a25.948,25.948,0,0,0,2.682-.828c.558-.216,2.322-1.008,2.844-1.3l-1.368-1.584a11.89,11.89,0,0,1-4.158,1.944Zm-9.9,4.77a15.111,15.111,0,0,1-.09,1.962h2.052a15.718,15.718,0,0,1-.09-2V-2.3h3.024V-.81c-.036.27-.108.324-.486.324a6.356,6.356,0,0,1-1.206-.126,7.331,7.331,0,0,1,.4,1.836c.324.018.594.018.756.018A3.651,3.651,0,0,0,145.21.9c.36-.216.5-.63.5-1.4V-7.668c0-.9.018-1.188.054-1.692a13.1,13.1,0,0,1-1.62.072h-3.96a12.775,12.775,0,0,1-1.3-.054,15.815,15.815,0,0,1,.072,1.656Zm1.854-7.164h3.042v1.116h-3.042Zm0,2.664h3.042V-3.87h-3.042Zm20.466-9.936a18.39,18.39,0,0,1-.54,3.132c-.4.018-.7.018-.918.018a12.5,12.5,0,0,1-2.43-.162v2.052l.954.018c.378.018.486.018.72.018.216,0,.324,0,1.134-.018a27.693,27.693,0,0,1-1.692,4.248,16.384,16.384,0,0,1-1.746,2.88l2.07,1.152c.108-.216.108-.216.342-.648.684-1.26.846-1.584,1.26-2.466a34.549,34.549,0,0,0,1.98-5.22c1.116-.09,2.214-.216,2.862-.324a3.51,3.51,0,0,1,.576-.09L165.8-12.4a15.439,15.439,0,0,1-2.88.5c.2-.792.288-1.152.378-1.584a9.011,9.011,0,0,1,.288-1.206Zm11.52,4.68a28.414,28.414,0,0,0-5.076-2.412l-1.08,1.746a22.03,22.03,0,0,1,5.184,2.52Zm-.072,8.118a3.221,3.221,0,0,1-.27-.252,6.636,6.636,0,0,0-.63-.486,11.246,11.246,0,0,0-2.844-1.656,19.11,19.11,0,0,1-.162-2.466,6,6,0,0,1,.216-1.818l-2.088-.108a9.547,9.547,0,0,0-.144,1.818c0,.54.036,1.242.09,2.07a8.941,8.941,0,0,0-1.674-.162c-2.286,0-3.888,1.278-3.888,3.1,0,1.836,1.548,3.024,3.924,3.024A4.156,4.156,0,0,0,168.25-.072a2.877,2.877,0,0,0,.774-1.908c0-.072-.018-.2-.036-.36a10.886,10.886,0,0,1,2.754,2.232Zm-5.76-.99s.036.432.036.612c0,1.008-.594,1.512-1.818,1.512-1.116,0-1.764-.432-1.764-1.17,0-.756.756-1.242,1.926-1.242A4.537,4.537,0,0,1,166.972-3.114Zm8.262-6.732a8.289,8.289,0,0,1,1.17-.126c1.242-.072,4.3-.4,5.454-.576.126.288.216.5.414.972l1.62-.954a26.966,26.966,0,0,0-2.232-3.762l-1.44.7c.4.648.5.81.828,1.44-1.116.144-1.548.18-2.7.252.414-.684,1.062-1.89,1.278-2.358a5.758,5.758,0,0,1,.342-.666L177.88-15.3a12.534,12.534,0,0,1-1.512,3.492h-.27a1.228,1.228,0,0,1-.216.018,7.919,7.919,0,0,1-.864-.054Zm10.692-3.726a7.671,7.671,0,0,1,.09-1.458h-2.07a9.02,9.02,0,0,1,.09,1.548V-9a1.078,1.078,0,0,0,.7,1.188,6.422,6.422,0,0,0,2.466.252c2.358,0,3.042-.108,3.51-.558.414-.414.576-1.026.72-2.718a6.71,6.71,0,0,1-1.8-.558c-.036,1.332-.108,1.692-.306,1.872-.234.18-.648.234-2.106.234-1.134,0-1.3-.072-1.3-.5v-1.134a25.217,25.217,0,0,0,4.158-1.584c.882-.432.882-.432,1.26-.594l-1.332-1.656a9.039,9.039,0,0,1-2.088,1.26,11.468,11.468,0,0,1-2,.756Zm.018,8.316a7.413,7.413,0,0,1,.09-1.494h-2.07a8.834,8.834,0,0,1,.09,1.6V-.414a1.168,1.168,0,0,0,.558,1.17c.468.288,1.044.36,2.808.36,2.268,0,2.9-.126,3.384-.666.468-.522.666-1.206.792-2.9a7.34,7.34,0,0,1-1.836-.612,5.331,5.331,0,0,1-.288,2.07c-.162.27-.612.36-1.8.36a5.412,5.412,0,0,1-1.278-.09c-.342-.072-.45-.18-.45-.486V-2.9a25.948,25.948,0,0,0,2.682-.828c.558-.216,2.322-1.008,2.844-1.3L190.1-6.606a11.89,11.89,0,0,1-4.158,1.944Zm-9.9,4.77a15.111,15.111,0,0,1-.09,1.962h2.052a15.718,15.718,0,0,1-.09-2V-2.3h3.024V-.81c-.036.27-.108.324-.486.324a6.356,6.356,0,0,1-1.206-.126,7.331,7.331,0,0,1,.4,1.836c.324.018.594.018.756.018A3.651,3.651,0,0,0,182.29.9c.36-.216.5-.63.5-1.4V-7.668c0-.9.018-1.188.054-1.692a13.1,13.1,0,0,1-1.62.072h-3.96a12.775,12.775,0,0,1-1.3-.054,15.815,15.815,0,0,1,.072,1.656ZM177.9-7.65h3.042v1.116H177.9Zm0,2.664h3.042V-3.87H177.9Zm24.156-6.57a23.312,23.312,0,0,1,.2-3.582h-2.394a9.473,9.473,0,0,1,.108,1.746c0,.936,0,1.116-.036,1.836h-3.2a15.575,15.575,0,0,1-2.286-.126v2.16a19.016,19.016,0,0,1,2.232-.108H199.8a13.2,13.2,0,0,1-1.134,4.446A9.542,9.542,0,0,1,193.594-.7a6.079,6.079,0,0,1,1.494,1.872,12.54,12.54,0,0,0,5.184-4.806A15.554,15.554,0,0,0,201.91-9.63h4.878a52.577,52.577,0,0,1-.414,7.02c-.2,1.206-.468,1.53-1.314,1.53a15.894,15.894,0,0,1-3.1-.36,8.415,8.415,0,0,1,.5,2.178,20.754,20.754,0,0,0,2.754.2A3.555,3.555,0,0,0,207.364.45c.558-.4.81-1.026,1.044-2.682.18-1.188.36-4.23.414-6.7a24.341,24.341,0,0,1,.108-2.718,19.551,19.551,0,0,1-2.322.09Z" transform="translate(-18624 -18733)" fill="#fff"/>
      <path id="パス_241133" data-name="パス 241133" d="M2.366-9.893a10.833,10.833,0,0,1-1.43-.078v1.313c.455-.039.884-.065,1.43-.065h.715V-5.07H2.028a10.408,10.408,0,0,1-1.4-.078v1.313a10.962,10.962,0,0,1,1.4-.078H3.3A6.383,6.383,0,0,1,.286-2.444,4.645,4.645,0,0,1,.923-1.092,9.361,9.361,0,0,0,3.25-2.3v.884a9.834,9.834,0,0,1,1.183-.052h1.3v.91h-2.9A13.781,13.781,0,0,1,1.352-.624V.767A13.086,13.086,0,0,1,2.912.689h7.241A12.407,12.407,0,0,1,11.7.767v-1.4a11.048,11.048,0,0,1-1.443.078H7.085v-.91H8.593a9.7,9.7,0,0,1,1.183.052v-.871A10.837,10.837,0,0,0,12.1-1.118a6.529,6.529,0,0,1,.637-1.365,7.206,7.206,0,0,1-3.094-1.43h1.326a10.543,10.543,0,0,1,1.4.078V-5.148a12.076,12.076,0,0,1-1.443.078H9.893V-8.723h.858a12.072,12.072,0,0,1,1.417.065V-9.971a10.352,10.352,0,0,1-1.417.078H9.893a6.068,6.068,0,0,1,.065-.962H8.463a5.283,5.283,0,0,1,.065.962H4.446a6.19,6.19,0,0,1,.065-.962h-1.5a4.447,4.447,0,0,1,.065.962ZM4.446-5.07v-.546H8.528v.546Zm0-1.573v-.52H8.528v.52Zm0-1.547v-.533H8.528v.533Zm3.5,4.277a6.593,6.593,0,0,0,1.3,1.235c-.2.013-.338.013-.65.013H7.085a4.424,4.424,0,0,1,.065-.91H5.668a4.2,4.2,0,0,1,.065.91h-1.3c-.312,0-.455,0-.689-.013A6.93,6.93,0,0,0,4.979-3.913ZM18.265-7.371a12.226,12.226,0,0,1-4.524,4.992,4.481,4.481,0,0,1,.884,1.365,12.427,12.427,0,0,0,2.106-1.82v1.469a9.3,9.3,0,0,1,1.3-.078h1.027v.884a12,12,0,0,1-.091,1.612H20.6a11.747,11.747,0,0,1-.091-1.612v-.884h1.157a9.432,9.432,0,0,1,1.3.078V-2.847A14.493,14.493,0,0,0,25.155-1.04a5.3,5.3,0,0,1,.884-1.417A11.123,11.123,0,0,1,23.2-4.641a12.891,12.891,0,0,1-1.95-2.73h2.782a15.354,15.354,0,0,1,1.573.078V-8.879a10.674,10.674,0,0,1-1.573.091H20.514v-.936a6.49,6.49,0,0,1,.091-1.2H18.98a8.081,8.081,0,0,1,.078,1.209v.923H15.717a11.262,11.262,0,0,1-1.547-.091v1.586a14.844,14.844,0,0,1,1.547-.078Zm2.249,4.524V-4.9A10.505,10.505,0,0,0,20.4-6.344,14.071,14.071,0,0,0,22.919-2.9a8.135,8.135,0,0,1-1.144.052Zm-1.456,0h-1.1A8.23,8.23,0,0,1,16.8-2.9a12.892,12.892,0,0,0,2.366-3.445,12.73,12.73,0,0,0-.1,1.456Zm9.815-6.188h-.455a6.3,6.3,0,0,1-.689-.039,10.71,10.71,0,0,1,.052,1.326v6.76A13.334,13.334,0,0,1,27.716.689h1.417V-.455h1.846v.78H32.37a12.608,12.608,0,0,1-.052-1.287V-5.954a3.33,3.33,0,0,1,.559.65,10.049,10.049,0,0,0,1.664-2.444h3.016A33.411,33.411,0,0,1,37.076-.91c-.117.377-.312.481-.871.481a10.728,10.728,0,0,1-1.664-.182A4.43,4.43,0,0,1,34.9.871c.65.039.975.052,1.287.052,2,0,2.34-.494,2.587-3.783.052-.663.169-3.666.195-5.278a7.549,7.549,0,0,1,.052-1.027,7.621,7.621,0,0,1-1.1.052H35.152c.117-.3.325-.9.377-1.092a3.637,3.637,0,0,1,.182-.507l-1.495-.247a9.77,9.77,0,0,1-1.9,4.095V-7.956c0-.663.013-.7.013-.728a3.7,3.7,0,0,1,.026-.39c-.1.013-.481.026-1.118.039h-.715a14.35,14.35,0,0,0,.663-1.69l-1.495-.208a9.388,9.388,0,0,1-.559,1.9Zm.247,1.261h1.859v2.3H29.12Zm0,3.562h1.859V-1.7H29.12ZM36.556-3a16.924,16.924,0,0,0-1.807-3.224l-1.183.637a12.633,12.633,0,0,1,1.677,3.3Zm6.071-3.081h2.34c.429,0,.884.013,1.2.039-.026-.286-.039-.585-.039-1.17V-9.36c0-.507.013-.806.039-1.222a10.984,10.984,0,0,1-1.326.052h-2.3a12.144,12.144,0,0,1-1.326-.052,14.535,14.535,0,0,1,.052,1.469V-.6a11.621,11.621,0,0,1-.078,1.612H42.7a11.151,11.151,0,0,1-.078-1.6Zm0-3.38H44.85v.676H42.627Zm0,1.677H44.85V-7.1H42.627Zm9.5-1.339a11.447,11.447,0,0,1,.065-1.456,12.408,12.408,0,0,1-1.339.052h-2.47a11.7,11.7,0,0,1-1.326-.052c.026.377.039.728.039,1.222v2.145c0,.559-.013.819-.026,1.17.286-.026.754-.039,1.183-.039h2.509V-.767c0,.286-.065.338-.429.338a15.184,15.184,0,0,1-1.6-.117A4.539,4.539,0,0,1,49.1.832c.858.052,1,.052,1.209.052A2.651,2.651,0,0,0,51.675.676c.338-.208.455-.546.455-1.261Zm-3.744-.338h2.379v.676H48.386Zm0,1.677h2.379V-7.1H48.386Zm.819,3.5a8.577,8.577,0,0,1,.039-.9c-.273.026-.6.039-1,.039H45.032c-.377,0-.676-.013-.962-.039.026.273.039.559.039.91V-1.5a11.585,11.585,0,0,1-.065,1.261h1.378v-.871h2.9c.377,0,.65.013.923.039A8.14,8.14,0,0,1,49.2-1.95Zm-3.783.3h2.47v1.7h-2.47ZM56.784-1.534a4.983,4.983,0,0,1-.741-.806c.065-.481.091-.78.1-1.04a2.375,2.375,0,0,1,.039-.455l-1.313-.221c.013.169.026.26.026.377a10.01,10.01,0,0,1-.195,1.82A5.6,5.6,0,0,1,53.846.078a3.485,3.485,0,0,1,1.1.9,6.887,6.887,0,0,0,.832-1.95A4.282,4.282,0,0,0,57.889.455a17.724,17.724,0,0,0,4.576.39c1.131,0,2.613-.026,3.5-.065a5.018,5.018,0,0,1,.4-1.443c-.338.039-.481.052-.715.065a4.789,4.789,0,0,1,.6-.78,6.156,6.156,0,0,1-1.989-1.2h.221c.481,0,.741.013,1.066.039a11.4,11.4,0,0,1-.052-1.235V-7.384a8.34,8.34,0,0,1,.052-1.105c-.312.026-.546.039-1.092.039H63.336a7.882,7.882,0,0,0,.338-.858h1.131c.442,0,.936.026,1.248.052v-1.261a8.253,8.253,0,0,1-1.365.078H61.412a13.216,13.216,0,0,1-1.4-.065v1.261A11.559,11.559,0,0,1,61.3-9.308h1.066c-.091.273-.195.559-.325.858h-.52a10.637,10.637,0,0,1-1.079-.039c.026.351.039.663.039,1.092v3.8c0,.442-.013.78-.039,1.066a9.873,9.873,0,0,1,1.014-.039,4.462,4.462,0,0,1-2,1.313,4.3,4.3,0,0,1,.715.741,8.438,8.438,0,0,1-2.093-.286V-2.262h.663a5.884,5.884,0,0,1,1.053.065V-3.458a8.152,8.152,0,0,1-1.04.052h-.676V-4.459h.806a9.933,9.933,0,0,1,1.2.052V-5.72a6.483,6.483,0,0,1-1.079.065H55.38a7.581,7.581,0,0,1-1.248-.065v1.326a7.2,7.2,0,0,1,1.248-.065h1.4Zm4.9-1.04H63.96l-.793.585A8.018,8.018,0,0,0,65.052-.546c-.845.039-2.054.078-2.964.078-.39,0-.845-.013-1.3-.026A7.483,7.483,0,0,0,62.569-2Zm.039-4.81h2.522v.611H61.724Zm0,1.573h2.522v.6H61.724Zm0,1.547h2.522v.611H61.724ZM54.808-7.2a8.527,8.527,0,0,1-.052,1.131A9.971,9.971,0,0,1,55.9-6.123h2.548a10.118,10.118,0,0,1,1.144.052,7.829,7.829,0,0,1-.052-1.118V-9.4a8.375,8.375,0,0,1,.052-1.144,7.975,7.975,0,0,1-1.17.052H55.9a7.9,7.9,0,0,1-1.144-.052,9.312,9.312,0,0,1,.052,1.131Zm1.274-2.223h2.184v.637H56.082Zm0,1.6h2.184v.676H56.082Zm16.107-2.353a2.663,2.663,0,0,1-.676.052h-1.17c.208-.559.208-.559.273-.7l-1.378-.26a4.866,4.866,0,0,1-.481,1.4A5.513,5.513,0,0,1,67.288-7.67a3.991,3.991,0,0,1,.858.884v.715c0,3.77-.143,4.927-.78,6.058A4.974,4.974,0,0,1,68.445,1a7.985,7.985,0,0,0,.78-3.185H71.89V-.6c0,.208-.117.273-.546.273a10.313,10.313,0,0,1-1.092-.091,4.4,4.4,0,0,1,.3,1.3c.442.013.663.013.806.013,1.326,0,1.69-.247,1.69-1.17V-7.15a3.937,3.937,0,0,1,.819,1.079l.143-.091a.064.064,0,0,1,.013.039,6.786,6.786,0,0,1-.143.858,5.4,5.4,0,0,1-.689,1.716,4.911,4.911,0,0,1,1.157.6,7.59,7.59,0,0,0,.416-1h1.053v1.17H74.529a7.676,7.676,0,0,1-1.183-.065v1.391a7.6,7.6,0,0,1,1.17-.065h1.3v1.3a8.781,8.781,0,0,1-.078,1.274h1.508a7.083,7.083,0,0,1-.078-1.274v-1.3h1.027a9.73,9.73,0,0,1,1.222.052V-2.847a8.393,8.393,0,0,1-1.248.065h-1v-1.17h.806a9.1,9.1,0,0,1,1.157.052V-5.265a5.832,5.832,0,0,1-1.157.078h-.806v-.1c0-.338.013-.624.039-.949H75.738a5.186,5.186,0,0,1,.078.949v.1h-.7c.039-.2.039-.2.156-.728l-1.209-.26a4.32,4.32,0,0,0,1.43-1.248,3.982,3.982,0,0,0,.741-1.833H77.61a7.339,7.339,0,0,1-.2,1.3c-.065.195-.195.26-.533.26a5.477,5.477,0,0,1-1-.13,3.41,3.41,0,0,1,.3,1.287c.741.026.741.026.949.026.806,0,1.1-.1,1.326-.429a5.565,5.565,0,0,0,.481-2.184c.052-.741.078-1.118.117-1.4a9.5,9.5,0,0,1-1.157.052H74.7a7.852,7.852,0,0,1-1.365-.078v1.365a8.277,8.277,0,0,1,1.157-.065h.364a2.106,2.106,0,0,1-.559,1.183,3.6,3.6,0,0,1-1.248.858c.013-.364.013-.442.039-.663a10.1,10.1,0,0,1-1.235.052c.195-.312.416-.715.546-.949a6.575,6.575,0,0,1,.39-.728ZM69.472-7.826h-.3a10.159,10.159,0,0,0,.676-1.144h1.274a9.651,9.651,0,0,1-.6,1.144ZM69.3-3.315c0-.208,0-.286.013-.663v-.507h.767v1.17Zm2.587,0h-.754v-1.17h.754Zm0-2.249h-.754V-6.669h.754ZM70.083-6.669v1.105h-.741V-6.669ZM91.4-4.043a11.474,11.474,0,0,1,1.443.078V-5.512a7.851,7.851,0,0,1-1.092.078V-8.008a6.949,6.949,0,0,1,.052-1.04A8.987,8.987,0,0,1,90.6-9H88.608v-.715A5.119,5.119,0,0,1,88.7-10.92H87.113A5.987,5.987,0,0,1,87.2-9.7V-9H86.138c-.546,0-.975-.026-1.378-.065v1.469a12.857,12.857,0,0,1,1.378-.065h1.079c-.013.728-.039,1.482-.1,2.223H85.657a11.33,11.33,0,0,1-1.443-.078v1.547a11.127,11.127,0,0,1,1.456-.078h1.248A5.291,5.291,0,0,1,83.369-.169a4.38,4.38,0,0,1,.9,1.313,7.1,7.1,0,0,0,3.783-4.16,8.5,8.5,0,0,0,4.069,4.069,4.762,4.762,0,0,1,.767-1.482,6.9,6.9,0,0,1-3.978-3.614ZM88.491-5.434c.065-.676.091-1.183.1-2.223h1.794v2.223ZM81.25-9.789A9.946,9.946,0,0,1,83.525-7.93l.91-1.17a10.974,10.974,0,0,0-2.275-1.729Zm-.481,3.237a12.674,12.674,0,0,1,2.34,1.781l.832-1.209A12.788,12.788,0,0,0,81.6-7.618Zm1.989,2.535a11.815,11.815,0,0,1-1.924,3.9L82.069.962c.039-.078.312-.559.4-.728A19.925,19.925,0,0,0,83.9-3.2ZM94.38-7.111a5.986,5.986,0,0,1,.845-.091c.9-.052,3.107-.286,3.939-.416.091.208.156.364.3.7l1.17-.689a19.476,19.476,0,0,0-1.612-2.717l-1.04.507c.286.468.364.585.6,1.04-.806.1-1.118.13-1.95.182.3-.494.767-1.365.923-1.7a4.161,4.161,0,0,1,.247-.481l-1.508-.273A9.052,9.052,0,0,1,95.2-8.528H95a.887.887,0,0,1-.156.013,5.719,5.719,0,0,1-.624-.039ZM102.1-9.8a5.54,5.54,0,0,1,.065-1.053h-1.5a6.515,6.515,0,0,1,.065,1.118V-6.5a.779.779,0,0,0,.507.858,4.638,4.638,0,0,0,1.781.182c1.7,0,2.2-.078,2.535-.4.3-.3.416-.741.52-1.963a4.846,4.846,0,0,1-1.3-.4c-.026.962-.078,1.222-.221,1.352-.169.13-.468.169-1.521.169-.819,0-.936-.052-.936-.364v-.819a18.213,18.213,0,0,0,3-1.144c.637-.312.637-.312.91-.429l-.962-1.2a6.529,6.529,0,0,1-1.508.91A8.283,8.283,0,0,1,102.1-9.2Zm.013,6.006a5.354,5.354,0,0,1,.065-1.079h-1.495a6.38,6.38,0,0,1,.065,1.157V-.3a.843.843,0,0,0,.4.845c.338.208.754.26,2.028.26,1.638,0,2.093-.091,2.444-.481s.481-.871.572-2.093a5.3,5.3,0,0,1-1.326-.442,3.85,3.85,0,0,1-.208,1.5c-.117.195-.442.26-1.3.26a3.909,3.909,0,0,1-.923-.065c-.247-.052-.325-.13-.325-.351V-2.093a18.74,18.74,0,0,0,1.937-.6c.4-.156,1.677-.728,2.054-.936l-.988-1.144a8.587,8.587,0,0,1-3,1.4ZM94.965-.351A10.914,10.914,0,0,1,94.9,1.066h1.482a11.35,11.35,0,0,1-.065-1.443V-1.664H98.5V-.585c-.026.2-.078.234-.351.234a4.59,4.59,0,0,1-.871-.091A5.294,5.294,0,0,1,97.565.884C97.8.9,97.994.9,98.111.9A2.637,2.637,0,0,0,99.476.65c.26-.156.364-.455.364-1.014V-5.538c0-.65.013-.858.039-1.222a9.464,9.464,0,0,1-1.17.052h-2.86a9.227,9.227,0,0,1-.936-.039,11.422,11.422,0,0,1,.052,1.2ZM96.3-5.525h2.2v.806H96.3Zm0,1.924h2.2V-2.8H96.3ZM113.75-8.346a16.839,16.839,0,0,1,.143-2.587h-1.729a6.842,6.842,0,0,1,.078,1.261c0,.676,0,.806-.026,1.326H109.9a11.248,11.248,0,0,1-1.651-.091v1.56a13.734,13.734,0,0,1,1.612-.078h2.262a9.535,9.535,0,0,1-.819,3.211A6.892,6.892,0,0,1,107.64-.507,4.39,4.39,0,0,1,108.719.845a9.057,9.057,0,0,0,3.744-3.471,11.233,11.233,0,0,0,1.183-4.329h3.523a37.971,37.971,0,0,1-.3,5.07c-.143.871-.338,1.105-.949,1.105a11.479,11.479,0,0,1-2.236-.26,6.078,6.078,0,0,1,.364,1.573,14.989,14.989,0,0,0,1.989.143,2.567,2.567,0,0,0,1.547-.351c.4-.286.585-.741.754-1.937.13-.858.26-3.055.3-4.836a17.581,17.581,0,0,1,.078-1.963,14.12,14.12,0,0,1-1.677.065Zm19.383,9.5a9.992,9.992,0,0,1-1.651-2.587,8.794,8.794,0,0,1-.689-3.562,8.53,8.53,0,0,1,.676-3.445,10.131,10.131,0,0,1,1.651-2.587H131.3a10.5,10.5,0,0,0-1.43,2.561,9.2,9.2,0,0,0-.663,3.471A9.567,9.567,0,0,0,129.9-1.4a10.413,10.413,0,0,0,1.417,2.561ZM137.2-7.982c-.013.949-.039,1.638-.065,2.041h-1.1a8.041,8.041,0,0,1-1.456-.078v1.456a7.982,7.982,0,0,1,1.417-.078h1a6.977,6.977,0,0,1-.533,1.833,5.566,5.566,0,0,1-2.184,2.353,3.081,3.081,0,0,1,1.079,1.17,7.2,7.2,0,0,0,2.509-3.289A9.17,9.17,0,0,0,139.88-.117a5.24,5.24,0,0,1,.793-1.417,8.148,8.148,0,0,1-1.69-1.638,5.841,5.841,0,0,1-.676-1.027c.039-.195.052-.26.078-.442h.871a8.371,8.371,0,0,1,1.261.065v-1.43a7.916,7.916,0,0,1-1.222.065h-.78c.052-.663.052-.663.078-2.041h.481a12.3,12.3,0,0,1,1.287.065V-9.334a8.435,8.435,0,0,1-1.287.065h-1.963c.117-.325.2-.546.273-.819.117-.39.156-.507.221-.676l-1.469-.286a3.1,3.1,0,0,1-.156.806A6.676,6.676,0,0,1,134.316-7.2a4.613,4.613,0,0,1,1.118.988,7.868,7.868,0,0,0,1.131-1.768Zm5.005,7.748h2.236v.9h1.469a15.559,15.559,0,0,1-.078-1.638V-8.5A10.4,10.4,0,0,1,145.9-9.88a8.148,8.148,0,0,1-1.209.065h-2.73a7.653,7.653,0,0,1-1.2-.065,11.113,11.113,0,0,1,.078,1.378V-.845c0,.52-.039,1.079-.078,1.5h1.443Zm.026-8.281h2.21v6.981h-2.21Zm5.707,1.4a5.987,5.987,0,0,1,.845-.091c.9-.052,3.107-.286,3.939-.416.091.208.156.364.3.7l1.17-.689a19.476,19.476,0,0,0-1.612-2.717l-1.04.507c.286.468.364.585.6,1.04-.806.1-1.118.13-1.95.182.3-.494.767-1.365.923-1.7a4.157,4.157,0,0,1,.247-.481l-1.508-.273a9.052,9.052,0,0,1-1.092,2.522h-.195a.887.887,0,0,1-.156.013,5.719,5.719,0,0,1-.624-.039ZM155.662-9.8a5.54,5.54,0,0,1,.065-1.053h-1.495a6.515,6.515,0,0,1,.065,1.118V-6.5a.779.779,0,0,0,.507.858,4.638,4.638,0,0,0,1.781.182c1.7,0,2.2-.078,2.535-.4.3-.3.416-.741.52-1.963a4.846,4.846,0,0,1-1.3-.4c-.026.962-.078,1.222-.221,1.352-.169.13-.468.169-1.521.169-.819,0-.936-.052-.936-.364v-.819a18.212,18.212,0,0,0,3-1.144c.637-.312.637-.312.91-.429l-.962-1.2a6.529,6.529,0,0,1-1.508.91,8.282,8.282,0,0,1-1.443.546Zm.013,6.006a5.353,5.353,0,0,1,.065-1.079h-1.495a6.38,6.38,0,0,1,.065,1.157V-.3a.843.843,0,0,0,.4.845c.338.208.754.26,2.028.26,1.638,0,2.093-.091,2.444-.481s.481-.871.572-2.093a5.3,5.3,0,0,1-1.326-.442,3.85,3.85,0,0,1-.208,1.5c-.117.195-.442.26-1.3.26A3.908,3.908,0,0,1,156-.52c-.247-.052-.325-.13-.325-.351V-2.093a18.74,18.74,0,0,0,1.937-.6c.4-.156,1.677-.728,2.054-.936l-.988-1.144a8.587,8.587,0,0,1-3,1.4Zm-7.15,3.445a10.914,10.914,0,0,1-.065,1.417h1.482a11.354,11.354,0,0,1-.065-1.443V-1.664h2.184V-.585c-.026.2-.078.234-.351.234a4.591,4.591,0,0,1-.871-.091,5.294,5.294,0,0,1,.286,1.326c.234.013.429.013.546.013A2.637,2.637,0,0,0,153.036.65c.26-.156.364-.455.364-1.014V-5.538c0-.65.013-.858.039-1.222a9.464,9.464,0,0,1-1.17.052h-2.86a9.227,9.227,0,0,1-.936-.039,11.422,11.422,0,0,1,.052,1.2Zm1.339-5.174h2.2v.806h-2.2Zm0,1.924h2.2V-2.8h-2.2Zm18.33-4.732a2.841,2.841,0,0,1,1.313.39,3.221,3.221,0,0,1,1.6,2.886,3.64,3.64,0,0,1-1.807,3.25,6.909,6.909,0,0,1-2.587.715A4.147,4.147,0,0,1,167.5.429a8.5,8.5,0,0,0,2.041-.546A5.008,5.008,0,0,0,172.7-4.966c0-2.925-2.028-4.823-5.148-4.823a5.836,5.836,0,0,0-4.472,1.82,5.584,5.584,0,0,0-1.43,3.783c0,2.093,1.066,3.6,2.548,3.6,1.066,0,1.9-.767,2.639-2.444A18.807,18.807,0,0,0,168.194-8.333Zm-1.586.013a17.133,17.133,0,0,1-1.079,4.394c-.468,1.118-.91,1.664-1.339,1.664-.572,0-1.027-.845-1.027-1.911a4.352,4.352,0,0,1,1.768-3.51A3.309,3.309,0,0,1,166.608-8.32ZM183.417-.637V.156h1.742a8.575,8.575,0,0,1-.065-1.339V-8.32a7.887,7.887,0,0,1,.039-1.079c-.455.026-.455.026-1.131.026h-6.253a8.738,8.738,0,0,1-1.677-.091v1.69a12.721,12.721,0,0,1,1.664-.065h5.694v5.668h-5.915a8.358,8.358,0,0,1-1.625-.091V-.585a14.532,14.532,0,0,1,1.6-.052Zm15.34-9.308a3.579,3.579,0,0,1-1.261.117H190.71a10.364,10.364,0,0,1-1.794-.1v1.625a12.5,12.5,0,0,1,1.768-.078h6.825a5.391,5.391,0,0,1-1.235,1.651,6.028,6.028,0,0,1-1.9,1.2,4.394,4.394,0,0,1,1.17,1.183,8.131,8.131,0,0,0,1.56-1.079,8.25,8.25,0,0,0,2-2.613,3.614,3.614,0,0,1,.52-.91Zm-6.175,2.626a3.292,3.292,0,0,1,.065.78c0,2.457-.416,3.575-1.742,4.628A5.994,5.994,0,0,1,188.63-.806,4.589,4.589,0,0,1,189.657.676a7.512,7.512,0,0,0,3.354-2.34c.884-1.131,1.235-2.379,1.287-4.6a5.968,5.968,0,0,1,.052-1.053ZM203.06,1.157A10.86,10.86,0,0,0,204.477-1.4a9.763,9.763,0,0,0,.676-3.588,9.2,9.2,0,0,0-.663-3.471,10.376,10.376,0,0,0-1.417-2.561H201.24A10.622,10.622,0,0,1,202.9-8.437a8.439,8.439,0,0,1,.663,3.445,8.751,8.751,0,0,1-.689,3.562,9.991,9.991,0,0,1-1.651,2.587Z" transform="translate(-18625 -18674)" fill="#fff"/>
      <path id="パス_241132" data-name="パス 241132" d="M3.718-.533C3.718.6,4.251.858,6.63.858c3.029,0,3.237-.208,3.523-3.627a5.191,5.191,0,0,1-1.378-.494A6.766,6.766,0,0,1,8.463-.806c-.156.273-.6.364-1.755.364-1.235,0-1.573-.091-1.573-.416v-.91A14.355,14.355,0,0,0,7.1-3.64a22.009,22.009,0,0,0,3.263-4.94c.351-.728.351-.728.507-1l-1.495-.6A11.779,11.779,0,0,1,7.917-7.02,18.658,18.658,0,0,1,5.135-3.614V-6.825a9.922,9.922,0,0,1,.078-1.287H3.64a9.627,9.627,0,0,1,.078,1.326v4.368A16.614,16.614,0,0,1,.39-.481,4.5,4.5,0,0,1,1.365.754,16.7,16.7,0,0,0,3.718-.676Zm-.13-9.373A15.257,15.257,0,0,1,7.4-7.917l.858-1.248a19.853,19.853,0,0,0-3.8-1.859ZM1.612-6.942A14.632,14.632,0,0,1,.364-2.431l1.352.676A18.985,18.985,0,0,0,2.99-6.682Zm7.761.767a19.415,19.415,0,0,1,1.9,5l1.378-.741a26.576,26.576,0,0,0-2-4.888Zm6.266,1.989a10.33,10.33,0,0,1-1.495-.078v1.352c.429-.039.858-.065,1.495-.065H17.03A9.955,9.955,0,0,1,15.743-1.7c1.313.312,1.534.364,3.042.767A12.558,12.558,0,0,1,14.417-.3h-.286a4.658,4.658,0,0,1,.585,1.326A12.7,12.7,0,0,0,20.579-.39,26.972,26.972,0,0,1,23.673.832c.169.078.429.2.754.338l.91-1.2a33.285,33.285,0,0,0-3.562-1.261,6.353,6.353,0,0,0,1.183-1.69h1.17c.637,0,1.079.026,1.508.065V-4.264a8.624,8.624,0,0,1-1.508.078H19.539c.156-.26.2-.338.468-.819H23.3a12.825,12.825,0,0,1,1.469.052c-.026-.325-.039-.624-.039-1.274v-.884a11.55,11.55,0,0,1,.052-1.326,10.723,10.723,0,0,1-1.456.065H21.814v-.819h2.327c.624,0,1.092.026,1.508.065V-10.5a11.751,11.751,0,0,1-1.612.078H15.769a12.194,12.194,0,0,1-1.6-.078v1.378c.4-.039.884-.065,1.495-.065h2.158v.819H16.406a11.351,11.351,0,0,1-1.443-.065,12.3,12.3,0,0,1,.052,1.326v.9a11.01,11.01,0,0,1-.052,1.261c.4-.039.832-.052,1.508-.052h1.976a7.137,7.137,0,0,1-.481.819Zm5.772,1.209A3.867,3.867,0,0,1,20.28-1.729c-.455-.13-.637-.182-.78-.208-1.014-.234-1.014-.234-1.469-.364a8.22,8.22,0,0,0,.624-.676Zm-2.3-6.214h1.417v.819H19.11ZM17.823-7.319v1.235h-1.43V-7.319Zm1.287,0h1.417v1.235H19.11Zm2.7,0h1.521v1.235H21.814Zm8.931-3.458a13.281,13.281,0,0,1-.39,2.262c-.286.013-.507.013-.663.013a9.026,9.026,0,0,1-1.755-.117v1.482l.689.013c.273.013.351.013.52.013s.234,0,.819-.013a20,20,0,0,1-1.222,3.068,11.833,11.833,0,0,1-1.261,2.08l1.5.832c.078-.156.078-.156.247-.468.494-.91.611-1.144.91-1.781a24.953,24.953,0,0,0,1.43-3.77c.806-.065,1.6-.156,2.067-.234a2.535,2.535,0,0,1,.416-.065l-.039-1.495a11.15,11.15,0,0,1-2.08.364c.143-.572.208-.832.273-1.144a6.508,6.508,0,0,1,.208-.871Zm8.32,3.38A20.522,20.522,0,0,0,35.4-9.139l-.78,1.261a15.911,15.911,0,0,1,3.744,1.82Zm-.052,5.863a2.328,2.328,0,0,1-.195-.182,4.793,4.793,0,0,0-.455-.351,8.122,8.122,0,0,0-2.054-1.2,13.8,13.8,0,0,1-.117-1.781,4.333,4.333,0,0,1,.156-1.313L34.84-6.435a6.9,6.9,0,0,0-.1,1.313c0,.39.026.9.065,1.495a6.457,6.457,0,0,0-1.209-.117c-1.651,0-2.808.923-2.808,2.236S31.9.676,33.618.676a3,3,0,0,0,2.158-.728,2.078,2.078,0,0,0,.559-1.378c0-.052-.013-.143-.026-.26A7.862,7.862,0,0,1,38.3-.078Zm-4.16-.715s.026.312.026.442c0,.728-.429,1.092-1.313,1.092-.806,0-1.274-.312-1.274-.845s.546-.9,1.391-.9A3.277,3.277,0,0,1,34.853-2.249ZM43.576-8.1a9.842,9.842,0,0,1,.455,1.443l.4-.182v1.144a6.962,6.962,0,0,1,1.313-.078h5.538a9.1,9.1,0,0,1,1.287.078V-6.968a8.229,8.229,0,0,1-1.287.065H49.01v-.52h1.807a8.094,8.094,0,0,1,1.1.052V-8.528a7.439,7.439,0,0,1-1.079.052H49.01v-.481h2.015a9.013,9.013,0,0,1,1.326.065V-10.14A7.016,7.016,0,0,1,51-10.062H49.01a3.6,3.6,0,0,1,.078-.884H47.593a3.6,3.6,0,0,1,.078.884H46.059a7.1,7.1,0,0,1-1.352-.078v1.248a7.733,7.733,0,0,1,1.287-.065h1.677v.481H46.2a8.341,8.341,0,0,1-1.1-.052v1.157a8.634,8.634,0,0,1,1.092-.052h1.482v.52H45.747c-.507,0-.767-.013-1.092-.039l.351-.156a8.618,8.618,0,0,0-.663-1.69l-.767.3V-9.568a8.742,8.742,0,0,1,.078-1.391H42.133a8.915,8.915,0,0,1,.091,1.391v9a12.1,12.1,0,0,1-.091,1.651h1.521a14.047,14.047,0,0,1-.078-1.612ZM46.4-.975h3.978v.442c0,.26-.078.312-.494.312a9.167,9.167,0,0,1-1.274-.117,5.017,5.017,0,0,1,.3,1.248c.637.039.884.052,1.17.052C51.389.962,51.74.7,51.74-.286V-3.952a11.234,11.234,0,0,1,.052-1.339,8.446,8.446,0,0,1-1.17.052H46.046c-.455,0-.728-.013-1.04-.039.026.364.039.611.039,1.1V-.429a10.8,10.8,0,0,1-.065,1.482h1.495A11.15,11.15,0,0,1,46.4-.429Zm0-1.066v-.533h3.978v.533Zm0-1.586V-4.16h3.978v.533Zm-4.862-.936a15.99,15.99,0,0,0,.416-3.627l-1.027-.234a11.363,11.363,0,0,1-.429,3.432ZM65.182-6.422a9.065,9.065,0,0,1-1.235.052H61.5V-9.217h2.834c-.052.962-.117,1.092-.52,1.092a9.406,9.406,0,0,1-1.339-.156,4.7,4.7,0,0,1,.286,1.222,11.492,11.492,0,0,0,1.17.065c1.43,0,1.612-.273,1.768-2.665.013-.312.026-.468.065-.845a7.948,7.948,0,0,1-1.209.065h-3.2a8.666,8.666,0,0,1-1.222-.065A13.1,13.1,0,0,1,60.2-9.178v8.7a9.344,9.344,0,0,1-.091,1.547h1.482A11.186,11.186,0,0,1,61.5-.156,8.4,8.4,0,0,1,62.231.975,8.839,8.839,0,0,0,63.778-.7,10.975,10.975,0,0,0,65.546.988,7.9,7.9,0,0,1,66.3-.39,6.223,6.223,0,0,1,64.506-1.9a14.6,14.6,0,0,0,1.1-3.224,2.76,2.76,0,0,1,.156-.572ZM61.5-5.135h.208a10.189,10.189,0,0,0,1.235,3.289A6.6,6.6,0,0,1,61.5-.338Zm2.808,0a9.1,9.1,0,0,1-.637,2.067,7.376,7.376,0,0,1-.78-2.067Zm-6.552-2.34v-1h.767a8.677,8.677,0,0,1,1.079.052V-9.776a7.791,7.791,0,0,1-1.079.052h-.767v-.234a7.19,7.19,0,0,1,.052-.988h-1.4a4.872,4.872,0,0,1,.078.988v.234H55.6a7.791,7.791,0,0,1-1.079-.052v1.352A8.677,8.677,0,0,1,55.6-8.476h.884v1h-1.17a6.776,6.776,0,0,1-1.131-.065v1.378a6.29,6.29,0,0,1,.936-.052,8.2,8.2,0,0,1,.338,1.443h-.143a6.142,6.142,0,0,1-1.131-.065v1.378a9.45,9.45,0,0,1,1.131-.052h1.157v1.04h-.936a8.159,8.159,0,0,1-1.079-.052v1.365a8.544,8.544,0,0,1,1.079-.052h.936V-.26a10.4,10.4,0,0,1-.078,1.326h1.43c-.039-.416-.065-.9-.065-1.326v-.949h.884a8.413,8.413,0,0,1,1.079.052V-2.522a8.158,8.158,0,0,1-1.079.052h-.884V-3.51h1.014a9.176,9.176,0,0,1,1.131.052V-4.836a5.186,5.186,0,0,1-1,.065h-.156a8.448,8.448,0,0,0,.429-1.443,5.791,5.791,0,0,1,.728.052V-7.54a6.682,6.682,0,0,1-1.131.065Zm-1.079,2.7a9.431,9.431,0,0,0-.325-1.443h1.56a8.289,8.289,0,0,1-.39,1.443ZM74.464-8.333a2.841,2.841,0,0,1,1.313.39,3.221,3.221,0,0,1,1.6,2.886,3.64,3.64,0,0,1-1.807,3.25,6.909,6.909,0,0,1-2.587.715A4.147,4.147,0,0,1,73.775.429a8.5,8.5,0,0,0,2.041-.546,5.008,5.008,0,0,0,3.159-4.849c0-2.925-2.028-4.823-5.148-4.823a5.836,5.836,0,0,0-4.472,1.82,5.584,5.584,0,0,0-1.43,3.783c0,2.093,1.066,3.6,2.548,3.6,1.066,0,1.9-.767,2.639-2.444A18.807,18.807,0,0,0,74.464-8.333Zm-1.586.013A17.133,17.133,0,0,1,71.8-3.926c-.468,1.118-.91,1.664-1.339,1.664-.572,0-1.027-.845-1.027-1.911A4.352,4.352,0,0,1,71.2-7.683,3.309,3.309,0,0,1,72.878-8.32ZM86.515-.845H84.409V-5.057A12.129,12.129,0,0,1,84.5-6.734H82.849a12.589,12.589,0,0,1,.091,1.69v4.2h-.273a9.482,9.482,0,0,1-1.69-.091V.572A14.109,14.109,0,0,1,82.693.481H91a12.927,12.927,0,0,1,1.7.091V-.936a13.682,13.682,0,0,1-1.716.091H88.01V-4.524h2.223a11.551,11.551,0,0,1,1.456.078V-5.889a11.127,11.127,0,0,1-1.456.078H88.01V-8.983h2.613c.572,0,1.131.026,1.651.078v-1.469a16.363,16.363,0,0,1-1.651.078H83.1a15.208,15.208,0,0,1-1.638-.078V-8.9c.546-.052,1.04-.078,1.651-.078h3.406Zm11.9-3.77a5.386,5.386,0,0,1,.481.845,4.572,4.572,0,0,0,.585-.715c0,.091-.013.39-.026.9v3.25a10.72,10.72,0,0,1-.078,1.456h1.378V.533h4.056a9.9,9.9,0,0,1,1.248.078V-.7a7.418,7.418,0,0,1-1.222.065h-1.274v-.949h.975a8.812,8.812,0,0,1,1.079.052V-2.7a7.416,7.416,0,0,1-1.092.052h-.962V-3.6h.975a9.09,9.09,0,0,1,1.079.052v-1.17a7.3,7.3,0,0,1-1.092.052h-.962V-5.6h1.209a8.985,8.985,0,0,1,1.04.052V-6.8a7.44,7.44,0,0,1-1.079.052h-.936a7.513,7.513,0,0,0,.494-1.144l-1.274-.273a6.7,6.7,0,0,1-.533,1.417h-1.248a11.87,11.87,0,0,0,.91-1.82h2.574v1.261h1.365a7.862,7.862,0,0,1-.039-.845V-8.9a8.593,8.593,0,0,1,.039-.962,7.241,7.241,0,0,1-1.144.065H102.57c.195-.637.312-1,.338-1.092l-1.469-.182c-.078.442-.13.728-.273,1.274H99.632a5.728,5.728,0,0,1-.949-.039,4.265,4.265,0,0,1,.039.65v1.105a5.9,5.9,0,0,1-.052.845h1.287V-8.567h.78A8.9,8.9,0,0,1,98.41-5.148v-.286c0-.39.013-.689.039-.962a7.02,7.02,0,0,1-.793.039H96.382a14.707,14.707,0,0,0,.78-2.86h.507a5.07,5.07,0,0,1,.767.052v-1.391a8.521,8.521,0,0,1-1.248.078H95.667a8.647,8.647,0,0,1-1.248-.078v1.4a7.018,7.018,0,0,1,1.1-.065h.286a9.323,9.323,0,0,1-.416,1.859,7.767,7.767,0,0,1-1.443,2.73,5.486,5.486,0,0,1,.494,1.612,3.958,3.958,0,0,0,.7-1.183c-.026.351-.039.741-.039,1V-.52A9.908,9.908,0,0,1,95.03.819h1.3V-.4h.923V.169h1.2a8.766,8.766,0,0,1-.039-1Zm2.327-.052V-5.6h1.573v.936Zm0,1.066h1.573v.949h-1.573Zm0,2.015h1.573v.949h-1.573ZM96.33-5.109h.923v3.445H96.33Zm11.843-2.262a16.316,16.316,0,0,1,2.158-.26c2.522-.182,3.328-.26,4.381-.416A5.749,5.749,0,0,0,112.9-6.734a4.527,4.527,0,0,0-1.235,3.055,3.478,3.478,0,0,0,1.859,3.133,7.821,7.821,0,0,0,3.042.858c.247.039.273.039.442.078l.234-1.768c-.13.013-.247.013-.26.013A7.889,7.889,0,0,1,115.05-1.7a2.183,2.183,0,0,1-1.729-2.119c0-1.313.975-2.613,2.626-3.471a5.814,5.814,0,0,1,2.574-.7,2.013,2.013,0,0,1,.273.013L118.7-9.633a7,7,0,0,1-1.339.1c-3.471.169-5.694.286-6.643.338-1.911.13-1.911.13-2.145.13-.065,0-.208,0-.494-.013Zm7.956,1.248a8.774,8.774,0,0,1,1.365,1.937l.91-.481a8.425,8.425,0,0,0-1.365-1.911Zm3.822.611A7.518,7.518,0,0,0,118.6-7.345l-.871.455a9.578,9.578,0,0,1,1.326,1.885Zm6.487.455V-2.47a10.1,10.1,0,0,1-.078,1.261h1.521A9.8,9.8,0,0,1,127.8-2.47V-5.057h.793a8.034,8.034,0,0,1,1.079.052V-6.37a7.325,7.325,0,0,1-1.079.052H127.8V-7.54a7.017,7.017,0,0,1,.065-1.105h-1.5a7.119,7.119,0,0,1,.065,1.105v1.222h-.858a5.515,5.515,0,0,1-1.079-.065v1.378a8.677,8.677,0,0,1,1.079-.052ZM124.488-9a7.915,7.915,0,0,1,1.222-.065h4.238a24.973,24.973,0,0,0,.416,5.473c.338,1.443.884,2.249,1.521,2.249.39,0,.689-.273.91-.832a8.648,8.648,0,0,0,.4-2.093,4.626,4.626,0,0,1-1.131-.6,3.97,3.97,0,0,1-.143,1.586c-.039,0-.091-.117-.143-.312a17.229,17.229,0,0,1-.442-4.55c0-1.3.026-1.95.065-2.314a9.713,9.713,0,0,1-1.352.078h-4.16a11.4,11.4,0,0,1-1.4-.078Zm-3.263-.741a13.54,13.54,0,0,1,2.21,2.431l1.079-1.053a14.412,14.412,0,0,0-2.249-2.34Zm-.143,5.161a4.792,4.792,0,0,1,.884-.065h.728v2.795a8.689,8.689,0,0,1-1.872,1.274L121.459.91c.273-.221.455-.351.52-.4a13.964,13.964,0,0,0,1.378-1.144,3.1,3.1,0,0,0,1.651,1.17,14.051,14.051,0,0,0,3.731.26c1.456,0,2.873-.026,4.134-.065a6.753,6.753,0,0,1,.39-1.547,50.438,50.438,0,0,1-5.2.26,7.75,7.75,0,0,1-2.99-.325,1.8,1.8,0,0,1-1.014-.962V-4.563a10.186,10.186,0,0,1,.065-1.43,5.882,5.882,0,0,1-1,.065h-.988a5.884,5.884,0,0,1-1.053-.065Zm20.15-4.017v.676h-1.7a9.082,9.082,0,0,1-1.287-.065,11.2,11.2,0,0,1,.052,1.209v1.209a10.605,10.605,0,0,1-.052,1.17,10.83,10.83,0,0,1,1.274-.052h1.118A9.648,9.648,0,0,1,137.6-2.522a4.824,4.824,0,0,1,.819,1.17,10.34,10.34,0,0,0,2.834-2.262c-.026.494-.026.78-.026.871v.949a5.776,5.776,0,0,1-.065.9h1.456a4.543,4.543,0,0,1-.065-.884V-2.73a5.479,5.479,0,0,0-.052-.923,7.086,7.086,0,0,0,1.417,1.287,9.218,9.218,0,0,0,1.911,1.118,5.967,5.967,0,0,1,.7-1.3A8.157,8.157,0,0,1,144.313-3.6a7.569,7.569,0,0,1-1.092-.845h1.261a10.279,10.279,0,0,1,1.274.052,7.98,7.98,0,0,1-.052-1.2V-6.812a7.879,7.879,0,0,1,.052-1.17,8.718,8.718,0,0,1-1.248.065h-1.95v-.676h2.509a7.574,7.574,0,0,1,1.183.065V-9.893a7.992,7.992,0,0,1-1.4.078h-2.288v-.364a3.4,3.4,0,0,1,.065-.754h-1.456a5.1,5.1,0,0,1,.065.819v.3h-1.885a8.325,8.325,0,0,1-1.43-.078v1.365a7.733,7.733,0,0,1,1.209-.065Zm0,1.833V-5.6h-1.625V-6.76Zm1.326,0h1.794V-5.6h-1.794Zm-8.021-3.068a14.738,14.738,0,0,1,2.184,2.457l1.092-1.053a17.422,17.422,0,0,0-2.236-2.366Zm-.026,5.252a4.65,4.65,0,0,1,.871-.065h.689v2.808A7.975,7.975,0,0,1,134.2-.559l.637,1.482c.13-.1.3-.247.559-.429A9.987,9.987,0,0,0,136.773-.65,2.981,2.981,0,0,0,138.385.533a13.621,13.621,0,0,0,3.77.273c1.339,0,2.912-.026,4.1-.078a6.189,6.189,0,0,1,.39-1.534,50.633,50.633,0,0,1-5.954.273c-1.937,0-2.522-.234-3.25-1.274V-4.563a13.1,13.1,0,0,1,.052-1.417,5.725,5.725,0,0,1-.988.065h-.949a5.814,5.814,0,0,1-1.04-.065Zm16.744-6.2a13.28,13.28,0,0,1-.39,2.262c-.286.013-.507.013-.663.013a9.026,9.026,0,0,1-1.755-.117v1.482l.689.013c.273.013.351.013.52.013s.234,0,.819-.013a20,20,0,0,1-1.222,3.068,11.833,11.833,0,0,1-1.261,2.08l1.5.832c.078-.156.078-.156.247-.468.494-.91.611-1.144.91-1.781a24.954,24.954,0,0,0,1.43-3.77c.806-.065,1.6-.156,2.067-.234a2.535,2.535,0,0,1,.416-.065l-.039-1.495a11.151,11.151,0,0,1-2.08.364c.143-.572.208-.832.273-1.144a6.506,6.506,0,0,1,.208-.871Zm8.32,3.38a20.521,20.521,0,0,0-3.666-1.742l-.78,1.261a15.911,15.911,0,0,1,3.744,1.82Zm-.052,5.863a2.328,2.328,0,0,1-.2-.182,4.792,4.792,0,0,0-.455-.351,8.122,8.122,0,0,0-2.054-1.2,13.8,13.8,0,0,1-.117-1.781,4.333,4.333,0,0,1,.156-1.313l-1.508-.078a6.9,6.9,0,0,0-.1,1.313c0,.39.026.9.065,1.495a6.457,6.457,0,0,0-1.209-.117c-1.651,0-2.808.923-2.808,2.236S152.412.676,154.128.676a3,3,0,0,0,2.158-.728,2.078,2.078,0,0,0,.559-1.378c0-.052-.013-.143-.026-.26a7.862,7.862,0,0,1,1.989,1.612Zm-4.16-.715s.026.312.026.442c0,.728-.429,1.092-1.313,1.092-.806,0-1.274-.312-1.274-.845s.546-.9,1.391-.9A3.277,3.277,0,0,1,155.363-2.249ZM166.4-8.9a10.273,10.273,0,0,1-.429,2.626,9.624,9.624,0,0,1-2.223,3.848A10.269,10.269,0,0,1,161.135-.39,3.646,3.646,0,0,1,162.2.975a12.987,12.987,0,0,0,3.224-2.938,10.905,10.905,0,0,0,1.859-3.926,8.4,8.4,0,0,0,.663,1.846,9.9,9.9,0,0,0,1.144,1.924A13.1,13.1,0,0,0,172.25.936a5.517,5.517,0,0,1,1.1-1.469,9.3,9.3,0,0,1-1.924-1.4,10.517,10.517,0,0,1-2.08-2.5,10.065,10.065,0,0,1-1.391-5.148A6.134,6.134,0,0,1,168-10.4a7.084,7.084,0,0,1-1.183.065h-2.067a7.915,7.915,0,0,1-1.222-.065v1.56c.507-.039.9-.065,1.248-.065Zm14.3.559a16.838,16.838,0,0,1,.143-2.587h-1.729a6.844,6.844,0,0,1,.078,1.261c0,.676,0,.806-.026,1.326h-2.314a11.248,11.248,0,0,1-1.651-.091v1.56a13.734,13.734,0,0,1,1.612-.078h2.262a9.535,9.535,0,0,1-.819,3.211A6.892,6.892,0,0,1,174.59-.507,4.39,4.39,0,0,1,175.669.845a9.057,9.057,0,0,0,3.744-3.471A11.234,11.234,0,0,0,180.6-6.955h3.523a37.97,37.97,0,0,1-.3,5.07c-.143.871-.338,1.105-.949,1.105a11.479,11.479,0,0,1-2.236-.26A6.078,6.078,0,0,1,181,.533a14.989,14.989,0,0,0,1.989.143,2.567,2.567,0,0,0,1.547-.351c.4-.286.585-.741.754-1.937.13-.858.26-3.055.3-4.836a17.581,17.581,0,0,1,.078-1.963,14.12,14.12,0,0,1-1.677.065Zm13.26,1.859a1.542,1.542,0,0,0-1.547,1.547,1.542,1.542,0,0,0,1.547,1.547,1.542,1.542,0,0,0,1.547-1.547A1.542,1.542,0,0,0,193.96-6.487Zm10.387-2.847c.065-.364.091-.507.13-.767a7.205,7.205,0,0,1,.143-.728l-1.443-.13a1.051,1.051,0,0,1,.013.195,12.383,12.383,0,0,1-.481,2.769,8.678,8.678,0,0,1-1.521,3.107,3.557,3.557,0,0,1,.832,1.339,9.507,9.507,0,0,0,1.027-1.716,12.114,12.114,0,0,0,.9,2.249,10.41,10.41,0,0,1-2.73,2.795,3.44,3.44,0,0,1,.819,1.313A13.272,13.272,0,0,0,204.7-1.729,5.178,5.178,0,0,0,207.961.429,19.553,19.553,0,0,0,211.5.741c.429,0,1.248-.026,1.69-.052a4.9,4.9,0,0,1,.4-1.508c-1.092.078-1.846.1-2.457.1a9.855,9.855,0,0,1-3.978-.572,4.117,4.117,0,0,1-1.742-1.638,13.053,13.053,0,0,0,1.326-5.707c.039-.468.039-.468.065-.754a7.494,7.494,0,0,1-1.053.052Zm1.04,1.235a11.357,11.357,0,0,1-.741,3.744,14.2,14.2,0,0,1-.9-2.652c.143-.442.221-.689.325-1.092Zm4.706-.845v6.058c0,.767.3.962,1.5.962.845,0,1.209-.143,1.4-.546a8.833,8.833,0,0,0,.351-2.873,3.484,3.484,0,0,1-1.118-.39,15.621,15.621,0,0,1-.117,2.028c-.065.4-.117.455-.416.455-.26,0-.312-.039-.312-.221V-9.113a8.913,8.913,0,0,1,.052-1.183,8.091,8.091,0,0,1-1.17.052h-1.7a5.9,5.9,0,0,1-.975-.052,6.889,6.889,0,0,1,.052,1.014c0,4.238-.234,5.434-1.287,6.734a4.232,4.232,0,0,1,1.157.949,6.519,6.519,0,0,0,1.157-2.912,26.335,26.335,0,0,0,.273-4.433ZM222.04-.611h-2.327A8.2,8.2,0,0,1,218.4-.676V.715A11.3,11.3,0,0,1,219.869.65h5.473a10.938,10.938,0,0,1,1.469.065V-.676a9.05,9.05,0,0,1-1.378.065H223.34V-1.95h1.677a9.281,9.281,0,0,1,1.365.065V-3.224A9.05,9.05,0,0,1,225-3.159H223.34V-4.225h1.495a13.308,13.308,0,0,1,1.417.039c-.039-.377-.052-.832-.052-1.742V-8.7c0-.793.013-1.4.052-1.781a11.283,11.283,0,0,1-1.677.065h-3.588a15.489,15.489,0,0,1-1.755-.065,14.151,14.151,0,0,1,.065,1.742V-5.8c-.026,1.313-.026,1.313-.052,1.612.39-.026.689-.039,1.56-.039h1.235v1.066h-1.456a7.783,7.783,0,0,1-1.339-.065V-1.9A10.662,10.662,0,0,1,220.6-1.95h1.443Zm0-8.541v1.3H220.6v-1.3Zm1.3,0h1.508v1.3H223.34Zm-1.3,2.392v1.313H220.6V-6.76Zm1.3,0h1.508v1.313H223.34Zm-7.085-2.262v2.535h-.4a4.741,4.741,0,0,1-.91-.065v1.339a4.542,4.542,0,0,1,.884-.065h.429v3.094a11.035,11.035,0,0,1-1.6.494l.351,1.469.26-.1c2.015-.819,2.522-1.04,3.653-1.6L218.881-3.3c-.572.286-.728.351-1.274.585V-5.278h.3a5.425,5.425,0,0,1,.819.052V-6.552a4.024,4.024,0,0,1-.819.065h-.3V-9.022H218a7.538,7.538,0,0,1,.962.052v-1.391a5.677,5.677,0,0,1-1.157.078h-1.833a6.933,6.933,0,0,1-1.183-.078v1.4a5.48,5.48,0,0,1,.975-.065Z" transform="translate(-18634 -18545)" fill="#fff"/>
      <path id="パス_241131" data-name="パス 241131" d="M11.7-11.424a11.815,11.815,0,0,1-1.54.084H3.822a12.12,12.12,0,0,1-1.54-.084v1.4a12.256,12.256,0,0,1,1.54-.07h6.342a12.393,12.393,0,0,1,1.54.07Zm1.582,1.988a11.007,11.007,0,0,1-1.526.084H2.212a11.232,11.232,0,0,1-1.54-.084v1.484a12.224,12.224,0,0,1,1.554-.07h9.52c.6,0,1.064.028,1.54.07ZM11.578-7.35a11.861,11.861,0,0,1-1.414.056H3.836A12.284,12.284,0,0,1,2.408-7.35v1.358a9.706,9.706,0,0,1,1.428-.07h6.328a9.729,9.729,0,0,1,1.414.07Zm0,1.946a9.158,9.158,0,0,1-1.414.07H3.836A9.363,9.363,0,0,1,2.408-5.4v1.372A9.591,9.591,0,0,1,3.836-4.1h6.328a9.612,9.612,0,0,1,1.414.07ZM3.738.546h6.44v.6h1.6a8.437,8.437,0,0,1-.07-1.3V-2.128a8.659,8.659,0,0,1,.056-1.218,7.155,7.155,0,0,1-1.106.056H3.276A8.012,8.012,0,0,1,2.17-3.346a7.936,7.936,0,0,1,.07,1.218v1.96c0,.406-.028.868-.07,1.3H3.738Zm0-2.534h6.454V-.8H3.738Zm17.668-4.13a8.973,8.973,0,0,1-1.386-.07V-4.7a9.426,9.426,0,0,1,1.386-.07h5.18a10.056,10.056,0,0,1,1.372.07V-6.2a6.172,6.172,0,0,1-1.274.084V-7.882a7.419,7.419,0,0,1,.056-1.092,7.757,7.757,0,0,1-1.106.056H23.968c.056-.2.14-.56.28-1.092h2.016a10.691,10.691,0,0,1,1.484.07v-1.484a13.777,13.777,0,0,1-1.554.07h-4.27c-.63,0-1.092-.028-1.568-.07V-9.94a10.593,10.593,0,0,1,1.47-.07h.91c-.112.532-.112.532-.252,1.092h-.7a8.639,8.639,0,0,1-1.12-.056v1.428A8.6,8.6,0,0,1,21.756-7.6h.35c-.182.616-.252.812-.5,1.484Zm1.708,0A15.353,15.353,0,0,0,23.6-7.6h1.638v1.484Zm-7.6-3.99c.35-.028.658-.042,1.162-.042h1.89a9.282,9.282,0,0,1,1.162.042v-1.358a6.489,6.489,0,0,1-1.162.07h-1.89a6.489,6.489,0,0,1-1.162-.07Zm-.462,2.03a8.367,8.367,0,0,1,1.12-.056h2.716a7.132,7.132,0,0,1,1.12.056V-9.52a8.458,8.458,0,0,1-1.19.056H16.17a6.167,6.167,0,0,1-1.12-.07Zm.49,1.946a7.872,7.872,0,0,1,.924-.042h2.352a5.643,5.643,0,0,1,.9.042v-1.3a6.887,6.887,0,0,1-.9.042H16.464a7.709,7.709,0,0,1-.924-.042Zm0,1.946a7.77,7.77,0,0,1,.91-.042h2.338a5.838,5.838,0,0,1,.924.042V-5.474a6.887,6.887,0,0,1-.9.042H16.464a7.709,7.709,0,0,1-.924-.042ZM15.484-.238A10.4,10.4,0,0,1,15.4,1.12h1.442V.462h1.624V.938h1.372a7.921,7.921,0,0,1-.056-1.092V-2.492A8.36,8.36,0,0,1,19.824-3.5a4.97,4.97,0,0,1-.938.042H16.492a8.657,8.657,0,0,1-1.078-.056,6.682,6.682,0,0,1,.07,1.106Zm1.372-2.03h1.61V-.784h-1.61Zm3.906,2a13.633,13.633,0,0,1-.056,1.414H22.26V.518h3.388v.616h1.6a11.717,11.717,0,0,1-.07-1.386V-2.9a8.235,8.235,0,0,1,.056-1.12,10.109,10.109,0,0,1-1.134.042H21.91c-.56,0-.84-.014-1.19-.042.028.308.042.574.042.994Zm1.5-2.408h3.388v1.82H22.26Z" transform="translate(-18618 -18620)" fill="#1a1a1a"/>
      <path id="パス_241130" data-name="パス 241130" d="M13.566-9.422a7.582,7.582,0,0,1-1.316.07H9.814c.154-.546.28-1.022.364-1.386.112-.476.14-.6.2-.77l-1.54-.308a10.148,10.148,0,0,1-.336,1.9A10.277,10.277,0,0,1,6.608-5.88,4.913,4.913,0,0,1,7.616-4.872c.294-.392.392-.532.644-.924a9.556,9.556,0,0,0,1.176,3.29A8.691,8.691,0,0,1,7.448-.756a8.554,8.554,0,0,1-1.106.6,4.329,4.329,0,0,1,.756,1.4A10.86,10.86,0,0,0,10.276-1.26a9.587,9.587,0,0,0,2.73,2.408,6.42,6.42,0,0,1,.812-1.484,7.442,7.442,0,0,1-2.66-2.184,11.442,11.442,0,0,0,1.428-5.488,7.153,7.153,0,0,1,.98.056ZM11.158-8.008a10.138,10.138,0,0,1-.868,4.116A11.011,11.011,0,0,1,9.17-7.574c.07-.182.07-.182.182-.434Zm-4.4,7.07a7.245,7.245,0,0,0-1.134-.63,5.2,5.2,0,0,0,.84-1.792A5.531,5.531,0,0,1,7.6-3.29V-4.7a4.95,4.95,0,0,1-1.036.07H4.354c.112-.266.168-.364.294-.714l-1.456-.28a10.131,10.131,0,0,1-.364.994H1.778A5.818,5.818,0,0,1,.672-4.7V-3.29a6,6,0,0,1,1.106-.07h.406a11.707,11.707,0,0,1-.91,1.386c.994.364,1.372.518,2.072.826A7.656,7.656,0,0,1,.574-.112,6.115,6.115,0,0,1,1.3,1.176,7.343,7.343,0,0,0,4.648-.49a7.46,7.46,0,0,1,1.3.854ZM5.012-3.36a3.611,3.611,0,0,1-.63,1.246c-.42-.182-.6-.252-1.19-.462.252-.378.294-.448.49-.784Zm-.056-5.8v-1.68a5.5,5.5,0,0,1,.056-.924H3.486a4.474,4.474,0,0,1,.07.952v1.652H1.89a6.662,6.662,0,0,1-1.176-.07v1.344a6.585,6.585,0,0,1,1.162-.07h.756A5.6,5.6,0,0,1,.392-6.2,4.762,4.762,0,0,1,1.3-5.04a7.952,7.952,0,0,0,2.282-2.2c-.028.252-.042.476-.042.6V-6.1a2.578,2.578,0,0,1-.042.462H5a2.1,2.1,0,0,1-.056-.518v-.5c0-.112-.014-.28-.042-.574a5.073,5.073,0,0,0,1.246,1.33,4.5,4.5,0,0,1,.812-1.148,3.789,3.789,0,0,1-1.232-.9h.938a6.74,6.74,0,0,1,.9.042V-9.2a6.456,6.456,0,0,1-.9.042ZM1.064-11.172A7.261,7.261,0,0,1,2-9.31l1.232-.462a6.983,6.983,0,0,0-.98-1.848Zm5.152-.476a6.921,6.921,0,0,1-.994,1.876l1.19.532a12.055,12.055,0,0,0,1.064-1.89Zm15.2,4.662A1.661,1.661,0,0,0,19.754-5.32,1.661,1.661,0,0,0,21.42-3.654,1.661,1.661,0,0,0,23.086-5.32,1.661,1.661,0,0,0,21.42-6.986ZM36.344-2.212V-.6A10.433,10.433,0,0,1,36.288.812h1.358A10.3,10.3,0,0,1,37.59-.6v-1.61h.84V-.63A12.915,12.915,0,0,1,38.374.8H39.69c-.028-.392-.042-.84-.042-1.428V-2.212h.91v1.6c0,.224-.042.266-.322.266-.2,0-.392-.014-.574-.028a2.532,2.532,0,0,1,.35,1.4c1.54,0,1.9-.238,1.9-1.26V-4.956a12.128,12.128,0,0,1,.056-1.372,10.342,10.342,0,0,1-1.386.056H35.35a9.922,9.922,0,0,1-1.316-.056c.042.5.056.784.056,1.4V-.14a7.732,7.732,0,0,1-.07,1.274h1.5a7.243,7.243,0,0,1-.07-1.26V-2.212Zm0-1.246h-.9V-5.026h.9Zm1.246,0V-5.026h.84v1.568Zm2.058,0V-5.026h.91v1.568ZM35.392-7.042c.336-.028.574-.042,1.148-.042h2.884c.574,0,.826.014,1.148.042v-.9a14.432,14.432,0,0,0,1.484.812,5.667,5.667,0,0,1,.686-1.554,7.742,7.742,0,0,1-2.492-1.358,5.082,5.082,0,0,1-1.54-1.694H36.918a5.03,5.03,0,0,1-1.232,1.638,8.481,8.481,0,0,1-2.044,1.47v-.868a6.949,6.949,0,0,1-1.092.056H30.422a5.835,5.835,0,0,1-1.092-.07V-8.12a8.051,8.051,0,0,1,1.092-.056h2.184a6.377,6.377,0,0,1,.826.028,3.9,3.9,0,0,1,.714,1.064,10.56,10.56,0,0,0,1.246-.784ZM36.54-8.358h-.518a8.246,8.246,0,0,0,1.848-2.086,8.939,8.939,0,0,0,2.086,2.086H36.54Zm-6.776-1.75a8.329,8.329,0,0,1,1.134-.056h1.47a8.461,8.461,0,0,1,1.134.056v-1.316a8.2,8.2,0,0,1-1.134.056H30.9a8.2,8.2,0,0,1-1.134-.056Zm.056,3.962a5.553,5.553,0,0,1,.9-.042h1.792a5.189,5.189,0,0,1,.868.042V-7.434a6.542,6.542,0,0,1-.868.042H30.716a7.036,7.036,0,0,1-.9-.042Zm0,2a7.09,7.09,0,0,1,.882-.042H32.48a5.289,5.289,0,0,1,.9.042V-5.432a6.4,6.4,0,0,1-.868.042H30.716a7.036,7.036,0,0,1-.9-.042ZM31.052.476h1.134V.9H33.46A9.828,9.828,0,0,1,33.418-.1v-2.3a10.436,10.436,0,0,1,.028-1.078,4.15,4.15,0,0,1-.868.056h-1.9a7.652,7.652,0,0,1-.994-.042A7.4,7.4,0,0,1,29.75-2.3V-.224a12.477,12.477,0,0,1-.07,1.358h1.372Zm-.042-2.73H32.2v1.54H31.01Zm20.65,1.6H49.154a8.829,8.829,0,0,1-1.414-.07V.77A12.167,12.167,0,0,1,49.322.7h5.894A11.779,11.779,0,0,1,56.8.77v-1.5a9.746,9.746,0,0,1-1.484.07H53.06V-2.1h1.806a9.994,9.994,0,0,1,1.47.07V-3.472a9.747,9.747,0,0,1-1.484.07H53.06V-4.55h1.61a14.332,14.332,0,0,1,1.526.042c-.042-.406-.056-.9-.056-1.876V-9.366c0-.854.014-1.512.056-1.918a12.151,12.151,0,0,1-1.806.07H50.526a16.68,16.68,0,0,1-1.89-.07,15.24,15.24,0,0,1,.07,1.876v3.164c-.028,1.414-.028,1.414-.056,1.736.42-.028.742-.042,1.68-.042h1.33V-3.4H50.092a8.382,8.382,0,0,1-1.442-.07v1.428A11.482,11.482,0,0,1,50.106-2.1H51.66Zm0-9.2v1.4H50.106v-1.4Zm1.4,0h1.624v1.4H53.06ZM51.66-7.28v1.414H50.106V-7.28Zm1.4,0h1.624v1.414H53.06ZM45.43-9.716v2.73H45a5.106,5.106,0,0,1-.98-.07v1.442a4.891,4.891,0,0,1,.952-.07h.462v3.332a11.885,11.885,0,0,1-1.722.532l.378,1.582.28-.112c2.17-.882,2.716-1.12,3.934-1.722l-.042-1.484c-.616.308-.784.378-1.372.63V-5.684h.322a5.842,5.842,0,0,1,.882.056V-7.056a4.334,4.334,0,0,1-.882.07h-.322v-2.73h.42a8.118,8.118,0,0,1,1.036.056v-1.5a6.114,6.114,0,0,1-1.246.084H45.122a7.466,7.466,0,0,1-1.274-.084v1.512a5.9,5.9,0,0,1,1.05-.07Z" transform="translate(-18548 -18620)" fill="#1a1a1a"/>
      <path id="パス_241129" data-name="パス 241129" d="M6.118-10.416H2.478a12.393,12.393,0,0,1-1.54-.07,7.4,7.4,0,0,1,.056,1.05V-8.33A7.364,7.364,0,0,1,.924-7.2H2.478V-9.058h2.24A2.439,2.439,0,0,1,3.626-6.916a6.41,6.41,0,0,1-2.8,1.064,4.772,4.772,0,0,1,.9,1.316,14.991,14.991,0,0,0,1.54-.532A5.488,5.488,0,0,0,5.222-6.4a4.105,4.105,0,0,0,.966-2.66H7.406v2.7c0,.924.378,1.106,2.254,1.106,1.694,0,2.254-.07,2.632-.336.308-.224.434-.574.518-1.414a5.146,5.146,0,0,1-1.428-.434c0,.5-.056.686-.238.756a5.076,5.076,0,0,1-1.162.1h-.07c-.238-.014-.406-.014-.5-.014-.448-.014-.546-.07-.546-.336V-9.058H11.55v1.442h1.54a6.1,6.1,0,0,1-.07-1.05v-.77a7.151,7.151,0,0,1,.056-1.05,12.531,12.531,0,0,1-1.54.07H7.672v-.476a4.2,4.2,0,0,1,.084-.91H6.034a3.727,3.727,0,0,1,.084.91Zm.014,7.588V-.77H2.478c-.6,0-1.428-.042-1.736-.084V.7A14.791,14.791,0,0,1,2.478.616H11.55A14.7,14.7,0,0,1,13.272.7V-.854A13.132,13.132,0,0,1,11.55-.77H7.686V-2.828h2.8a12.72,12.72,0,0,1,1.638.084V-4.312a13.271,13.271,0,0,1-1.652.084H3.36a10.265,10.265,0,0,1-1.47-.084v1.568A11.669,11.669,0,0,1,3.5-2.828ZM24.206-4.564c0-.546.014-.9.042-1.26a11.259,11.259,0,0,1-1.3.056H19.824a11.415,11.415,0,0,1-1.3-.056c.028.378.042.77.042,1.26v3.416a9.651,9.651,0,0,1-.1,1.4H19.95V-.532h2.968c.112,0,.378,0,.784.014A5.317,5.317,0,0,1,24.066.924c.714.042.77.042.966.042A4.264,4.264,0,0,0,26.614.8c.5-.21.672-.574.672-1.414v-9.17c0-.7.014-1.05.056-1.554a12.558,12.558,0,0,1-1.442.056H23.212a11.979,11.979,0,0,1-1.428-.056c.028.434.042.826.042,1.3V-7.9c0,.6-.014.868-.042,1.274.35-.028.8-.042,1.288-.042H25.83V-.812c0,.28-.126.378-.518.378-.252,0-.756-.042-1.064-.07-.028-.364-.042-.686-.042-1.218Zm-.994-5.586H25.83v.7H23.212Zm0,1.694H25.83v.714H23.212ZM19.95-4.592h2.856v.84H19.95Zm0,1.974h2.856v.91H19.95ZM17.024-6.664h2.534c.49,0,.924.014,1.288.042-.028-.308-.042-.63-.042-1.274v-2.142c0-.546.014-.854.042-1.3a11.829,11.829,0,0,1-1.428.056H16.94A12.715,12.715,0,0,1,15.5-11.34a15.521,15.521,0,0,1,.056,1.568V-.63a12.516,12.516,0,0,1-.084,1.736h1.638a12.144,12.144,0,0,1-.084-1.722Zm0-3.486h2.408v.7H17.024Zm0,1.694h2.408v.714H17.024Z" transform="translate(-18448 -18620)" fill="#1a1a1a"/>
      <path id="パス_241128" data-name="パス 241128" d="M3.556-8.6c-.014,1.022-.042,1.764-.07,2.2H2.3A8.659,8.659,0,0,1,.728-6.482v1.568A8.6,8.6,0,0,1,2.254-5H3.332a7.514,7.514,0,0,1-.574,1.974A5.994,5.994,0,0,1,.406-.49,3.318,3.318,0,0,1,1.568.77a7.752,7.752,0,0,0,2.7-3.542A9.876,9.876,0,0,0,6.44-.126a5.643,5.643,0,0,1,.854-1.526,8.775,8.775,0,0,1-1.82-1.764,6.291,6.291,0,0,1-.728-1.106c.042-.21.056-.28.084-.476h.938a9.014,9.014,0,0,1,1.358.07v-1.54A8.524,8.524,0,0,1,5.81-6.4H4.97c.056-.714.056-.714.084-2.2h.518a13.24,13.24,0,0,1,1.386.07v-1.526a9.084,9.084,0,0,1-1.386.07H3.458c.126-.35.21-.588.294-.882.126-.42.168-.546.238-.728L2.408-11.9a3.341,3.341,0,0,1-.168.868A7.189,7.189,0,0,1,.448-7.756a4.968,4.968,0,0,1,1.2,1.064A8.473,8.473,0,0,0,2.87-8.6ZM8.946-.252h2.408V.714h1.582a16.752,16.752,0,0,1-.084-1.764V-9.156a11.194,11.194,0,0,1,.07-1.484,8.775,8.775,0,0,1-1.3.07H8.68a8.242,8.242,0,0,1-1.288-.07,11.969,11.969,0,0,1,.084,1.484V-.91c0,.56-.042,1.162-.084,1.61H8.946ZM8.974-9.17h2.38v7.518H8.974Zm7.812-.658a13.819,13.819,0,0,1-1.456-.056,10.635,10.635,0,0,1,.056,1.26V-7.6a9.263,9.263,0,0,1-.056,1.008H16.8V-8.61h9.254v2.016H27.5a7.815,7.815,0,0,1-.056-.98v-.994A12.509,12.509,0,0,1,27.5-9.884a10.278,10.278,0,0,1-1.428.056H25.13a15.868,15.868,0,0,0,.938-1.512l-1.484-.392a7.782,7.782,0,0,1-1.036,1.9H22.414a13.07,13.07,0,0,0-.952-1.96l-1.484.28a8.959,8.959,0,0,1,.882,1.68H19.376A14.166,14.166,0,0,0,18.158-11.7L16.7-11.4a8.4,8.4,0,0,1,1.064,1.568ZM18.9-1.988A2.061,2.061,0,0,1,17.626-.756a8.863,8.863,0,0,1-2.66.518,10.008,10.008,0,0,1,.728,1.456A8.592,8.592,0,0,0,18.83.28a3.637,3.637,0,0,0,1.694-2.268H21.91V0c0,.9.378,1.064,2.506,1.064A5.736,5.736,0,0,0,26.978.756c.532-.308.714-.868.784-2.352a5.336,5.336,0,0,1-1.512-.476A4.289,4.289,0,0,1,26.082-.5c-.112.224-.392.266-1.624.266-.966,0-1.106-.056-1.106-.42v-1.33h.98c.532,0,.84.014,1.218.042a7.757,7.757,0,0,1-.042-1.19V-6.552c0-.644.014-1.022.042-1.442a12.087,12.087,0,0,1-1.386.056H18.7c-.658,0-.98-.014-1.4-.042a12.32,12.32,0,0,1,.056,1.414v3.248A10.206,10.206,0,0,1,17.3-1.932a12.666,12.666,0,0,1,1.358-.056ZM18.816-6.86h5.25v.588h-5.25Zm0,1.582h5.25v.588h-5.25Zm0,1.582h5.25v.588h-5.25ZM36.932-8.974a3.06,3.06,0,0,1,1.414.42,3.468,3.468,0,0,1,1.722,3.108,3.92,3.92,0,0,1-1.946,3.5,7.44,7.44,0,0,1-2.786.77A4.466,4.466,0,0,1,36.19.462a9.153,9.153,0,0,0,2.2-.588,5.393,5.393,0,0,0,3.4-5.222c0-3.15-2.184-5.194-5.544-5.194a6.285,6.285,0,0,0-4.816,1.96,6.014,6.014,0,0,0-1.54,4.074c0,2.254,1.148,3.878,2.744,3.878,1.148,0,2.044-.826,2.842-2.632A20.254,20.254,0,0,0,36.932-8.974Zm-1.708.014a18.451,18.451,0,0,1-1.162,4.732c-.5,1.2-.98,1.792-1.442,1.792-.616,0-1.106-.91-1.106-2.058a4.687,4.687,0,0,1,1.9-3.78A3.564,3.564,0,0,1,35.224-8.96ZM49.91-.91H47.642V-5.446a13.062,13.062,0,0,1,.1-1.806H45.962a13.556,13.556,0,0,1,.1,1.82V-.91h-.294a10.211,10.211,0,0,1-1.82-.1V.616a15.194,15.194,0,0,1,1.848-.1H54.74a13.921,13.921,0,0,1,1.834.1V-1.008a14.735,14.735,0,0,1-1.848.1H51.52V-4.872h2.394a12.44,12.44,0,0,1,1.568.084V-6.342a11.983,11.983,0,0,1-1.568.084H51.52V-9.674h2.814c.616,0,1.218.028,1.778.084v-1.582a17.621,17.621,0,0,1-1.778.084H46.228a16.377,16.377,0,0,1-1.764-.084V-9.59c.588-.056,1.12-.084,1.778-.084H49.91ZM62.72-4.97a5.8,5.8,0,0,1,.518.91,4.923,4.923,0,0,0,.63-.77c0,.1-.014.42-.028.966v3.5A11.546,11.546,0,0,1,63.756,1.2H65.24V.574h4.368a10.659,10.659,0,0,1,1.344.084V-.756a7.989,7.989,0,0,1-1.316.07H68.264V-1.708h1.05a9.49,9.49,0,0,1,1.162.056v-1.26a7.986,7.986,0,0,1-1.176.056H68.264V-3.878h1.05a9.789,9.789,0,0,1,1.162.056v-1.26a7.865,7.865,0,0,1-1.176.056H68.264V-6.034h1.3a9.676,9.676,0,0,1,1.12.056V-7.322a8.012,8.012,0,0,1-1.162.056H68.516A8.09,8.09,0,0,0,69.048-8.5l-1.372-.294A7.216,7.216,0,0,1,67.1-7.266H65.758a12.783,12.783,0,0,0,.98-1.96H69.51v1.358h1.47a8.467,8.467,0,0,1-.042-.91V-9.59a9.255,9.255,0,0,1,.042-1.036,7.8,7.8,0,0,1-1.232.07H67.2c.21-.686.336-1.078.364-1.176l-1.582-.2c-.084.476-.14.784-.294,1.372H64.036a6.169,6.169,0,0,1-1.022-.042,4.592,4.592,0,0,1,.042.7v1.19A6.355,6.355,0,0,1,63-7.8h1.386V-9.226h.84A9.58,9.58,0,0,1,62.72-5.544v-.308c0-.42.014-.742.042-1.036a7.56,7.56,0,0,1-.854.042H60.536a15.839,15.839,0,0,0,.84-3.08h.546a5.46,5.46,0,0,1,.826.056v-1.5a9.177,9.177,0,0,1-1.344.084H59.766a9.312,9.312,0,0,1-1.344-.084v1.512a7.558,7.558,0,0,1,1.19-.07h.308a10.04,10.04,0,0,1-.448,2,8.365,8.365,0,0,1-1.554,2.94,5.908,5.908,0,0,1,.532,1.736,4.262,4.262,0,0,0,.756-1.274c-.028.378-.042.8-.042,1.078V-.56A10.669,10.669,0,0,1,59.08.882h1.4V-.434h.994V.182h1.288A9.441,9.441,0,0,1,62.72-.9Zm2.506-.056V-6.034H66.92v1.008Zm0,1.148H66.92v1.022H65.226Zm0,2.17H66.92V-.686H65.226ZM60.48-5.5h.994v3.71H60.48ZM73.948-7.2a5.261,5.261,0,0,1,.616-.042,48.788,48.788,0,0,0,4.97-.336,15.482,15.482,0,0,0,1.512,2.548,6.5,6.5,0,0,0-2.422-.42,5.352,5.352,0,0,0-3.57,1.008,2.723,2.723,0,0,0-1.008,2.086,2.611,2.611,0,0,0,.826,1.89A5.777,5.777,0,0,0,78.764.6,14.453,14.453,0,0,0,83.2-.154l-.224-1.792a9.727,9.727,0,0,1-4.214.938c-1.9,0-2.94-.5-2.94-1.414,0-.994,1.12-1.568,3.024-1.568a7.016,7.016,0,0,1,2.212.322,2.474,2.474,0,0,1,.966.6l1.624-.742c-.49-.658-1.106-1.568-1.484-2.212-.14-.252-.462-.84-.966-1.778q1.743-.336,2.058-.42c.476-.1.63-.14.994-.2l-.2-1.666a21.3,21.3,0,0,1-3.43.826,11.73,11.73,0,0,1-.77-2.24l-1.806.238c.07.112.672,1.6.91,2.212-.868.112-2.73.238-3.78.238a9.6,9.6,0,0,1-1.358-.07Z" transform="translate(-18563 -18492)" fill="#1a1a1a"/>
      <g id="グループ_10780" data-name="グループ 10780" transform="translate(-18607.342 -18604.066)">
        <line id="線_52" data-name="線 52" y2="27.139" transform="translate(89.806 6.007)" fill="none" stroke="#006bc7" stroke-miterlimit="10" stroke-width="1"/>
        <line id="線_74" data-name="線 74" y2="18.821" transform="translate(2.603 6.922)" fill="none" stroke="#006bc7" stroke-miterlimit="10" stroke-width="1"/>
        <line id="線_75" data-name="線 75" y2="21.131" transform="translate(173.688 6.007)" fill="none" stroke="#006bc7" stroke-miterlimit="10" stroke-width="1"/>
        <path id="パス_46961" data-name="パス 46961" d="M1.658,4.932,0,9.137l.046.088L2.629,7.651,5.208,9.212l.06-.089L3.59,4.927,2.613.538Z" transform="translate(87.172 -0.538)" fill="#006bc7"/>
        <path id="パス_47012" data-name="パス 47012" d="M1.658,4.932,0,9.137l.046.088L2.629,7.651,5.208,9.212l.06-.089L3.59,4.927,2.613.538Z" transform="translate(0 -0.538)" fill="#006bc7"/>
        <path id="パス_47013" data-name="パス 47013" d="M1.658,4.932,0,9.137l.046.088L2.629,7.651,5.208,9.212l.06-.089L3.59,4.927,2.613.538Z" transform="translate(171.054 -0.538)" fill="#006bc7"/>
        <line id="線_73" data-name="線 73" x2="172.698" transform="translate(1.813 26.315)" fill="none" stroke="#006bc7" stroke-miterlimit="10" stroke-width="1"/>
      </g>
    </g>
  </g>
</svg>
