<svg xmlns="http://www.w3.org/2000/svg" xmlns:xlink="http://www.w3.org/1999/xlink" width="328" height="360" viewBox="0 0 328 360">
  <defs>
    <clipPath id="clip-path">
      <rect id="長方形_23476" data-name="長方形 23476" width="300.324" height="300.28" fill="none"/>
    </clipPath>
    <clipPath id="clip-top_feature_item_01_img_03">
      <rect width="328" height="360"/>
    </clipPath>
  </defs>
  <g id="top_feature_item_01_img_03" clip-path="url(#clip-top_feature_item_01_img_03)">
    <g id="グループ_11085" data-name="グループ 11085" transform="translate(-326.5 -309.536)">
      <g id="グループ_10725" data-name="グループ 10725" transform="translate(351.249 328.536)">
        <path id="パス_46960" data-name="パス 46960" d="M296.29,296.568,2.831,296.549V2.371" transform="translate(0.498 0.417)" fill="none" stroke="#ccc" stroke-miterlimit="10" stroke-width="1"/>
        <g id="グループ_10724" data-name="グループ 10724" transform="translate(0.001)">
          <g id="グループ_10723" data-name="グループ 10723" clip-path="url(#clip-path)">
            <line id="線_44" data-name="線 44" y2="296.966" transform="translate(62.722 0)" fill="none" stroke="#ccc" stroke-miterlimit="10" stroke-width="1"/>
            <line id="線_45" data-name="線 45" x2="296.966" transform="translate(2.916 237.573)" fill="none" stroke="#ccc" stroke-miterlimit="10" stroke-width="1"/>
            <line id="線_46" data-name="線 46" x2="296.966" transform="translate(2.916 179.004)" fill="none" stroke="#ccc" stroke-miterlimit="10" stroke-width="1"/>
            <line id="線_47" data-name="線 47" x2="296.966" transform="translate(2.916 119.999)" fill="none" stroke="#ccc" stroke-miterlimit="10" stroke-width="1"/>
            <line id="線_48" data-name="線 48" x2="296.966" transform="translate(2.916 60.169)" fill="none" stroke="#ccc" stroke-miterlimit="10" stroke-width="1"/>
            <line id="線_49" data-name="線 49" y2="296.966" transform="translate(122.115 0.413)" fill="none" stroke="#ccc" stroke-miterlimit="10" stroke-width="1"/>
            <line id="線_50" data-name="線 50" y2="296.966" transform="translate(181.508 0.413)" fill="none" stroke="#ccc" stroke-miterlimit="10" stroke-width="1"/>
            <line id="線_51" data-name="線 51" y2="296.966" transform="translate(240.901 0.413)" fill="none" stroke="#ccc" stroke-miterlimit="10" stroke-width="1"/>
          </g>
        </g>
        <line id="線_52" data-name="線 52" y2="287.811" transform="translate(3.329 9.487)" fill="none" stroke="#006bc7" stroke-miterlimit="10" stroke-width="1"/>
        <path id="パス_46961" data-name="パス 46961" d="M2.122,6.157,0,11.535l.059.113,3.3-2.013,3.3,2,.076-.114L4.593,6.151,3.343.538Z" transform="translate(0 0.094)" fill="#006bc7"/>
        <line id="線_53" data-name="線 53" x2="289.274" transform="translate(2.917 296.977)" fill="none" stroke="#006bc7" stroke-miterlimit="10" stroke-width="1"/>
        <path id="パス_46962" data-name="パス 46962" d="M246,249.738l2.013,3.306-2,3.3.113.076,5.368-2.148,5.611-1.249-5.618-1.222-5.377-2.122Z" transform="translate(43.213 43.859)" fill="#006bc7"/>
      </g>
      <g id="グループ_10726" data-name="グループ 10726" transform="translate(361.089 338.356)">
        <path id="パス_46963" data-name="パス 46963" d="M119.147,15.378,233.769,130,249.147,0Z" transform="translate(31.495 0)" fill="#17c4c0"/>
        <path id="パス_46964" data-name="パス 46964" d="M0,273.353,245.779,83.6,189.756,27.574Z" transform="translate(0 7.289)" fill="#17c4c0"/>
      </g>
      <path id="パス_241127" data-name="パス 241127" d="M7.332,5.407v.676h-1.7a9.082,9.082,0,0,1-1.287-.065,11.2,11.2,0,0,1,.052,1.209V8.436a10.606,10.606,0,0,1-.052,1.17,10.83,10.83,0,0,1,1.274-.052H6.734A9.648,9.648,0,0,1,3.7,11.478a4.824,4.824,0,0,1,.819,1.17,10.34,10.34,0,0,0,2.834-2.262c-.026.494-.026.78-.026.871v.949a5.777,5.777,0,0,1-.065.9H8.723a4.541,4.541,0,0,1-.065-.884V11.27a5.479,5.479,0,0,0-.052-.923,7.086,7.086,0,0,0,1.417,1.287,9.218,9.218,0,0,0,1.911,1.118,5.968,5.968,0,0,1,.7-1.3A8.157,8.157,0,0,1,10.413,10.4a7.569,7.569,0,0,1-1.092-.845h1.261a10.279,10.279,0,0,1,1.274.052,7.98,7.98,0,0,1-.052-1.2V7.188a7.879,7.879,0,0,1,.052-1.17,8.718,8.718,0,0,1-1.248.065H8.658V5.407h2.509a7.574,7.574,0,0,1,1.183.065V4.107a7.992,7.992,0,0,1-1.4.078H8.658V3.821a3.4,3.4,0,0,1,.065-.754H7.267a5.1,5.1,0,0,1,.065.819v.3H5.447a8.325,8.325,0,0,1-1.43-.078V5.472a7.733,7.733,0,0,1,1.209-.065Zm0,1.833V8.4H5.707V7.24Zm1.326,0h1.794V8.4H8.658ZM.637,4.172A14.738,14.738,0,0,1,2.821,6.629L3.913,5.576A17.423,17.423,0,0,0,1.677,3.21ZM.611,9.424a4.65,4.65,0,0,1,.871-.065h.689v2.808A7.975,7.975,0,0,1,.3,13.441l.637,1.482c.13-.1.3-.247.559-.429A9.987,9.987,0,0,0,2.873,13.35a2.981,2.981,0,0,0,1.612,1.183,13.621,13.621,0,0,0,3.77.273c1.339,0,2.912-.026,4.095-.078a6.19,6.19,0,0,1,.39-1.534,50.633,50.633,0,0,1-5.954.273c-1.937,0-2.522-.234-3.25-1.274V9.437A13.1,13.1,0,0,1,3.588,8.02a5.725,5.725,0,0,1-.988.065H1.651A5.814,5.814,0,0,1,.611,8.02Zm.78,10.621a6.212,6.212,0,0,1,.052.832c.052,3.6.286,5.486.819,6.786.52,1.248,1.222,1.885,2.093,1.885,1.105,0,1.859-1.053,2.535-3.588a6.417,6.417,0,0,1-1.3-1.183A9.584,9.584,0,0,1,4.9,27.13c-.156.364-.338.559-.533.559-.416,0-.832-.832-1.053-2.184a24.328,24.328,0,0,1-.247-3.484,15.113,15.113,0,0,1,.1-1.976ZM7.956,21.28a11.347,11.347,0,0,1,1.846,3.2,13.179,13.179,0,0,1,.832,3.757l1.612-.611A12.961,12.961,0,0,0,9.321,20.63Z" transform="translate(329.5 348.48)" fill="#006bc7" stroke="rgba(255,255,255,0)" stroke-width="1"/>
      <path id="パス_241126" data-name="パス 241126" d="M18.048,6.848V8.512H13.856a22.354,22.354,0,0,1-3.168-.16,27.573,27.573,0,0,1,.128,2.976V14.3a26.106,26.106,0,0,1-.128,2.88,26.659,26.659,0,0,1,3.136-.128h2.752A23.749,23.749,0,0,1,9.12,21.792a11.874,11.874,0,0,1,2.016,2.88A25.454,25.454,0,0,0,18.112,19.1c-.064,1.216-.064,1.92-.064,2.144v2.336a14.219,14.219,0,0,1-.16,2.208h3.584a11.179,11.179,0,0,1-.16-2.176V21.28a13.488,13.488,0,0,0-.128-2.272,17.443,17.443,0,0,0,3.488,3.168,22.691,22.691,0,0,0,4.7,2.752,14.689,14.689,0,0,1,1.728-3.2,20.078,20.078,0,0,1-5.472-2.592,18.632,18.632,0,0,1-2.688-2.08h3.1a25.3,25.3,0,0,1,3.136.128,19.644,19.644,0,0,1-.128-2.944V11.232a19.394,19.394,0,0,1,.128-2.88,21.46,21.46,0,0,1-3.072.16h-4.8V6.848h6.176a18.643,18.643,0,0,1,2.912.16V3.648a19.673,19.673,0,0,1-3.456.192H21.312v-.9a8.359,8.359,0,0,1,.16-1.856H17.888a12.562,12.562,0,0,1,.16,2.016V3.84h-4.64a20.493,20.493,0,0,1-3.52-.192v3.36a19.035,19.035,0,0,1,2.976-.16Zm0,4.512v2.848h-4V11.36Zm3.264,0h4.416v2.848H21.312ZM1.568,3.808A36.278,36.278,0,0,1,6.944,9.856L9.632,7.264a42.886,42.886,0,0,0-5.5-5.824ZM1.5,16.736a11.446,11.446,0,0,1,2.144-.16h1.7v6.912A19.631,19.631,0,0,1,.736,26.624L2.3,30.272c.32-.256.736-.608,1.376-1.056A24.583,24.583,0,0,0,7.072,26.4a7.338,7.338,0,0,0,3.968,2.912c1.536.512,3.936.672,9.28.672,3.3,0,7.168-.064,10.08-.192a15.238,15.238,0,0,1,.96-3.776,124.635,124.635,0,0,1-14.656.672c-4.768,0-6.208-.576-8-3.136V16.768a32.242,32.242,0,0,1,.128-3.488,14.092,14.092,0,0,1-2.432.16H4.064a14.311,14.311,0,0,1-2.56-.16Zm2.72,30.816a12.023,12.023,0,0,1,1.408-.1,111.517,111.517,0,0,0,11.36-.768,35.386,35.386,0,0,0,3.456,5.824,14.866,14.866,0,0,0-5.536-.96c-3.648,0-6.3.736-8.16,2.3a6.225,6.225,0,0,0-2.3,4.768,5.969,5.969,0,0,0,1.888,4.32c1.632,1.568,4.8,2.432,8.9,2.432a33.034,33.034,0,0,0,10.144-1.728l-.512-4.1A22.234,22.234,0,0,1,15.232,61.7c-4.352,0-6.72-1.152-6.72-3.232,0-2.272,2.56-3.584,6.912-3.584a16.038,16.038,0,0,1,5.056.736,5.654,5.654,0,0,1,2.208,1.376L26.4,55.3c-1.12-1.5-2.528-3.584-3.392-5.056-.32-.576-1.056-1.92-2.208-4.064q3.984-.768,4.7-.96c1.088-.224,1.44-.32,2.272-.448l-.448-3.808a48.691,48.691,0,0,1-7.84,1.888,26.811,26.811,0,0,1-1.76-5.12l-4.128.544c.16.256,1.536,3.648,2.08,5.056-1.984.256-6.24.544-8.64.544a21.938,21.938,0,0,1-3.1-.16Z" transform="translate(361.089 348.48)" fill="#006bc7" stroke="rgba(255,255,255,0)" stroke-width="1"/>
      <path id="パス_241125" data-name="パス 241125" d="M13.32-13.135a15.328,15.328,0,0,1,1.369,2.4,13.012,13.012,0,0,0,1.665-2.035c0,.259-.037,1.11-.074,2.553v9.25a30.513,30.513,0,0,1-.222,4.144H19.98V1.517H31.524a28.17,28.17,0,0,1,3.552.222V-2a21.113,21.113,0,0,1-3.478.185H27.972v-2.7h2.775a25.081,25.081,0,0,1,3.071.148V-7.7a21.106,21.106,0,0,1-3.108.148H27.972v-2.7h2.775a25.872,25.872,0,0,1,3.071.148v-3.33a20.786,20.786,0,0,1-3.108.148H27.972v-2.664h3.441a25.572,25.572,0,0,1,2.96.148v-3.552A21.174,21.174,0,0,1,31.3-19.2H28.638a21.38,21.38,0,0,0,1.406-3.256l-3.626-.777A19.071,19.071,0,0,1,24.9-19.2H21.349a33.784,33.784,0,0,0,2.59-5.18h7.326v3.589H35.15a22.377,22.377,0,0,1-.111-2.405v-2.146a24.459,24.459,0,0,1,.111-2.738,20.609,20.609,0,0,1-3.256.185H25.16c.555-1.813.888-2.849.962-3.108l-4.181-.518c-.222,1.258-.37,2.072-.777,3.626H16.8a16.3,16.3,0,0,1-2.7-.111,12.136,12.136,0,0,1,.111,1.85v3.145a16.794,16.794,0,0,1-.148,2.405h3.663v-3.774h2.22a25.319,25.319,0,0,1-6.623,9.731v-.814c0-1.11.037-1.961.111-2.738a19.98,19.98,0,0,1-2.257.111H7.548a41.86,41.86,0,0,0,2.22-8.14h1.443a14.43,14.43,0,0,1,2.183.148v-3.959a24.253,24.253,0,0,1-3.552.222H5.513a24.611,24.611,0,0,1-3.552-.222v4a19.973,19.973,0,0,1,3.145-.185H5.92a26.533,26.533,0,0,1-1.184,5.291,22.107,22.107,0,0,1-4.107,7.77A15.615,15.615,0,0,1,2.035-8.584a11.264,11.264,0,0,0,2-3.367c-.074,1-.111,2.109-.111,2.849V-1.48A28.2,28.2,0,0,1,3.7,2.331H7.4V-1.147h2.627V.481h3.4a24.951,24.951,0,0,1-.111-2.849Zm6.623-.148v-2.664H24.42v2.664Zm0,3.034H24.42v2.7H19.943Zm0,5.735H24.42v2.7H19.943ZM7.4-14.541h2.627v9.805H7.4Zm46.99-3.552c0,1,0,1-.037,2.035H47.841a23.361,23.361,0,0,1-3.33-.148v3.515a24.385,24.385,0,0,1,3.33-.148h6.253c-.111.888-.185,1.295-.333,2H44.067a23.91,23.91,0,0,1-3.737-.185v3.885a34.052,34.052,0,0,1,3.959-.222h8.177a10.916,10.916,0,0,1-4.7,4.329A22.536,22.536,0,0,1,39.738-.777,12.192,12.192,0,0,1,41.7,3.071a24.006,24.006,0,0,0,9.028-3.33,14.545,14.545,0,0,0,5.4-5.809A19.572,19.572,0,0,0,64.9.962a36.236,36.236,0,0,0,6.919,2.146,14.791,14.791,0,0,1,1.924-4c-2.035-.37-3.182-.592-4.107-.851a23.455,23.455,0,0,1-6.512-2.516,12.6,12.6,0,0,1-3.441-3.108h9.435a32.454,32.454,0,0,1,4,.222v-3.885a25.3,25.3,0,0,1-3.811.185H57.757c.148-.777.185-1.073.3-2h7.141a24.11,24.11,0,0,1,3.293.148v-3.515a22.755,22.755,0,0,1-3.293.148H58.275c.037-.851.037-.851.074-2.035h7.437a21.07,21.07,0,0,1,3.515.185v-1.961h3.4a20.357,20.357,0,0,1-.148-2.738v-2.812a21.245,21.245,0,0,1,.148-2.7c-1.258.111-2.22.148-4.107.148H58.46v-.851a11.235,11.235,0,0,1,.185-2.331H54.094a11.6,11.6,0,0,1,.222,2.331v.851H44.7a40.336,40.336,0,0,1-4.07-.148,22.838,22.838,0,0,1,.148,2.775v2.738a14.436,14.436,0,0,1-.185,2.738h3.4v1.961a20.3,20.3,0,0,1,3.478-.185Zm-6.919-3.256a25.861,25.861,0,0,1-2.849-.111v-3.034H68.709v3.034c-.925.074-1.517.111-2.923.111H58.423a12.147,12.147,0,0,1,.148-2.368H54.279a17.68,17.68,0,0,1,.148,2.368Zm47.582-2.183c.185-.962.444-2.479.555-3.182a9.353,9.353,0,0,1,.259-1.332l-3.959-.74a31.222,31.222,0,0,1-1.591,8.547,30.325,30.325,0,0,0-1.7-4.7l-2.479,1.184a21.148,21.148,0,0,1,1.7,5.513l2.146-1.036a15.336,15.336,0,0,1-1.961,3.7,23.394,23.394,0,0,1,3.33,2.072c-.259-.037-.333-.037-.592-.074v4A30.666,30.666,0,0,1,94.868-9.8H98.2v7.844H92.315a33.463,33.463,0,0,1-4.366-.222V2a30.1,30.1,0,0,1,4.366-.259h14.874A29.9,29.9,0,0,1,111.518,2V-2.183a33.222,33.222,0,0,1-4.329.222h-5.032V-9.8h3.663a27.655,27.655,0,0,1,4.033.222v-4a27.819,27.819,0,0,1-4,.185h-3.7v-6.475h4.366a33.97,33.97,0,0,1,4.033.222v-4.107a26.194,26.194,0,0,1-4.07.222h-4.329v-3.7a24.568,24.568,0,0,1,.259-3.922H97.939a24.88,24.88,0,0,1,.259,3.922v3.7ZM98.2-19.869v6.475H94.313c-1.184,0-2-.037-2.812-.111a27.565,27.565,0,0,0,2.664-6.364Zm-18.093,6.66a46.307,46.307,0,0,0,1.369-10.36l-3-.37a33.208,33.208,0,0,1-1.332,9.62Zm6.179,16.28a35.912,35.912,0,0,1-.222-4.366V-27.343a29.98,29.98,0,0,1,.222-3.922h-4.44a24.568,24.568,0,0,1,.259,3.922V-1.591a35.329,35.329,0,0,1-.259,4.662Z" transform="translate(517.605 614.376)" fill="#006bc7" stroke="rgba(255,255,255,0)" stroke-width="1"/>
      <path id="パス_241124" data-name="パス 241124" d="M22.176-14.924a19.334,19.334,0,0,1-2.688,6.552A37.95,37.95,0,0,1,18.2-16.744h5.04c1.428,0,2.492.056,3.416.14v-3.08a15.6,15.6,0,0,1-2.968.168h-.84L24.3-20.524a15.667,15.667,0,0,0-2.828-2.94L19.32-22.092a13.23,13.23,0,0,1,2.464,2.576h-3.7V-20.8a23.108,23.108,0,0,1,.14-2.66H14.9a8.675,8.675,0,0,1,.14,1.764c.056,1.232.056,1.96.084,2.184H7c-1.456,0-2.6-.056-3.612-.14a27.706,27.706,0,0,1,.168,3.976,52.624,52.624,0,0,1-.84,11.06A13.091,13.091,0,0,1,.784-.2,10.278,10.278,0,0,1,3.22,2.184a15.146,15.146,0,0,0,2.3-5.46A43.268,43.268,0,0,0,6.384-10.3h4.088a30.435,30.435,0,0,1-.42,5.068c-.14.7-.392.868-1.26.868a17.069,17.069,0,0,1-2.716-.224A10.48,10.48,0,0,1,6.8-1.624c.9.056,1.344.084,2.128.084,2.156,0,3.164-.42,3.612-1.54.476-1.176.644-2.66.924-7.7.056-1.092.112-1.876.168-2.38a12.233,12.233,0,0,1-1.988.112H6.5c.028-1.008.028-1.008.056-3.7h8.68c.308,4.928.924,8.288,2.1,11.172A21.017,21.017,0,0,1,9.8-.42a9.29,9.29,0,0,1,2.128,2.436,25.767,25.767,0,0,0,6.776-4.9c1.624,2.632,3.836,4.508,5.264,4.508,1.54,0,2.52-1.652,3.164-5.432a8.35,8.35,0,0,1-2.52-1.876,16.3,16.3,0,0,1-.532,3.276c-.14.364-.252.532-.364.532a4.07,4.07,0,0,1-1.26-1.008,12.063,12.063,0,0,1-1.68-2.408,30.443,30.443,0,0,0,3.78-7c.448-1.064.448-1.064.616-1.484Zm18.956,3.78v1.568H33.4a17.7,17.7,0,0,1-3.136-.168v3.108A24.265,24.265,0,0,1,33.4-6.8h5.628a14.76,14.76,0,0,1-3.808,3.276,22.812,22.812,0,0,1-5.488,2.436,12.339,12.339,0,0,1,1.68,2.884,27.511,27.511,0,0,0,5.376-2.884,23.353,23.353,0,0,0,4.424-4c-.056.84-.056.84-.084,1.932V-.728a15.26,15.26,0,0,1-.2,3.024h3.416a19.009,19.009,0,0,1-.2-3.052V-3.192c0-.308,0-.672-.028-1.092-.028-.56-.028-.56-.028-.924a22.474,22.474,0,0,0,10.276,6.86A14.644,14.644,0,0,1,56-1.316a22.089,22.089,0,0,1-6.048-2.436A14.877,14.877,0,0,1,46.116-6.8h6.132a25.677,25.677,0,0,1,3.164.168V-9.744a21.543,21.543,0,0,1-3.192.168H44.156v-1.568h5.32a27.7,27.7,0,0,1,3.388.14,20.86,20.86,0,0,1-.14-3.192V-19.46a20.631,20.631,0,0,1,.14-3.192,25.848,25.848,0,0,1-3.36.14H36.232a24.844,24.844,0,0,1-3.332-.14,19.493,19.493,0,0,1,.14,2.968V-14.2A21.8,21.8,0,0,1,32.9-11a28.267,28.267,0,0,1,3.388-.14Zm0-8.736v1.9H36.064v-1.9Zm3.024,0h5.572v1.9H44.156Zm-3.024,4.312v1.9H36.064v-1.9Zm3.024,0h5.572v1.9H44.156Z" transform="translate(535.284 461.196) rotate(-45)" fill="#fff" stroke="rgba(255,255,255,0)" stroke-width="1"/>
      <path id="パス_241123" data-name="パス 241123" d="M7.26-10.215a11.893,11.893,0,0,1-2.13,2.79A17.591,17.591,0,0,1,.405-3.93,5.377,5.377,0,0,1,1.455-2.4,27.157,27.157,0,0,0,4.3-4.38a13.642,13.642,0,0,0,2.19-2.19c-.015.66-.015.855-.015,1.395v4.5a18.89,18.89,0,0,1-.105,1.89H8.31A14.476,14.476,0,0,1,8.2-.675V-8.55A10.122,10.122,0,0,0,9.27-10.215H12.3c.645,0,1.35.03,1.95.09v-1.77a16.63,16.63,0,0,1-2,.09H2.715a19.883,19.883,0,0,1-1.995-.09v1.77c.6-.06,1.41-.09,2.055-.09Zm1.065,3.33a17.987,17.987,0,0,0,5.325,4.47A9.145,9.145,0,0,1,14.685-4.05,12.9,12.9,0,0,1,11.61-5.97,15.442,15.442,0,0,1,9.42-8.1Zm14.25,5.91h-2.43v-4.86a14,14,0,0,1,.1-1.935H18.345a14.524,14.524,0,0,1,.105,1.95V-.975h-.315a10.941,10.941,0,0,1-1.95-.1V.66a16.28,16.28,0,0,1,1.98-.1H27.75a14.916,14.916,0,0,1,1.965.1V-1.08a15.787,15.787,0,0,1-1.98.1H24.3V-5.22h2.565a13.328,13.328,0,0,1,1.68.09V-6.8a12.838,12.838,0,0,1-1.68.09H24.3v-3.66h3.015c.66,0,1.305.03,1.905.09V-11.97a18.88,18.88,0,0,1-1.905.09H18.63a17.548,17.548,0,0,1-1.89-.09v1.695c.63-.06,1.2-.09,1.905-.09h3.93ZM36.3-5.325a6.214,6.214,0,0,1,.555.975,5.275,5.275,0,0,0,.675-.825c0,.105-.015.45-.03,1.035V-.39a12.37,12.37,0,0,1-.09,1.68H39V.615h4.68A11.42,11.42,0,0,1,45.12.7V-.81a8.559,8.559,0,0,1-1.41.075H42.24v-1.1h1.125a10.168,10.168,0,0,1,1.245.06V-3.12a8.557,8.557,0,0,1-1.26.06H42.24v-1.1h1.125a10.489,10.489,0,0,1,1.245.06v-1.35a8.427,8.427,0,0,1-1.26.06H42.24v-1.08h1.4a10.367,10.367,0,0,1,1.2.06v-1.44a8.584,8.584,0,0,1-1.245.06H42.51a8.667,8.667,0,0,0,.57-1.32L41.61-9.42a7.731,7.731,0,0,1-.615,1.635h-1.44a13.7,13.7,0,0,0,1.05-2.1h2.97V-8.43H45.15A9.071,9.071,0,0,1,45.1-9.4v-.87a9.915,9.915,0,0,1,.045-1.11,8.355,8.355,0,0,1-1.32.075H41.1c.225-.735.36-1.155.39-1.26l-1.695-.21c-.09.51-.15.84-.315,1.47H37.71a6.61,6.61,0,0,1-1.1-.045,4.92,4.92,0,0,1,.045.75V-9.33a6.808,6.808,0,0,1-.06.975h1.485v-1.53h.9A10.265,10.265,0,0,1,36.3-5.94v-.33c0-.45.015-.795.045-1.11a8.1,8.1,0,0,1-.915.045H33.96a16.97,16.97,0,0,0,.9-3.3h.585a5.85,5.85,0,0,1,.885.06v-1.6a9.832,9.832,0,0,1-1.44.09H33.135a9.977,9.977,0,0,1-1.44-.09v1.62a8.1,8.1,0,0,1,1.275-.075h.33a10.757,10.757,0,0,1-.48,2.145,8.962,8.962,0,0,1-1.665,3.15,6.331,6.331,0,0,1,.57,1.86,4.566,4.566,0,0,0,.81-1.365c-.03.405-.045.855-.045,1.155V-.6A11.432,11.432,0,0,1,32.4.945h1.5V-.465h1.065V.2h1.38A10.114,10.114,0,0,1,36.3-.96Zm2.685-.06v-1.08H40.8v1.08Zm0,1.23H40.8v1.1H38.985Zm0,2.325H40.8v1.1H38.985ZM33.9-5.895h1.065V-1.92H33.9Z" transform="translate(363.006 648.929)" fill="#006bc7" stroke="rgba(255,255,255,0)" stroke-width="1"/>
      <path id="パス_241122" data-name="パス 241122" d="M7.125-.975H4.695v-4.86A14,14,0,0,1,4.8-7.77h-1.9A14.525,14.525,0,0,1,3-5.82V-.975H2.685a10.941,10.941,0,0,1-1.95-.1V.66a16.28,16.28,0,0,1,1.98-.1H12.3a14.916,14.916,0,0,1,1.965.1V-1.08a15.787,15.787,0,0,1-1.98.1H8.85V-5.22h2.565a13.328,13.328,0,0,1,1.68.09V-6.8a12.838,12.838,0,0,1-1.68.09H8.85v-3.66h3.015c.66,0,1.305.03,1.9.09V-11.97a18.88,18.88,0,0,1-1.9.09H3.18a17.548,17.548,0,0,1-1.89-.09v1.695c.63-.06,1.2-.09,1.9-.09h3.93ZM20.85-5.325a6.214,6.214,0,0,1,.555.975,5.275,5.275,0,0,0,.675-.825c0,.105-.015.45-.03,1.035V-.39a12.37,12.37,0,0,1-.09,1.68h1.59V.615h4.68A11.42,11.42,0,0,1,29.67.7V-.81a8.559,8.559,0,0,1-1.41.075H26.79v-1.1h1.125a10.168,10.168,0,0,1,1.245.06V-3.12a8.557,8.557,0,0,1-1.26.06H26.79v-1.1h1.125a10.489,10.489,0,0,1,1.245.06v-1.35a8.427,8.427,0,0,1-1.26.06H26.79v-1.08h1.395a10.367,10.367,0,0,1,1.2.06v-1.44a8.584,8.584,0,0,1-1.245.06H27.06a8.668,8.668,0,0,0,.57-1.32L26.16-9.42a7.731,7.731,0,0,1-.615,1.635H24.1a13.7,13.7,0,0,0,1.05-2.1h2.97V-8.43H29.7a9.071,9.071,0,0,1-.045-.975v-.87a9.915,9.915,0,0,1,.045-1.11,8.355,8.355,0,0,1-1.32.075H25.65c.225-.735.36-1.155.39-1.26l-1.695-.21c-.09.51-.15.84-.315,1.47H22.26a6.61,6.61,0,0,1-1.095-.045,4.92,4.92,0,0,1,.045.75V-9.33a6.808,6.808,0,0,1-.06.975h1.485v-1.53h.9A10.265,10.265,0,0,1,20.85-5.94v-.33c0-.45.015-.795.045-1.11a8.1,8.1,0,0,1-.915.045H18.51a16.97,16.97,0,0,0,.9-3.3h.585a5.85,5.85,0,0,1,.885.06v-1.6a9.832,9.832,0,0,1-1.44.09H17.685a9.977,9.977,0,0,1-1.44-.09v1.62a8.1,8.1,0,0,1,1.275-.075h.33a10.757,10.757,0,0,1-.48,2.145A8.962,8.962,0,0,1,15.7-5.34a6.33,6.33,0,0,1,.57,1.86,4.566,4.566,0,0,0,.81-1.365c-.03.405-.045.855-.045,1.155V-.6A11.432,11.432,0,0,1,16.95.945h1.5V-.465h1.065V.2H20.9A10.115,10.115,0,0,1,20.85-.96Zm2.685-.06v-1.08H25.35v1.08Zm0,1.23H25.35v1.1H23.535Zm0,2.325H25.35v1.1H23.535ZM18.45-5.895h1.065V-1.92H18.45Z" transform="translate(602.253 648.929)" fill="#006bc7" stroke="rgba(255,255,255,0)" stroke-width="1"/>
      <path id="パス_241121" data-name="パス 241121" d="M3.471,9.45a13.217,13.217,0,0,1,.052-1.43,5.912,5.912,0,0,1-.988.065H1.573A5.993,5.993,0,0,1,.533,8.02V9.476a4.968,4.968,0,0,1,.884-.065h.689v2.743a7.857,7.857,0,0,1-1.846,1.3L.9,14.923a4.1,4.1,0,0,0,.377-.286q.137-.117.351-.273a14.382,14.382,0,0,0,1.17-1c.871,1.183,1.807,1.456,5.07,1.456,1.56,0,3.328-.026,4.446-.078a5.5,5.5,0,0,1,.39-1.482,43.322,43.322,0,0,1-5.226.26,12.07,12.07,0,0,1-2.6-.195,1.9,1.9,0,0,1-1.4-1.079v-.286a6.114,6.114,0,0,1,1.105.91,8.338,8.338,0,0,0,.9-2.561,21.945,21.945,0,0,0,.351-3.887h.858c.26.429.351.611.52.936H7.059a5.458,5.458,0,0,1-1.053-.065v1.17A7.613,7.613,0,0,1,7.059,8.41H8.19v.7H7.228A8.017,8.017,0,0,1,6.084,9.06v1.131a8.748,8.748,0,0,1,1.144-.052H8.19v.715H6.851a8.35,8.35,0,0,1-1.274-.065v1.235a8.668,8.668,0,0,1,1.274-.065H8.19V12.3a4.274,4.274,0,0,1-.065.91h1.43a4.214,4.214,0,0,1-.065-.9v-.351h1.651a8.476,8.476,0,0,1,1.261.065V10.789a8.266,8.266,0,0,1-1.261.065H9.49v-.715h1.222a8.748,8.748,0,0,1,1.144.052V9.06a8.135,8.135,0,0,1-1.144.052H9.49v-.7H11.1a7.882,7.882,0,0,1,1.092.052V7.292a5.837,5.837,0,0,1-1.092.065h-.468c.156-.273.208-.351.494-.936.6,0,.6,0,1.04.026-.013-.234-.026-.546-.026-.949V4.341a9.434,9.434,0,0,1,.039-.962,9.933,9.933,0,0,1-1.2.052H5.707A12.446,12.446,0,0,1,4.42,3.379,14.6,14.6,0,0,1,4.485,5.3a19.3,19.3,0,0,1-.364,4.953,6.408,6.408,0,0,1-.65,1.625ZM8.437,7.357c-.13-.312-.3-.637-.442-.936H9.724a6.579,6.579,0,0,1-.39.936Zm-2.6-2V4.588H10.8v.767ZM.663,4.159a15,15,0,0,1,2.158,2.47l1.092-1.04A14.683,14.683,0,0,0,1.69,3.21Zm.728,15.886a6.212,6.212,0,0,1,.052.832c.052,3.6.286,5.486.819,6.786.52,1.248,1.222,1.885,2.093,1.885,1.105,0,1.859-1.053,2.535-3.588a6.417,6.417,0,0,1-1.3-1.183A9.584,9.584,0,0,1,4.9,27.13c-.156.364-.338.559-.533.559-.416,0-.832-.832-1.053-2.184a24.328,24.328,0,0,1-.247-3.484,15.113,15.113,0,0,1,.1-1.976ZM7.956,21.28a11.347,11.347,0,0,1,1.846,3.2,13.179,13.179,0,0,1,.832,3.757l1.612-.611A12.961,12.961,0,0,0,9.321,20.63Z" transform="translate(329.5 579.497)" fill="#006bc7" stroke="rgba(255,255,255,0)" stroke-width="1"/>
    </g>
  </g>
</svg>
