<svg xmlns="http://www.w3.org/2000/svg" xmlns:xlink="http://www.w3.org/1999/xlink" width="328" height="360" viewBox="0 0 328 360">
  <defs>
    <clipPath id="clip-path">
      <rect id="長方形_23439" data-name="長方形 23439" width="196.02" height="196.021" fill="none"/>
    </clipPath>
    <clipPath id="clip-top_feature_item_01_img_01">
      <rect width="328" height="360"/>
    </clipPath>
  </defs>
  <g id="top_feature_item_01_img_01" clip-path="url(#clip-top_feature_item_01_img_01)">
    <g id="グループ_11087" data-name="グループ 11087" transform="translate(3 1.001)">
      <g id="グループ_10569" data-name="グループ 10569" transform="translate(17.915 53.781)" opacity="0.1">
        <path id="パス_46923" data-name="パス 46923" d="M159.768,47.509A143.126,143.126,0,1,1,16.641,190.635,143.126,143.126,0,0,1,159.768,47.509Z" transform="translate(-16.641 -47.509)" fill="#006bc7"/>
      </g>
      <path id="パス_46924" data-name="パス 46924" d="M155.941,34.618A157.943,157.943,0,0,1,303.383,202.407c-1.9,18.826-5.6,41.189-16.208,60.916" transform="translate(18.357 4.692)" fill="none" stroke="#006bc7" stroke-miterlimit="10" stroke-width="1" stroke-dasharray="2 2"/>
      <path id="パス_46925" data-name="パス 46925" d="M159.272,35.278l2.911-4.364-.149-.112-7.425,2.6L146.9,34.766l7.567,2,7.185,3.205.157-.072Z" transform="translate(17.249 4.224)" fill="#006bc7"/>
      <path id="パス_46926" data-name="パス 46926" d="M264.5,253.924l5.23.436-.008.184-6.653,4.2q-2.928,2.595-5.859,5.187,1.571-3.582,3.143-7.167l1.959-7.62.15-.08Z" transform="translate(43.125 10.395)" fill="#006bc7"/>
      <path id="パス_46927" data-name="パス 46927" d="M132.492,315.393q-.776-.049-1.553-.106" transform="translate(15.291 39.111)" fill="none" stroke="#006bc7" stroke-miterlimit="10" stroke-width="1"/>
      <path id="パス_46928" data-name="パス 46928" d="M143.793,349.423a157.929,157.929,0,0,1,1.56-314.6" transform="translate(-0.683 4.716)" fill="none" stroke="#006bc7" stroke-miterlimit="10" stroke-width="1" stroke-dasharray="2.012 2.012"/>
      <path id="パス_46929" data-name="パス 46929" d="M130.942,34.724q.775-.056,1.553-.106" transform="translate(15.291 4.692)" fill="none" stroke="#006bc7" stroke-miterlimit="10" stroke-width="1"/>
      <path id="パス_46930" data-name="パス 46930" d="M130.66,315.725l-2.911,4.367.149.112,7.425-2.6,7.706-1.364-7.567-2-7.185-3.205-.157.072Z" transform="translate(14.9 38.59)" fill="#006bc7"/>
      <path id="パス_46931" data-name="パス 46931" d="M130.66,35.278l-2.911-4.364.149-.112,7.425,2.6,7.709,1.364-7.567,2-7.185,3.205-.157-.072Z" transform="translate(14.9 4.224)" fill="#006bc7"/>
      <g id="グループ_10574" data-name="グループ 10574" transform="translate(63.03 98.896)" opacity="0.1">
        <g id="グループ_10573" data-name="グループ 10573">
          <g id="グループ_10571" data-name="グループ 10571" transform="translate(0 0.001)">
            <g id="グループ_10570" data-name="グループ 10570" clip-path="url(#clip-path)">
              <path id="パス_46932" data-name="パス 46932" d="M154.838,87.7A98.006,98.006,0,1,1,56.832,185.7,98.007,98.007,0,0,1,154.838,87.7" transform="translate(-56.828 -87.696)" fill="#006bc7"/>
            </g>
          </g>
          <rect id="長方形_23440" data-name="長方形 23440" width="196.02" height="196.021" transform="translate(0)" fill="none"/>
        </g>
      </g>
      <path id="パス_46933" data-name="パス 46933" d="M182.272,167.293c-2.117-15.685-16.213-26.784-32.04-26.469-14.911.3-26.153,7.912-29.571,24.753l-4.809,9.9-2.463,6.557a2.474,2.474,0,0,0,2.324,3.35h4.949v17.325a2.475,2.475,0,0,0,2.475,2.475h7.427v12.378H167.7V205.629a15.181,15.181,0,0,1,5.044-11.133A30.84,30.84,0,0,0,182.272,167.293Z" transform="translate(13.119 17.715)" fill="none" stroke="#006bc7" stroke-linecap="round" stroke-linejoin="round" stroke-width="2"/>
      <g id="グループ_10630" data-name="グループ 10630" transform="translate(166.553)">
        <path id="パス_46934" data-name="パス 46934" d="M160,0h74.632a10.957,10.957,0,0,1,0,21.915H160A10.957,10.957,0,1,1,160,0" transform="translate(-149.042)" fill="#1799e6"/>
        <path id="パス_241110" data-name="パス 241110" d="M6.286-2.7V-.63c0,.28-.1.322-.714.322a12.743,12.743,0,0,1-1.736-.14A5.313,5.313,0,0,1,4.3,1.036c.728.042,1.19.056,1.372.056C6.93,1.092,7.406.98,7.644.63a1.352,1.352,0,0,0,.182-.882V-2.7h3.64a13.831,13.831,0,0,1,1.736.084V-4.172a11.532,11.532,0,0,1-1.722.1H7.826v-.014a19.6,19.6,0,0,0,2.8-2.044c.266-.224.266-.224.5-.42l-.77-.854A6.328,6.328,0,0,1,9.3-7.35H4.662a10.209,10.209,0,0,1-1.414-.07v1.4a13.87,13.87,0,0,1,1.4-.056H8.5A7.414,7.414,0,0,1,6.846-4.942h-.6a6.549,6.549,0,0,1,.042.77v.1H2.478a11.88,11.88,0,0,1-1.694-.1v1.554A13.64,13.64,0,0,1,2.492-2.7ZM2.548-9.618A13.464,13.464,0,0,1,.9-9.674,9.2,9.2,0,0,1,.952-8.512v1.288a6.138,6.138,0,0,1-.07,1.078H2.408v-2.17h9.128v2.17h1.526a8.487,8.487,0,0,1-.07-1.064v-1.3a8.786,8.786,0,0,1,.056-1.162,16.851,16.851,0,0,1-1.722.056H10.7a14.668,14.668,0,0,0,1.05-1.68l-1.512-.42a9.276,9.276,0,0,1-1.148,2.1H7.9a11.077,11.077,0,0,0-.966-2.17l-1.456.406a8.188,8.188,0,0,1,.854,1.764H4.844a10.322,10.322,0,0,0-1.274-2l-1.414.42a8.11,8.11,0,0,1,1.05,1.582Zm21.378.63a18.134,18.134,0,0,1,.154-2.786H22.218a7.369,7.369,0,0,1,.084,1.358c0,.728,0,.868-.028,1.428H19.782A12.114,12.114,0,0,1,18-9.086v1.68A14.79,14.79,0,0,1,19.74-7.49h2.436a10.268,10.268,0,0,1-.882,3.458A7.422,7.422,0,0,1,17.346-.546,4.728,4.728,0,0,1,18.508.91,9.753,9.753,0,0,0,22.54-2.828,12.1,12.1,0,0,0,23.814-7.49h3.794a40.892,40.892,0,0,1-.322,5.46c-.154.938-.364,1.19-1.022,1.19a12.362,12.362,0,0,1-2.408-.28A6.545,6.545,0,0,1,24.248.574,16.141,16.141,0,0,0,26.39.728,2.765,2.765,0,0,0,28.056.35c.434-.308.63-.8.812-2.086.14-.924.28-3.29.322-5.208a18.935,18.935,0,0,1,.084-2.114,15.206,15.206,0,0,1-1.806.07Z" transform="translate(33.005 16.489)" fill="#f7f9fc"/>
      </g>
      <g id="グループ_10631" data-name="グループ 10631" transform="translate(59.025 0.446)">
        <path id="パス_46935" data-name="パス 46935" d="M64.218,0H138.85a10.957,10.957,0,0,1,0,21.915H64.218A10.957,10.957,0,1,1,64.218,0" transform="translate(-53.26)" fill="#17c4c0"/>
        <path id="パス_241109" data-name="パス 241109" d="M3.556-8.6c-.014,1.022-.042,1.764-.07,2.2H2.3A8.659,8.659,0,0,1,.728-6.482v1.568A8.6,8.6,0,0,1,2.254-5H3.332a7.514,7.514,0,0,1-.574,1.974A5.994,5.994,0,0,1,.406-.49,3.318,3.318,0,0,1,1.568.77a7.752,7.752,0,0,0,2.7-3.542A9.876,9.876,0,0,0,6.44-.126a5.643,5.643,0,0,1,.854-1.526,8.775,8.775,0,0,1-1.82-1.764,6.291,6.291,0,0,1-.728-1.106c.042-.21.056-.28.084-.476h.938a9.014,9.014,0,0,1,1.358.07v-1.54A8.524,8.524,0,0,1,5.81-6.4H4.97c.056-.714.056-.714.084-2.2h.518a13.24,13.24,0,0,1,1.386.07v-1.526a9.084,9.084,0,0,1-1.386.07H3.458c.126-.35.21-.588.294-.882.126-.42.168-.546.238-.728L2.408-11.9a3.341,3.341,0,0,1-.168.868A7.189,7.189,0,0,1,.448-7.756a4.968,4.968,0,0,1,1.2,1.064A8.473,8.473,0,0,0,2.87-8.6ZM8.946-.252h2.408V.714h1.582a16.752,16.752,0,0,1-.084-1.764V-9.156a11.194,11.194,0,0,1,.07-1.484,8.775,8.775,0,0,1-1.3.07H8.68a8.242,8.242,0,0,1-1.288-.07,11.969,11.969,0,0,1,.084,1.484V-.91c0,.56-.042,1.162-.084,1.61H8.946ZM8.974-9.17h2.38v7.518H8.974Zm7.28-.56h-.49a6.781,6.781,0,0,1-.742-.042,11.534,11.534,0,0,1,.056,1.428v7.28a14.36,14.36,0,0,1-.07,1.806h1.526V-.49h1.988V.35h1.5a13.579,13.579,0,0,1-.056-1.386V-6.412a3.587,3.587,0,0,1,.6.7,10.822,10.822,0,0,0,1.792-2.632h3.248A35.982,35.982,0,0,1,25.088-.98c-.126.406-.336.518-.938.518a11.553,11.553,0,0,1-1.792-.2,4.771,4.771,0,0,1,.392,1.6c.7.042,1.05.056,1.386.056,2.156,0,2.52-.532,2.786-4.074.056-.714.182-3.948.21-5.684a8.13,8.13,0,0,1,.056-1.106A8.207,8.207,0,0,1,26-9.814H23.016c.126-.322.35-.966.406-1.176a3.917,3.917,0,0,1,.2-.546l-1.61-.266a10.522,10.522,0,0,1-2.044,4.41V-8.568c0-.714.014-.756.014-.784a3.983,3.983,0,0,1,.028-.42c-.112.014-.518.028-1.2.042h-.77a15.454,15.454,0,0,0,.714-1.82l-1.61-.224a10.11,10.11,0,0,1-.6,2.044Zm.266,1.358h2v2.478h-2Zm0,3.836h2v2.7h-2Zm8.008,1.3a18.225,18.225,0,0,0-1.946-3.472l-1.274.686a13.6,13.6,0,0,1,1.806,3.556ZM28.7-7.658a6.447,6.447,0,0,1,.91-.1c.966-.056,3.346-.308,4.242-.448.1.224.168.392.322.756l1.26-.742A20.974,20.974,0,0,0,33.7-11.116l-1.12.546c.308.5.392.63.644,1.12-.868.112-1.2.14-2.1.2.322-.532.826-1.47.994-1.834a4.48,4.48,0,0,1,.266-.518L30.758-11.9a9.748,9.748,0,0,1-1.176,2.716h-.21a.955.955,0,0,1-.168.014,6.159,6.159,0,0,1-.672-.042Zm8.316-2.9a5.967,5.967,0,0,1,.07-1.134h-1.61a7.016,7.016,0,0,1,.07,1.2V-7a.839.839,0,0,0,.546.924,5,5,0,0,0,1.918.2c1.834,0,2.366-.084,2.73-.434.322-.322.448-.8.56-2.114a5.219,5.219,0,0,1-1.4-.434c-.028,1.036-.084,1.316-.238,1.456-.182.14-.5.182-1.638.182-.882,0-1.008-.056-1.008-.392V-8.5A19.614,19.614,0,0,0,40.25-9.73c.686-.336.686-.336.98-.462L40.194-11.48a7.031,7.031,0,0,1-1.624.98,8.919,8.919,0,0,1-1.554.588Zm.014,6.468A5.765,5.765,0,0,1,37.1-5.25H35.49A6.871,6.871,0,0,1,35.56-4V-.322a.908.908,0,0,0,.434.91c.364.224.812.28,2.184.28,1.764,0,2.254-.1,2.632-.518s.518-.938.616-2.254A5.709,5.709,0,0,1,40-2.38a4.146,4.146,0,0,1-.224,1.61c-.126.21-.476.28-1.4.28a4.209,4.209,0,0,1-.994-.07c-.266-.056-.35-.14-.35-.378V-2.254A20.181,20.181,0,0,0,39.116-2.9c.434-.168,1.806-.784,2.212-1.008L40.264-5.138A9.248,9.248,0,0,1,37.03-3.626Zm-7.7,3.71a11.754,11.754,0,0,1-.07,1.526h1.6a12.224,12.224,0,0,1-.07-1.554V-1.792h2.352V-.63c-.028.21-.084.252-.378.252a4.944,4.944,0,0,1-.938-.1A5.7,5.7,0,0,1,32.13.952c.252.014.462.014.588.014A2.84,2.84,0,0,0,34.188.7c.28-.168.392-.49.392-1.092V-5.964c0-.7.014-.924.042-1.316a10.192,10.192,0,0,1-1.26.056h-3.08a9.936,9.936,0,0,1-1.008-.042,12.3,12.3,0,0,1,.056,1.288ZM30.772-5.95h2.366v.868H30.772Zm0,2.072h2.366v.868H30.772ZM49.14-8.988a18.135,18.135,0,0,1,.154-2.786H47.432a7.369,7.369,0,0,1,.084,1.358c0,.728,0,.868-.028,1.428H45a12.114,12.114,0,0,1-1.778-.1v1.68a14.791,14.791,0,0,1,1.736-.084H47.39a10.268,10.268,0,0,1-.882,3.458A7.422,7.422,0,0,1,42.56-.546,4.728,4.728,0,0,1,43.722.91a9.753,9.753,0,0,0,4.032-3.738A12.1,12.1,0,0,0,49.028-7.49h3.794A40.892,40.892,0,0,1,52.5-2.03c-.154.938-.364,1.19-1.022,1.19a12.362,12.362,0,0,1-2.408-.28A6.545,6.545,0,0,1,49.462.574,16.142,16.142,0,0,0,51.6.728,2.765,2.765,0,0,0,53.27.35c.434-.308.63-.8.812-2.086.14-.924.28-3.29.322-5.208a18.935,18.935,0,0,1,.084-2.114,15.206,15.206,0,0,1-1.806.07Z" transform="translate(20.207 16.491)" fill="#f7f9fc"/>
      </g>
      <path id="パス_46936" data-name="パス 46936" d="M197.007,209.222l51.233,29.6a124.565,124.565,0,0,0,.031-115.024l-51.247,29.569a65.545,65.545,0,0,1-.017,55.859" transform="translate(23.393 15.628)" fill="#1799e6"/>
      <path id="パス_46937" data-name="パス 46937" d="M122.793,227.733a65.34,65.34,0,0,1-21.072-19.38L50.487,237.92a124.562,124.562,0,0,0,99.6,57.532L150.1,236.3a65.354,65.354,0,0,1-27.308-8.571" transform="translate(5.425 25.998)" fill="#17c4c0"/>
      <path id="パス_46938" data-name="パス 46938" d="M98.4,153.345l-51.234-29.6a124.551,124.551,0,0,0-.037,115.021L98.375,209.2a65.546,65.546,0,0,1,.021-55.852" transform="translate(3.289 15.622)" fill="#17c4c0"/>
      <path id="パス_46939" data-name="パス 46939" d="M150.129,123.227l.016-59.18a124.6,124.6,0,0,0-99.632,57.5l51.245,29.6a65.543,65.543,0,0,1,48.371-27.919" transform="translate(5.428 8.301)" fill="#17c4c0"/>
      <path id="パス_46940" data-name="パス 46940" d="M176.357,131.785a65.359,65.359,0,0,1,21.07,19.377L248.661,121.6a124.574,124.574,0,0,0-99.6-57.538l-.016,59.151a65.364,65.364,0,0,1,27.314,8.572" transform="translate(17.511 8.302)" fill="#1799e6"/>
      <path id="パス_241115" data-name="パス 241115" d="M6.174-9.87H5.18a10.277,10.277,0,0,0-1.12-1.764l-1.484.42A6.863,6.863,0,0,1,3.514-9.87H2.338A11.971,11.971,0,0,1,.966-9.926a11.587,11.587,0,0,1,.056,1.26v.924A8.109,8.109,0,0,1,.966-6.734h1.54v-1.82H11.55v1.848h1.54a5.634,5.634,0,0,1-.07-.994v-.91a10.914,10.914,0,0,1,.056-1.316,11.989,11.989,0,0,1-1.5.056H10.416c.224-.294.252-.336.658-.938a2.634,2.634,0,0,1,.224-.35l-1.512-.434A8.19,8.19,0,0,1,8.764-9.87H7.686v-.854a6.964,6.964,0,0,1,.07-1.008H6.1a6.964,6.964,0,0,1,.07,1.008ZM6.146-4.578v.826H3.108A11.308,11.308,0,0,1,1.82-3.808,9.4,9.4,0,0,1,1.876-2.66V-.8A13.775,13.775,0,0,1,1.806.644H3.458a9.065,9.065,0,0,1-.07-1.4V-2.408H6.146V-.28A11.454,11.454,0,0,1,6.076,1.2H7.742A10.94,10.94,0,0,1,7.672-.28V-2.408h3.01v1.386c0,.238-.1.294-.5.294a10.258,10.258,0,0,1-1.344-.1A3.606,3.606,0,0,1,9.17.56C9.856.6,9.926.6,10.108.6,11.83.6,12.194.378,12.194-.644v-1.9a9.359,9.359,0,0,1,.056-1.26,10.5,10.5,0,0,1-1.372.056H7.672v-.826H9.618c.532,0,.966.014,1.4.042a10.849,10.849,0,0,1-.042-1.176v-.994c0-.518.014-.812.042-1.134-.364.028-.756.042-1.33.042H4.41c-.5,0-.966-.014-1.344-.042.028.294.042.658.042,1.12v1.008a11.4,11.4,0,0,1-.042,1.176c.378-.028.756-.042,1.33-.042Zm3.36-2.086v.938H4.578v-.938Zm15.078-3.808a6.082,6.082,0,0,1,.07-1.2h-1.5a5.877,5.877,0,0,1,.07,1.134v.07h-.672a5.753,5.753,0,0,1-.91-.056v1.26c.21-.028.266-.028.476-.042a9.93,9.93,0,0,1,.322,1.61,9.928,9.928,0,0,1-1.064-.056v1.4a9.966,9.966,0,0,1,1.414-.07H26.53a18.063,18.063,0,0,0,.546,4.158,10.972,10.972,0,0,1-1.134,1.26v-.07l-.014-.2v-3.22a12.219,12.219,0,0,1,.042-1.26,8.653,8.653,0,0,1-.91.042H22.694a5.125,5.125,0,0,1-.91-.042,9.8,9.8,0,0,1,.056,1.246V-.77A8.1,8.1,0,0,1,21.77.476h1.316V-.448h2.156c-.238.168-.35.238-.756.49a3.489,3.489,0,0,1,.966,1.078A14.239,14.239,0,0,0,27.594-.9C28.126.21,28.784.854,29.4.854c.35,0,.644-.28.84-.784a8.444,8.444,0,0,0,.336-1.876A4.108,4.108,0,0,1,29.5-2.562c-.028,1.274-.084,1.736-.21,1.736-.168,0-.5-.574-.8-1.316a15.621,15.621,0,0,0,1.12-2.086,8.041,8.041,0,0,1,.5-1.022l-1.2-.658a8.29,8.29,0,0,1-.84,2.128c-.112-.756-.168-1.568-.224-2.646h.784a13.346,13.346,0,0,1,1.554.084V-7.784a9.26,9.26,0,0,1-1.54.084h-.826c-.028-1.022-.028-1.064-.028-1.862a13.6,13.6,0,0,1,.07-2.1h-1.5a7.163,7.163,0,0,1,.084,1.358c0,1.036.014,1.778.042,2.6H25.256a9.307,9.307,0,0,0,.392-1.61c.21.014.294.014.5.042v-1.26a5.692,5.692,0,0,1-.994.056ZM23.59-7.7a11.205,11.205,0,0,0-.252-1.61H24.43a7.035,7.035,0,0,1-.35,1.61ZM23.1-4.592h1.582v.91H23.1Zm0,2.016h1.582v.938H23.1Zm-5.292-7.518a5.953,5.953,0,0,1,.966-.056h1.3a6.034,6.034,0,0,1,.98.056v-1.344a4.765,4.765,0,0,1-.98.07h-1.3a4.7,4.7,0,0,1-.966-.07Zm3.528.63a7,7,0,0,1-1.064.056H18.41a5.218,5.218,0,0,1-1.022-.07v1.386a6.176,6.176,0,0,1,1.022-.056h1.932c.42,0,.714.014.994.028ZM17.794-6.09a8.3,8.3,0,0,1,.98-.042h1.26a9.378,9.378,0,0,1,1.008.042V-7.378a9.025,9.025,0,0,1-1.008.042h-1.26a7.822,7.822,0,0,1-.98-.042Zm0,1.974a8.3,8.3,0,0,1,.98-.042h1.26a6.735,6.735,0,0,1,1.008.042V-5.4a8.854,8.854,0,0,1-1.008.042h-1.26a7.822,7.822,0,0,1-.98-.042Zm-.112,3.99a8.133,8.133,0,0,1-.07,1.288H18.83v-.7h1.134V.924h1.162C21.1.5,21.084.252,21.084-.238v-2.03A10.633,10.633,0,0,1,21.112-3.4a8.193,8.193,0,0,1-.924.028H18.55a5.657,5.657,0,0,1-.924-.042,10.288,10.288,0,0,1,.056,1.19ZM18.83-2.254h1.148V-.728H18.83Zm9.226-8.33a8.294,8.294,0,0,1,1.022,2.226l1.064-.6a9.772,9.772,0,0,0-1.106-2.114Z" transform="translate(191.546 120.723)" fill="#f7f9fc"/>
      <path id="パス_241113" data-name="パス 241113" d="M11.7-3.024a14.769,14.769,0,0,1,1.68.084V-4.494a7.812,7.812,0,0,1-1.47.084h-.168V-6.244A7.116,7.116,0,0,1,11.8-7.5c-.378.028-.63.042-1.358.042h-2.8A5.59,5.59,0,0,1,7.7-8.624H6.076a6.394,6.394,0,0,1,.07,1.162H3.528c-.742,0-.994-.014-1.358-.042A9.2,9.2,0,0,1,2.226-6.23v1.82H2.114A7.821,7.821,0,0,1,.658-4.494V-2.94A14.082,14.082,0,0,1,2.31-3.024H5.572C4.8-1.414,3.332-.658.546-.42a5.3,5.3,0,0,1,.728,1.554A10.377,10.377,0,0,0,4.508.126,5.213,5.213,0,0,0,6.8-2.142,7,7,0,0,0,8.89-.238,11.03,11.03,0,0,0,12.74,1.19a5.133,5.133,0,0,1,.714-1.582c-2.73-.364-4.578-1.26-5.488-2.632ZM3.7-4.41V-6.146H6.118A14.279,14.279,0,0,1,5.964-4.41Zm3.766,0A12.545,12.545,0,0,0,7.6-6.146h2.674V-4.41ZM3.92-10.584h-1.6A12.631,12.631,0,0,1,.7-10.668V-9.2a12.1,12.1,0,0,1,1.624-.07h1.6v.49a4.364,4.364,0,0,1-.056.756H5.432a4.013,4.013,0,0,1-.042-.77v-.476h3v.5a5.6,5.6,0,0,1-.042.742H9.9a4.319,4.319,0,0,1-.042-.756v-.49h1.736a13.489,13.489,0,0,1,1.666.07v-1.47a13.678,13.678,0,0,1-1.666.084H9.856v-.238a5.108,5.108,0,0,1,.056-.826h-1.6a5.481,5.481,0,0,1,.07.826v.238h-3v-.238a5.222,5.222,0,0,1,.056-.826H3.85a5.331,5.331,0,0,1,.07.826ZM23.772-6.118a8.973,8.973,0,0,1-1.386-.07V-4.7a9.426,9.426,0,0,1,1.386-.07h5.18a10.056,10.056,0,0,1,1.372.07V-6.2a6.172,6.172,0,0,1-1.274.084V-7.882a7.419,7.419,0,0,1,.056-1.092A7.757,7.757,0,0,1,28-8.918H26.334c.056-.2.14-.56.28-1.092H28.63a10.691,10.691,0,0,1,1.484.07v-1.484a13.777,13.777,0,0,1-1.554.07H24.29c-.63,0-1.092-.028-1.568-.07V-9.94a10.593,10.593,0,0,1,1.47-.07h.91c-.112.532-.112.532-.252,1.092h-.7a8.639,8.639,0,0,1-1.12-.056v1.428A8.6,8.6,0,0,1,24.122-7.6h.35c-.182.616-.252.812-.5,1.484Zm1.708,0A15.354,15.354,0,0,0,25.97-7.6h1.638v1.484Zm-7.6-3.99c.35-.028.658-.042,1.162-.042h1.89a9.282,9.282,0,0,1,1.162.042v-1.358a6.489,6.489,0,0,1-1.162.07H19.04a6.489,6.489,0,0,1-1.162-.07Zm-.462,2.03a8.367,8.367,0,0,1,1.12-.056h2.716a7.132,7.132,0,0,1,1.12.056V-9.52a8.458,8.458,0,0,1-1.19.056H18.536a6.167,6.167,0,0,1-1.12-.07Zm.49,1.946a7.872,7.872,0,0,1,.924-.042h2.352a5.643,5.643,0,0,1,.9.042v-1.3a6.887,6.887,0,0,1-.9.042H18.83a7.709,7.709,0,0,1-.924-.042Zm0,1.946a7.77,7.77,0,0,1,.91-.042h2.338a5.838,5.838,0,0,1,.924.042V-5.474a6.887,6.887,0,0,1-.9.042H18.83a7.709,7.709,0,0,1-.924-.042ZM17.85-.238a10.4,10.4,0,0,1-.084,1.358h1.442V.462h1.624V.938H22.2a7.921,7.921,0,0,1-.056-1.092V-2.492A8.36,8.36,0,0,1,22.19-3.5a4.97,4.97,0,0,1-.938.042H18.858a8.657,8.657,0,0,1-1.078-.056,6.682,6.682,0,0,1,.07,1.106Zm1.372-2.03h1.61V-.784h-1.61Zm3.906,2a13.633,13.633,0,0,1-.056,1.414h1.554V.518h3.388v.616h1.6a11.716,11.716,0,0,1-.07-1.386V-2.9a8.235,8.235,0,0,1,.056-1.12,10.109,10.109,0,0,1-1.134.042H24.276c-.56,0-.84-.014-1.19-.042.028.308.042.574.042.994Zm1.5-2.408h3.388v1.82H24.626Z" transform="translate(238.916 202.847)" fill="#f7f9fc"/>
      <path id="パス_241116" data-name="パス 241116" d="M11.7-11.424a11.815,11.815,0,0,1-1.54.084H3.822a12.12,12.12,0,0,1-1.54-.084v1.4a12.256,12.256,0,0,1,1.54-.07h6.342a12.393,12.393,0,0,1,1.54.07Zm1.582,1.988a11.007,11.007,0,0,1-1.526.084H2.212a11.232,11.232,0,0,1-1.54-.084v1.484a12.224,12.224,0,0,1,1.554-.07h9.52c.6,0,1.064.028,1.54.07ZM11.578-7.35a11.861,11.861,0,0,1-1.414.056H3.836A12.284,12.284,0,0,1,2.408-7.35v1.358a9.706,9.706,0,0,1,1.428-.07h6.328a9.729,9.729,0,0,1,1.414.07Zm0,1.946a9.158,9.158,0,0,1-1.414.07H3.836A9.363,9.363,0,0,1,2.408-5.4v1.372A9.591,9.591,0,0,1,3.836-4.1h6.328a9.612,9.612,0,0,1,1.414.07ZM3.738.546h6.44v.6h1.6a8.437,8.437,0,0,1-.07-1.3V-2.128a8.659,8.659,0,0,1,.056-1.218,7.155,7.155,0,0,1-1.106.056H3.276A8.012,8.012,0,0,1,2.17-3.346a7.936,7.936,0,0,1,.07,1.218v1.96c0,.406-.028.868-.07,1.3H3.738Zm0-2.534h6.454V-.8H3.738Zm20.034-4.13a8.973,8.973,0,0,1-1.386-.07V-4.7a9.426,9.426,0,0,1,1.386-.07h5.18a10.056,10.056,0,0,1,1.372.07V-6.2a6.172,6.172,0,0,1-1.274.084V-7.882a7.419,7.419,0,0,1,.056-1.092A7.757,7.757,0,0,1,28-8.918H26.334c.056-.2.14-.56.28-1.092H28.63a10.691,10.691,0,0,1,1.484.07v-1.484a13.777,13.777,0,0,1-1.554.07H24.29c-.63,0-1.092-.028-1.568-.07V-9.94a10.593,10.593,0,0,1,1.47-.07h.91c-.112.532-.112.532-.252,1.092h-.7a8.639,8.639,0,0,1-1.12-.056v1.428A8.6,8.6,0,0,1,24.122-7.6h.35c-.182.616-.252.812-.5,1.484Zm1.708,0A15.354,15.354,0,0,0,25.97-7.6h1.638v1.484Zm-7.6-3.99c.35-.028.658-.042,1.162-.042h1.89a9.282,9.282,0,0,1,1.162.042v-1.358a6.489,6.489,0,0,1-1.162.07H19.04a6.489,6.489,0,0,1-1.162-.07Zm-.462,2.03a8.367,8.367,0,0,1,1.12-.056h2.716a7.132,7.132,0,0,1,1.12.056V-9.52a8.458,8.458,0,0,1-1.19.056H18.536a6.167,6.167,0,0,1-1.12-.07Zm.49,1.946a7.872,7.872,0,0,1,.924-.042h2.352a5.643,5.643,0,0,1,.9.042v-1.3a6.887,6.887,0,0,1-.9.042H18.83a7.709,7.709,0,0,1-.924-.042Zm0,1.946a7.77,7.77,0,0,1,.91-.042h2.338a5.838,5.838,0,0,1,.924.042V-5.474a6.887,6.887,0,0,1-.9.042H18.83a7.709,7.709,0,0,1-.924-.042ZM17.85-.238a10.4,10.4,0,0,1-.084,1.358h1.442V.462h1.624V.938H22.2a7.921,7.921,0,0,1-.056-1.092V-2.492A8.36,8.36,0,0,1,22.19-3.5a4.97,4.97,0,0,1-.938.042H18.858a8.657,8.657,0,0,1-1.078-.056,6.682,6.682,0,0,1,.07,1.106Zm1.372-2.03h1.61V-.784h-1.61Zm3.906,2a13.633,13.633,0,0,1-.056,1.414h1.554V.518h3.388v.616h1.6a11.716,11.716,0,0,1-.07-1.386V-2.9a8.235,8.235,0,0,1,.056-1.12,10.109,10.109,0,0,1-1.134.042H24.276c-.56,0-.84-.014-1.19-.042.028.308.042.574.042.994Zm1.5-2.408h3.388v1.82H24.626Z" transform="translate(100.613 120.723)" fill="#f7f9fc"/>
      <path id="パス_241117" data-name="パス 241117" d="M13.566-9.422a7.582,7.582,0,0,1-1.316.07H9.814c.154-.546.28-1.022.364-1.386.112-.476.14-.6.2-.77l-1.54-.308a10.148,10.148,0,0,1-.336,1.9A10.277,10.277,0,0,1,6.608-5.88,4.913,4.913,0,0,1,7.616-4.872c.294-.392.392-.532.644-.924a9.556,9.556,0,0,0,1.176,3.29A8.691,8.691,0,0,1,7.448-.756a8.554,8.554,0,0,1-1.106.6,4.329,4.329,0,0,1,.756,1.4A10.86,10.86,0,0,0,10.276-1.26a9.587,9.587,0,0,0,2.73,2.408,6.42,6.42,0,0,1,.812-1.484,7.442,7.442,0,0,1-2.66-2.184,11.442,11.442,0,0,0,1.428-5.488,7.153,7.153,0,0,1,.98.056ZM11.158-8.008a10.138,10.138,0,0,1-.868,4.116A11.011,11.011,0,0,1,9.17-7.574c.07-.182.07-.182.182-.434Zm-4.4,7.07a7.245,7.245,0,0,0-1.134-.63,5.2,5.2,0,0,0,.84-1.792A5.531,5.531,0,0,1,7.6-3.29V-4.7a4.95,4.95,0,0,1-1.036.07H4.354c.112-.266.168-.364.294-.714l-1.456-.28a10.131,10.131,0,0,1-.364.994H1.778A5.818,5.818,0,0,1,.672-4.7V-3.29a6,6,0,0,1,1.106-.07h.406a11.707,11.707,0,0,1-.91,1.386c.994.364,1.372.518,2.072.826A7.656,7.656,0,0,1,.574-.112,6.115,6.115,0,0,1,1.3,1.176,7.343,7.343,0,0,0,4.648-.49a7.46,7.46,0,0,1,1.3.854ZM5.012-3.36a3.611,3.611,0,0,1-.63,1.246c-.42-.182-.6-.252-1.19-.462.252-.378.294-.448.49-.784Zm-.056-5.8v-1.68a5.5,5.5,0,0,1,.056-.924H3.486a4.474,4.474,0,0,1,.07.952v1.652H1.89a6.662,6.662,0,0,1-1.176-.07v1.344a6.585,6.585,0,0,1,1.162-.07h.756A5.6,5.6,0,0,1,.392-6.2,4.762,4.762,0,0,1,1.3-5.04a7.952,7.952,0,0,0,2.282-2.2c-.028.252-.042.476-.042.6V-6.1a2.578,2.578,0,0,1-.042.462H5a2.1,2.1,0,0,1-.056-.518v-.5c0-.112-.014-.28-.042-.574a5.073,5.073,0,0,0,1.246,1.33,4.5,4.5,0,0,1,.812-1.148,3.789,3.789,0,0,1-1.232-.9h.938a6.74,6.74,0,0,1,.9.042V-9.2a6.456,6.456,0,0,1-.9.042ZM1.064-11.172A7.261,7.261,0,0,1,2-9.31l1.232-.462a6.983,6.983,0,0,0-.98-1.848Zm5.152-.476a6.921,6.921,0,0,1-.994,1.876l1.19.532a12.055,12.055,0,0,0,1.064-1.89ZM25.186-.658H22.68a8.829,8.829,0,0,1-1.414-.07V.77A12.167,12.167,0,0,1,22.848.7h5.894a11.779,11.779,0,0,1,1.582.07v-1.5a9.747,9.747,0,0,1-1.484.07H26.586V-2.1h1.806a9.994,9.994,0,0,1,1.47.07V-3.472a9.747,9.747,0,0,1-1.484.07H26.586V-4.55H28.2a14.332,14.332,0,0,1,1.526.042c-.042-.406-.056-.9-.056-1.876V-9.366c0-.854.014-1.512.056-1.918a12.151,12.151,0,0,1-1.806.07H24.052a16.68,16.68,0,0,1-1.89-.07,15.24,15.24,0,0,1,.07,1.876v3.164C22.2-4.83,22.2-4.83,22.176-4.508c.42-.028.742-.042,1.68-.042h1.33V-3.4H23.618a8.382,8.382,0,0,1-1.442-.07v1.428A11.482,11.482,0,0,1,23.632-2.1h1.554Zm0-9.2v1.4H23.632v-1.4Zm1.4,0H28.21v1.4H26.586Zm-1.4,2.576v1.414H23.632V-7.28Zm1.4,0H28.21v1.414H26.586Zm-7.63-2.436v2.73h-.434a5.106,5.106,0,0,1-.98-.07v1.442a4.891,4.891,0,0,1,.952-.07h.462v3.332a11.884,11.884,0,0,1-1.722.532l.378,1.582.28-.112c2.17-.882,2.716-1.12,3.934-1.722l-.042-1.484c-.616.308-.784.378-1.372.63V-5.684h.322a5.842,5.842,0,0,1,.882.056V-7.056a4.334,4.334,0,0,1-.882.07h-.322v-2.73h.42a8.118,8.118,0,0,1,1.036.056v-1.5a6.114,6.114,0,0,1-1.246.084H18.648a7.466,7.466,0,0,1-1.274-.084v1.512a5.9,5.9,0,0,1,1.05-.07Z" transform="translate(51.51 202.847)" fill="#f7f9fc"/>
      <path id="パス_241114" data-name="パス 241114" d="M7.5-2.212V-.6A10.433,10.433,0,0,1,7.448.812H8.806A10.3,10.3,0,0,1,8.75-.6v-1.61h.84V-.63A12.915,12.915,0,0,1,9.534.8H10.85c-.028-.392-.042-.84-.042-1.428V-2.212h.91v1.6c0,.224-.042.266-.322.266-.2,0-.392-.014-.574-.028a2.532,2.532,0,0,1,.35,1.4c1.54,0,1.9-.238,1.9-1.26V-4.956a12.128,12.128,0,0,1,.056-1.372,10.342,10.342,0,0,1-1.386.056H6.51a9.922,9.922,0,0,1-1.316-.056c.042.5.056.784.056,1.4V-.14a7.732,7.732,0,0,1-.07,1.274h1.5a7.243,7.243,0,0,1-.07-1.26V-2.212Zm0-1.246h-.9V-5.026h.9Zm1.246,0V-5.026h.84v1.568Zm2.058,0V-5.026h.91v1.568ZM6.552-7.042c.336-.028.574-.042,1.148-.042h2.884c.574,0,.826.014,1.148.042v-.9a14.432,14.432,0,0,0,1.484.812A5.667,5.667,0,0,1,13.9-8.68a7.742,7.742,0,0,1-2.492-1.358,5.082,5.082,0,0,1-1.54-1.694H8.078a5.03,5.03,0,0,1-1.232,1.638A8.481,8.481,0,0,1,4.8-8.624v-.868a6.949,6.949,0,0,1-1.092.056H1.582A5.835,5.835,0,0,1,.49-9.506V-8.12a8.051,8.051,0,0,1,1.092-.056H3.766a6.377,6.377,0,0,1,.826.028,3.9,3.9,0,0,1,.714,1.064,10.56,10.56,0,0,0,1.246-.784ZM7.7-8.358H7.182A8.246,8.246,0,0,0,9.03-10.444a8.938,8.938,0,0,0,2.086,2.086H7.7ZM.924-10.108a8.329,8.329,0,0,1,1.134-.056h1.47a8.461,8.461,0,0,1,1.134.056v-1.316a8.2,8.2,0,0,1-1.134.056H2.058a8.2,8.2,0,0,1-1.134-.056ZM.98-6.146a5.553,5.553,0,0,1,.9-.042H3.668a5.189,5.189,0,0,1,.868.042V-7.434a6.542,6.542,0,0,1-.868.042H1.876a7.036,7.036,0,0,1-.9-.042Zm0,2a7.09,7.09,0,0,1,.882-.042H3.64a5.289,5.289,0,0,1,.9.042V-5.432a6.4,6.4,0,0,1-.868.042H1.876a7.036,7.036,0,0,1-.9-.042ZM2.212.476H3.346V.9H4.62A9.828,9.828,0,0,1,4.578-.1v-2.3a10.436,10.436,0,0,1,.028-1.078,4.15,4.15,0,0,1-.868.056h-1.9A7.652,7.652,0,0,1,.84-3.458,7.4,7.4,0,0,1,.91-2.3V-.224A12.477,12.477,0,0,1,.84,1.134H2.212ZM2.17-2.254H3.36v1.54H2.17Zm23.016,1.6H22.68a8.829,8.829,0,0,1-1.414-.07V.77A12.167,12.167,0,0,1,22.848.7h5.894a11.779,11.779,0,0,1,1.582.07v-1.5a9.747,9.747,0,0,1-1.484.07H26.586V-2.1h1.806a9.994,9.994,0,0,1,1.47.07V-3.472a9.747,9.747,0,0,1-1.484.07H26.586V-4.55H28.2a14.332,14.332,0,0,1,1.526.042c-.042-.406-.056-.9-.056-1.876V-9.366c0-.854.014-1.512.056-1.918a12.151,12.151,0,0,1-1.806.07H24.052a16.68,16.68,0,0,1-1.89-.07,15.24,15.24,0,0,1,.07,1.876v3.164C22.2-4.83,22.2-4.83,22.176-4.508c.42-.028.742-.042,1.68-.042h1.33V-3.4H23.618a8.382,8.382,0,0,1-1.442-.07v1.428A11.482,11.482,0,0,1,23.632-2.1h1.554Zm0-9.2v1.4H23.632v-1.4Zm1.4,0H28.21v1.4H26.586Zm-1.4,2.576v1.414H23.632V-7.28Zm1.4,0H28.21v1.414H26.586Zm-7.63-2.436v2.73h-.434a5.106,5.106,0,0,1-.98-.07v1.442a4.891,4.891,0,0,1,.952-.07h.462v3.332a11.884,11.884,0,0,1-1.722.532l.378,1.582.28-.112c2.17-.882,2.716-1.12,3.934-1.722l-.042-1.484c-.616.308-.784.378-1.372.63V-5.684h.322a5.842,5.842,0,0,1,.882.056V-7.056a4.334,4.334,0,0,1-.882.07h-.322v-2.73h.42a8.118,8.118,0,0,1,1.036.056v-1.5a6.114,6.114,0,0,1-1.246.084H18.648a7.466,7.466,0,0,1-1.274-.084v1.512a5.9,5.9,0,0,1,1.05-.07Z" transform="translate(100.613 284.628)" fill="#f7f9fc"/>
      <path id="パス_241111" data-name="パス 241111" d="M16.005-13.4a21.764,21.764,0,0,0,1.32,4.125,19.116,19.116,0,0,0,5.511,7.491,28.57,28.57,0,0,0,6.93,4.455,13.593,13.593,0,0,1,2.178-3.63C27.423-2.871,24.981-4.455,23-6.765A15.036,15.036,0,0,1,19.8-13.4h5.478c1.584,0,2.64.033,3.729.132a26.694,26.694,0,0,1-.132-3.135v-6.93a27.535,27.535,0,0,1,.132-3.1,31.681,31.681,0,0,1-3.828.165H10.164a39.16,39.16,0,0,1-4.356-.165,29.5,29.5,0,0,1,.2,4.554c0,9.141-.528,13.3-2.079,17.127A19.59,19.59,0,0,1,1.056.165,15.29,15.29,0,0,1,4.092,2.9C7.524-1.683,9.042-6.237,9.5-13.4ZM9.636-16.764C9.669-18.348,9.7-19.3,9.7-19.6v-3.2H25.311v6.039Zm35.343-.2v3.1a19.459,19.459,0,0,1-.132,2.079c.594-.033,1.023-.033,2.31-.033h9.174c1.32,0,1.386,0,2.145.033a18.252,18.252,0,0,1-.1-2.079v-3.1h3.168a20.892,20.892,0,0,1,2.937.132V-20.1a17.83,17.83,0,0,1-2.937.165H58.377v-2.31h2.541a34.083,34.083,0,0,1,3.465.132v-3.432a29.818,29.818,0,0,1-3.993.2H52.206v-.693a7.931,7.931,0,0,1,.165-1.914H48.444a11.085,11.085,0,0,1,.165,1.881v.726H40.392c-1.419,0-2.574-.066-3.729-.165.1,1.188.132,2.046.132,4.488,0,7.821-.231,11.451-.957,14.883A17.873,17.873,0,0,1,33.792-.495a13.636,13.636,0,0,1,2.772,3.036,23.759,23.759,0,0,0,2.805-7.854,68.45,68.45,0,0,0,.924-11.649Zm-4.653-2.97v-2.31h4.653v2.31Zm8.118,0v-2.31h6.468v2.31Zm0,2.97h6.468v2.277H48.444Zm10.824,6.93c-.792.066-1.386.1-2.739.1H45.012a22.937,22.937,0,0,1-3.531-.165V-7c.693-.066,1.188-.1,2.343-.132a19.135,19.135,0,0,0,4.488,4.686A31.185,31.185,0,0,1,38.874-.594a11.222,11.222,0,0,1,1.287,3.4A35.546,35.546,0,0,0,51.447-.429c3.069,1.617,6.369,2.508,11.913,3.2A16.139,16.139,0,0,1,64.746-.957a29,29,0,0,1-9.768-1.551,27.018,27.018,0,0,0,5.445-4.95c.3-.33.33-.363.627-.66Zm-3.531,2.9a18.59,18.59,0,0,1-4.092,3.1,12.95,12.95,0,0,1-3.828-3.1Z" transform="translate(215.607 316.856)" fill="#006bc7"/>
      <path id="パス_241112" data-name="パス 241112" d="M10.55-8A14.751,14.751,0,0,0,13.7-2.55C16.45.4,20.15,1.8,25.1,1.8c9.3,0,15.05-5.45,15.05-14.25,0-4-1.1-7-3.55-9.4-2.45-2.55-5.7-3.75-9.75-3.75a12.3,12.3,0,0,0-8.55,3.05q.225-1.5.3-2.1l.8-8.75H31.15a47.962,47.962,0,0,1,6.9.4v-6.3a38.071,38.071,0,0,1-6.95.4H18.8c-2.65,0-3.8-.05-5.3-.15-.05,2.5-.15,4.2-.2,5.1l-1.15,12.4c-.1,1.4-.15,1.65-.65,5.2l6.25.6A5.735,5.735,0,0,1,19.25-18a8.79,8.79,0,0,1,6.2-2.3c4.75,0,7.85,3.15,7.85,8.05C33.3-7.3,30.05-4,25.1-4a7.574,7.574,0,0,1-6.15-2.55,6.847,6.847,0,0,1-1.5-2.9Z" transform="translate(171.791 316.931)" fill="#006bc7"/>
    </g>
  </g>
</svg>
