<svg xmlns="http://www.w3.org/2000/svg" xmlns:xlink="http://www.w3.org/1999/xlink" width="328" height="360" viewBox="0 0 328 360">
  <defs>
    <clipPath id="clip-path">
      <rect id="長方形_23475" data-name="長方形 23475" width="322.074" height="305.92" fill="none"/>
    </clipPath>
    <clipPath id="clip-path-3">
      <rect id="長方形_23465" data-name="長方形 23465" width="319.998" height="305.92" fill="none"/>
    </clipPath>
    <clipPath id="clip-path-4">
      <rect id="長方形_23464" data-name="長方形 23464" width="319.999" height="305.92" fill="none"/>
    </clipPath>
    <clipPath id="clip-path-5">
      <rect id="長方形_23466" data-name="長方形 23466" width="261.674" height="239.608" fill="none"/>
    </clipPath>
    <clipPath id="clip-path-6">
      <rect id="長方形_23467" data-name="長方形 23467" width="214.701" height="201.308" fill="none"/>
    </clipPath>
    <clipPath id="clip-path-7">
      <rect id="長方形_23469" data-name="長方形 23469" width="143.747" height="129.102" fill="none"/>
    </clipPath>
    <clipPath id="clip-path-8">
      <path id="パス_46954" data-name="パス 46954" d="M155.9,63S98.965,83.685,103.52,180.578c0,0,96.26,41.37,143.488-32.661,0,0-5.857-79.474-91.1-84.917" transform="translate(-103.261 -63)" fill="none"/>
    </clipPath>
    <radialGradient id="radial-gradient" cx="0.515" cy="0.406" r="0.43" gradientTransform="matrix(1.074, 0, 0, -1, 0.054, 2.986)" gradientUnits="objectBoundingBox">
      <stop offset="0" stop-color="#006bc7"/>
      <stop offset="1" stop-color="#7db4e3"/>
    </radialGradient>
    <clipPath id="clip-path-10">
      <rect id="長方形_23471" data-name="長方形 23471" width="92.529" height="1.361" fill="none"/>
    </clipPath>
    <clipPath id="clip-path-11">
      <rect id="長方形_23472" data-name="長方形 23472" width="1.767" height="85.199" fill="none"/>
    </clipPath>
    <clipPath id="clip-path-12">
      <rect id="長方形_23473" data-name="長方形 23473" width="103.398" height="58.131" fill="none"/>
    </clipPath>
    <clipPath id="clip-top_feature_item_01_img_02">
      <rect width="328" height="360"/>
    </clipPath>
  </defs>
  <g id="top_feature_item_01_img_02" clip-path="url(#clip-top_feature_item_01_img_02)">
    <g id="グループ_11086" data-name="グループ 11086" transform="translate(-330.305 -316.499)">
      <path id="パス_241118" data-name="パス 241118" d="M6.132-10.892H3.052a10.081,10.081,0,0,1-1.484-.084v1.358A12.559,12.559,0,0,1,3.01-9.674h.756c.182.364.252.518.378.826H2.394a12.294,12.294,0,0,1-1.666-.07V-7.56a11.488,11.488,0,0,1,1.61-.07H11.69a11.365,11.365,0,0,1,1.61.07V-8.918a11.139,11.139,0,0,1-1.6.07H9.8a8.959,8.959,0,0,0,.406-.826h.784a13.853,13.853,0,0,1,1.5.056v-1.358A10.213,10.213,0,0,1,11-10.892H7.7v-.126a4.388,4.388,0,0,1,.084-.882H6.048a4.817,4.817,0,0,1,.084.882ZM5.684-8.848a8.333,8.333,0,0,0-.364-.826h3.3a7.54,7.54,0,0,1-.406.826ZM6.678-2.66l-.686.518a8.665,8.665,0,0,1,1.582,1.5l1.162-.91A11.678,11.678,0,0,0,7.35-2.66h3.178c.1,0,.224,0,.392.014h.364c.28.014.294.014.476.028A10.352,10.352,0,0,1,11.7-3.794V-5.88a8.992,8.992,0,0,1,.056-1.246c-.392.028-.686.042-1.526.042H3.724c-.756,0-1.12-.014-1.512-.042A10.087,10.087,0,0,1,2.268-5.88v2.212a6.8,6.8,0,0,1-.056,1.05c.392-.028.77-.042,1.372-.042Zm-2.954-3.3h6.524v.574H3.724Zm0,1.61h6.524v.574H3.724ZM1.778.98a9.408,9.408,0,0,0,1.61-2.786L2.03-2.366A6.453,6.453,0,0,1,.49.1ZM5.39-1.2A5.374,5.374,0,0,1,5.46-2.24H3.85A5.2,5.2,0,0,1,3.92-1.2V.028c0,.826.462.98,2.9.98s3-.084,3.388-.5c.252-.28.364-.728.406-1.778A4.617,4.617,0,0,1,9.17-1.652,2.656,2.656,0,0,1,9.03-.5c-.14.21-.588.266-2.212.266a7.268,7.268,0,0,1-1.2-.084c-.182-.042-.224-.1-.224-.266ZM13.482-.07a17.1,17.1,0,0,0-1.946-2.45l-1.232.7A15.159,15.159,0,0,1,12.222.812Zm9.87-7.658a5.438,5.438,0,0,1,.042.6,11.637,11.637,0,0,1-.686,4.046A5.878,5.878,0,0,1,20.888-.6V-4.284c.126.112.21.182.462.392a5.893,5.893,0,0,1,.868-1.4A7.86,7.86,0,0,1,19.236-8.68H17.794a8.626,8.626,0,0,1-1.652,2.73A9.736,9.736,0,0,1,14.672-4.7a7,7,0,0,1,.7,1.54c.392-.336.63-.532.77-.658V-.616a10.23,10.23,0,0,1-.1,1.526H17.6V.182H19.88c.364,0,.42,0,.644.014a5.4,5.4,0,0,1,.756.994A7.158,7.158,0,0,0,23.254-.938a6.847,6.847,0,0,0,.98-2.758A7.908,7.908,0,0,0,25.662-.56a9.232,9.232,0,0,0,1.68,1.736c.378-.686.616-1.078.9-1.512a6.748,6.748,0,0,1-1.89-1.82,8.741,8.741,0,0,1-1.512-5,3.754,3.754,0,0,1,.028-.574Zm-6.1,2.716a7.957,7.957,0,0,0,1.33-2.226,9.2,9.2,0,0,0,1.54,2.226h-2.87Zm.35,1.344H19.46v2.506H17.6Zm6.44-6.216c.042-.14.1-.35.21-.756.056-.2.14-.532.28-1.022l-1.568-.266a8.4,8.4,0,0,1-.35,1.764,10.986,10.986,0,0,1-1.652,3.43,5.738,5.738,0,0,1,1.162.98A13.348,13.348,0,0,0,23.576-8.54h2.856a7.6,7.6,0,0,1-1.148,2.576A6.05,6.05,0,0,1,26.5-5.1a10.785,10.785,0,0,0,1.316-3.318,6.309,6.309,0,0,1,.238-.784L27.4-9.954a5.9,5.9,0,0,1-1.218.07Zm-7.056-1.75A7.226,7.226,0,0,1,14.77-8.918,5.8,5.8,0,0,1,15.624-7.6a10.276,10.276,0,0,0,2.632-3.332Zm1.806.7A9.768,9.768,0,0,0,21.1-8.106a10.268,10.268,0,0,1,.826-1.3,7.2,7.2,0,0,1-1.918-2.226ZM35.84-6.986A1.661,1.661,0,0,0,34.174-5.32,1.661,1.661,0,0,0,35.84-3.654,1.661,1.661,0,0,0,37.506-5.32,1.661,1.661,0,0,0,35.84-6.986Zm9.086-2.926h-.35c-.252,0-.434-.014-.644-.028l.14,1.358c.42-.056.7-.084.966-.1,2.128-.14,2.87-.21,4.242-.378.1.182.182.308.336.6l1.134-.6v.49a.946.946,0,0,0,.672,1.022,7.106,7.106,0,0,0,2.128.168c1.456,0,2.072-.084,2.408-.336.378-.266.5-.672.6-1.722a5,5,0,0,1-1.33-.392c-.028.728-.07.952-.21,1.092s-.49.2-1.246.2c-1.428,0-1.61-.042-1.61-.42v-.35c.966-.182,1.456-.294,2.3-.518.336-.1,1.68-.518,1.932-.616L55.3-11.564a4.908,4.908,0,0,1-1.148.546,11.284,11.284,0,0,1-1.988.546v-.252a5.286,5.286,0,0,1,.07-1.036H50.68a6,6,0,0,1,.07,1.106v1.526A17.694,17.694,0,0,0,49-11.438l-1.064.518c.336.406.448.546.658.826-1.036.1-1.036.1-2.03.14.336-.5.336-.5,1.036-1.694l-1.512-.266a7.533,7.533,0,0,1-1.022,2Zm1.12,5.474h2.492V-4.2c0,.28-.056.308-.532.308a9.449,9.449,0,0,1-.966-.07,3.6,3.6,0,0,1,.294,1.12c.28.014.434.014.532.014a3.8,3.8,0,0,0,1.414-.2c.434-.21.588-.476.588-1.092V-7.1a9.261,9.261,0,0,1,.056-1.316,10.684,10.684,0,0,1-1.246.056H45.766a9.277,9.277,0,0,1-1.106-.056c.028.336.042.588.042,1.12v3.136a10.593,10.593,0,0,1-.07,1.47H46.1a8.787,8.787,0,0,1-.056-1.218Zm0-.938v-.49h2.492v.49Zm0-1.428v-.462h2.492V-6.8Zm4.606-.308a5.909,5.909,0,0,1,.07,1.106v2c0,.966.5,1.19,2.59,1.19,1.6,0,2.324-.1,2.674-.364.392-.28.5-.644.6-1.75a5,5,0,0,1-1.344-.378c-.042.756-.1,1.022-.252,1.134s-.406.14-1.54.14c-1.106,0-1.316-.07-1.316-.42v-.462a23.246,23.246,0,0,0,3.458-.812,4.814,4.814,0,0,1,.6-.182l-1.008-1.12a8.537,8.537,0,0,1-3.052.98,5.34,5.34,0,0,1,.07-1.064ZM45.108.924A8.517,8.517,0,0,0,46.55-1.918L45.29-2.45A6.317,6.317,0,0,1,43.82.056Zm2.03-3.472a5.287,5.287,0,0,1,.07.98V-.126c0,.966.392,1.12,2.828,1.12,2.1,0,2.73-.056,3.108-.266.448-.266.644-.8.728-2.03a4.651,4.651,0,0,1-1.442-.434A2.5,2.5,0,0,1,52.248-.56c-.154.21-.6.266-2.044.266-1.33,0-1.554-.056-1.554-.35V-1.736a3.657,3.657,0,0,1,.07-.812Zm9.52,2.59a14.272,14.272,0,0,0-1.82-2.618l-1.2.588A11.888,11.888,0,0,1,55.328.826ZM51.87-1.61a10.309,10.309,0,0,0-1.54-1.456l-1.008.714a9.385,9.385,0,0,1,1.5,1.568ZM62.762-7.2V-5.88A8.256,8.256,0,0,1,62.706-5c.252-.014.434-.014.98-.014h3.892c.56,0,.588,0,.91.014a7.743,7.743,0,0,1-.042-.882V-7.2H69.79a8.863,8.863,0,0,1,1.246.056V-8.526a7.564,7.564,0,0,1-1.246.07H68.446v-.98h1.078a14.459,14.459,0,0,1,1.47.056v-1.456a12.65,12.65,0,0,1-1.694.084H65.828v-.294a3.365,3.365,0,0,1,.07-.812H64.232a4.7,4.7,0,0,1,.07.8v.308H60.816c-.6,0-1.092-.028-1.582-.07.042.5.056.868.056,1.9A29.864,29.864,0,0,1,58.884-2.6,7.582,7.582,0,0,1,58.016-.21a5.785,5.785,0,0,1,1.176,1.288,10.079,10.079,0,0,0,1.19-3.332A29.039,29.039,0,0,0,60.774-7.2Zm-1.974-1.26v-.98h1.974v.98Zm3.444,0v-.98h2.744v.98Zm0,1.26h2.744v.966H64.232Zm4.592,2.94c-.336.028-.588.042-1.162.042H62.776a9.731,9.731,0,0,1-1.5-.07v1.316c.294-.028.5-.042.994-.056a8.118,8.118,0,0,0,1.9,1.988,13.23,13.23,0,0,1-4,.784,4.761,4.761,0,0,1,.546,1.442A15.08,15.08,0,0,0,65.506-.182,13.909,13.909,0,0,0,70.56,1.176a6.847,6.847,0,0,1,.588-1.582A12.3,12.3,0,0,1,67-1.064a11.462,11.462,0,0,0,2.31-2.1c.126-.14.14-.154.266-.28Zm-1.5,1.232A7.887,7.887,0,0,1,65.59-1.708a5.494,5.494,0,0,1-1.624-1.316Z" transform="translate(339.295 375.704)" fill="#006bc7"/>
      <path id="パス_241119" data-name="パス 241119" d="M7.126-8.9c.07-.364.168-.938.21-1.2a3.539,3.539,0,0,1,.1-.5l-1.5-.28a11.814,11.814,0,0,1-.6,3.234A11.474,11.474,0,0,0,4.69-9.436l-.938.448A8,8,0,0,1,4.4-6.9l.812-.392a5.8,5.8,0,0,1-.742,1.4,8.852,8.852,0,0,1,1.26.784c-.1-.014-.126-.014-.224-.028v1.512A11.6,11.6,0,0,1,7.056-3.71h1.26V-.742H6.09A12.662,12.662,0,0,1,4.438-.826V.756A11.388,11.388,0,0,1,6.09.658h5.628a11.313,11.313,0,0,1,1.638.1V-.826a12.571,12.571,0,0,1-1.638.084h-1.9V-3.71H11.2a10.464,10.464,0,0,1,1.526.084V-5.138a10.526,10.526,0,0,1-1.512.07h-1.4v-2.45h1.652a12.853,12.853,0,0,1,1.526.084V-8.988a9.911,9.911,0,0,1-1.54.084H9.814v-1.4a9.3,9.3,0,0,1,.1-1.484H8.218a9.414,9.414,0,0,1,.1,1.484v1.4Zm1.19,1.386v2.45H6.846c-.448,0-.756-.014-1.064-.042A10.43,10.43,0,0,0,6.79-7.518ZM1.47-5a17.522,17.522,0,0,0,.518-3.92L.854-9.058a12.565,12.565,0,0,1-.5,3.64Zm2.338,6.16A13.588,13.588,0,0,1,3.724-.49v-9.856a11.344,11.344,0,0,1,.084-1.484H2.128a9.3,9.3,0,0,1,.1,1.484V-.6a13.368,13.368,0,0,1-.1,1.764Zm16.52-4.956V-.21a8.863,8.863,0,0,1-.07,1.386h1.554V.462h3.542v.7h1.6a8.845,8.845,0,0,1-.07-1.4v-3.08c0-.322,0-.42.014-.588l.616.252a4.394,4.394,0,0,1,.784-1.47,12.759,12.759,0,0,1-3.57-1.554,12.636,12.636,0,0,0,1.918-2.548,4.207,4.207,0,0,1,.378-.616l-.854-.91a6.16,6.16,0,0,1-1.218.07h-1.96a3.553,3.553,0,0,0,.14-.35c.14-.336.168-.42.238-.56l-1.554-.266A7.745,7.745,0,0,1,19.642-8.2V-9.226a4.321,4.321,0,0,1-.812.056h-.406v-1.176a10.133,10.133,0,0,1,.07-1.456H16.9a9.219,9.219,0,0,1,.07,1.456V-9.17h-.644a5.988,5.988,0,0,1-1.05-.07v1.456A7.187,7.187,0,0,1,16.31-7.84h.532a13.115,13.115,0,0,1-1.9,4.382,3.873,3.873,0,0,1,.9,1.288A11.7,11.7,0,0,0,17.08-5.194c-.042.616-.042.616-.1,1.82V-.518A14.368,14.368,0,0,1,16.9,1.2h1.61a13.735,13.735,0,0,1-.084-1.722v-3.5c0-.686-.014-1.176-.056-1.834a10.145,10.145,0,0,0,.826,1.582c.056-.112.084-.14.126-.238a3.744,3.744,0,0,1,.56.91ZM18.844-7.84c.182,0,.252,0,.518.014a4.262,4.262,0,0,1,.882,1.036,8.732,8.732,0,0,0,1.078-1.162A9.353,9.353,0,0,0,22.5-6.636a12.878,12.878,0,0,1-2.758,1.5c.1-.112.14-.154.266-.28a8.123,8.123,0,0,1-1.54-2.422Zm2.38,3.612A12.5,12.5,0,0,0,23.618-5.7a16.076,16.076,0,0,0,2.492,1.47H21.224ZM24.99-9.31a6.458,6.458,0,0,1-1.414,1.82A7.4,7.4,0,0,1,22.12-9.072c.07-.112.084-.14.14-.238ZM21.812-2.9h3.542v1.96H21.812Zm9.912-4.676V-4.69a12.4,12.4,0,0,1-2.352.63l.35,1.6c.154-.07.322-.14,1.064-.406.294-.1.6-.21.938-.336V-.42a11.633,11.633,0,0,1-.1,1.624h1.652A13.913,13.913,0,0,1,33.194-.42V-3.752c.364-.154.616-.266,1.008-.448v.644a8,8,0,0,1,1.372-.084h3.668V-.812c0,.35-.084.42-.532.42a12.035,12.035,0,0,1-1.638-.154,4.153,4.153,0,0,1,.364,1.54c.434.028.952.042,1.19.042,1.624,0,2.072-.28,2.072-1.33V-3.64h.126a9.871,9.871,0,0,1,1.372.084V-5.1a8.448,8.448,0,0,1-1.372.07H40.7V-6.2h.084a11.9,11.9,0,0,1,1.47.084V-7.63a14.356,14.356,0,0,1-1.582.07H38.78V-8.918h1.512a14.155,14.155,0,0,1,1.47.07v-1.526a10.54,10.54,0,0,1-1.47.084H38.78v-.448a5.738,5.738,0,0,1,.07-1.036H37.226a6.138,6.138,0,0,1,.084,1.05v.434H36.134a9.971,9.971,0,0,1-1.442-.084v1.526a13.981,13.981,0,0,1,1.442-.07H37.31V-7.56h-1.6c-.5,0-.854-.014-1.288-.042v-1.47a5.88,5.88,0,0,1-1.12.084h-.112V-10.64a7,7,0,0,1,.084-1.148H31.626a6.046,6.046,0,0,1,.1,1.148v1.652H31.08l.042-.574.028-.21a3.4,3.4,0,0,1,.084-.714l-1.372-.168c.014.168.028.266.028.35a12.689,12.689,0,0,1-.714,4.158,3.877,3.877,0,0,1,1.218.63,12.984,12.984,0,0,0,.5-2.058Zm1.47,0h.224c.224,0,.406,0,.714.014v1.442A9.418,9.418,0,0,1,35.714-6.2h3.528v1.176H35.756c-.616,0-1.022-.014-1.344-.042L34.4-5.684c-.476.21-.658.28-1.2.49ZM34.8-2.8A10.543,10.543,0,0,1,36.582-.5L37.8-1.428A11.449,11.449,0,0,0,35.966-3.57Zm22.05-6.818a6.489,6.489,0,0,1-1.162.07H54.278c.154-.462.238-.77.35-1.232a5.884,5.884,0,0,1,.182-.672L53.3-11.774a11.476,11.476,0,0,1-1.162,3.99V-9.912a7.654,7.654,0,0,1,.042-.938H50.9a8.286,8.286,0,0,1,.042.91v1.456H50.3v-2.142a9.828,9.828,0,0,1,.042-.994H49a6.691,6.691,0,0,1,.056.994v2.142H48.4V-9.94a7.79,7.79,0,0,1,.028-.91H47.334l.07-.084-1.26-.91a7.129,7.129,0,0,1-2.59,2.8A5.786,5.786,0,0,1,44.3-7.686a14.293,14.293,0,0,0,2.716-2.73.933.933,0,0,0,.168-.238,5.763,5.763,0,0,1,.042.714v1.9l-.994-.532a8.665,8.665,0,0,1-2.8,3.472A6.083,6.083,0,0,1,44-3.57a6.769,6.769,0,0,0,.9-.9c-.028.434-.028.728-.028,1.176V-.448a12.571,12.571,0,0,1-.084,1.638h1.582a11.382,11.382,0,0,1-.07-1.6V-5.964a13.9,13.9,0,0,0,.9-1.344.574.574,0,0,1-.014.154c.252-.014.63-.028.77-.028h3.794c-.154.2-.21.266-.392.476.154.154.2.2.322.336-.21.014-.448.014-.8.014H47.908a6.064,6.064,0,0,1-.966-.056v1.4a7.451,7.451,0,0,1,1.078-.056h.826v1.022H48.16A6.594,6.594,0,0,1,47.124-4.1V-2.73a7.228,7.228,0,0,1,1.022-.056h.7v1.33a14.362,14.362,0,0,1-1.96.21h-.14L46.914.266c.238-.056.448-.1.8-.154,2.17-.406,2.884-.56,3.794-.812-.28.2-.434.308-.882.588a6.82,6.82,0,0,1,.9,1.246,10.185,10.185,0,0,0,2.562-2.59A11.425,11.425,0,0,0,56.2,1.064a9.141,9.141,0,0,1,.826-1.526,8.877,8.877,0,0,1-2.142-2.38,12.8,12.8,0,0,0,1.19-5.32c.378.014.49.028.784.056Zm-4.872,7.56c-.8.182-1.064.238-1.694.364V-2.786h.462c.476,0,.8.014,1.134.042V-4.1a8.6,8.6,0,0,1-1.134.056h-.462V-5.068h.84a5.457,5.457,0,0,1,.9.056V-5.95c.084.126.112.182.224.35.126-.126.154-.168.252-.28a13.373,13.373,0,0,0,.882,3.052,9.247,9.247,0,0,1-1.4,1.722Zm2.758-6.1a12.333,12.333,0,0,1-.6,3.724,14.331,14.331,0,0,1-.672-3.024c.112-.224.168-.364.308-.7Z" transform="translate(581.227 375.704)" fill="#006bc7"/>
      <path id="パス_241120" data-name="パス 241120" d="M10.976-9.3a14.558,14.558,0,0,1,1.75.084v-1.652a11.333,11.333,0,0,1-1.75.1H4.522c.364-.742.364-.742.49-.98L3.332-12a2.564,2.564,0,0,1-.308.882A10.174,10.174,0,0,1,.49-7.952,5.76,5.76,0,0,1,1.582-6.86,13.1,13.1,0,0,0,3.668-9.3ZM9.408-.378c-.882-.784-1.582-1.358-2.436-2.03a11.562,11.562,0,0,0,.91-1.162c.308-.42.462-.63.6-.784l-1.5-.714A5.113,5.113,0,0,1,5.768-3.276C4.774-3.948,4.312-4.242,3.29-4.83l-1.022.938A24.59,24.59,0,0,1,4.7-2.3,15.633,15.633,0,0,1,.826-.168a5.369,5.369,0,0,1,1.05,1.316,17.138,17.138,0,0,0,4.046-2.52A30.7,30.7,0,0,1,8.358.784ZM9.73-5.222A12.967,12.967,0,0,0,10.374-.7C10.766.364,11.48,1.092,12.11,1.092c.854,0,1.288-.9,1.512-3.094a4.188,4.188,0,0,1-1.2-.84A4.617,4.617,0,0,1,12.082-.77a1.807,1.807,0,0,1-.49-.952,13.772,13.772,0,0,1-.392-3.6,9.584,9.584,0,0,1,.07-1.274,14.339,14.339,0,0,1-1.638.056H2.52a6.917,6.917,0,0,1-1.2-.07v1.47a11.81,11.81,0,0,1,1.61-.084ZM3.262-7.308a11.634,11.634,0,0,1,1.33-.056h5.586a10.448,10.448,0,0,1,1.484.07V-8.68a11.717,11.717,0,0,1-1.484.07H4.312a8.82,8.82,0,0,1-1.05-.056ZM23.128-9.814c.014-.112.014-.224.028-.434a21.432,21.432,0,0,0,4.1-.532l-.9-1.176a10.3,10.3,0,0,1-1.96.462c-.546.07-1.834.168-2.3.168a2.929,2.929,0,0,1-.434-.028,3.061,3.061,0,0,1,.042.5A4.345,4.345,0,0,1,20.9-7.924a5.046,5.046,0,0,1,.672.574H19.8V-8.568h.364a7.063,7.063,0,0,1,.994.056V-9.87a6.623,6.623,0,0,1-1.022.056H17.346a3.679,3.679,0,0,0,.014-.42,14.863,14.863,0,0,0,3.864-.574l-.854-1.176a6.332,6.332,0,0,1-1.4.42,17.119,17.119,0,0,1-2.59.238c-.028,0-.14,0-.28-.014h-.238a5.467,5.467,0,0,1,.056.644c0,1.82-.308,2.786-1.12,3.612a7.219,7.219,0,0,1,1.162,1.19,4.233,4.233,0,0,0,.672-.994c.028.49.028.686.028,1.358v2.814a12.442,12.442,0,0,1-.07,1.652A14.657,14.657,0,0,1,18.1-1.12h.812a8.725,8.725,0,0,1-3.92.994,5.586,5.586,0,0,1,.756,1.414A11.968,11.968,0,0,0,20.328-.238L19.194-1.12h4.382l-1.134.826A11.627,11.627,0,0,0,27.09,1.3,5.364,5.364,0,0,1,27.8-.126a10.047,10.047,0,0,1-4.032-.994H24.78a14.02,14.02,0,0,1,1.5.056,10.43,10.43,0,0,1-.07-1.6V-5.516a14.259,14.259,0,0,1,.07-1.89c-.238.028-.28.028-.574.042v-1.2h.924a6.165,6.165,0,0,1,1.064.07V-9.87a8.1,8.1,0,0,1-1.078.056ZM24.29-8.568V-7.35H22.442a5.033,5.033,0,0,0,.49-1.218ZM18.06-7.35c-.5,0-.742,0-1.2-.028a4.611,4.611,0,0,0,.364-1.19H18.4V-7.35Zm.084,1.162h6.58v.6h-6.58Zm0,1.638h6.58v.588h-6.58Zm0,1.638h6.58v.6h-6.58Zm16.24.224a10.6,10.6,0,0,1,1.288.07V-4.06a7.016,7.016,0,0,1-1.2.07H33.32c.028-.28.028-.336.042-.49a2.743,2.743,0,0,1,.056-.406H31.934a3.263,3.263,0,0,1,.042.56v.336H30.842A10.44,10.44,0,0,1,29.5-4.06v1.442a8.394,8.394,0,0,1,1.33-.07h.91A3.082,3.082,0,0,1,30.7-1.162a4.734,4.734,0,0,1-1.428.854,4.381,4.381,0,0,1,.9,1.246,5.2,5.2,0,0,0,2.618-2.576,5.925,5.925,0,0,0,1.9,1.876,5.273,5.273,0,0,1,.784-1.316,4.288,4.288,0,0,1-1.946-1.61Zm3.164,1.12A6.457,6.457,0,0,1,34.86.126c.084.1.154.182.21.238.14.168.238.28.28.322.126.182.238.322.462.644a9.061,9.061,0,0,0,2.8-1.974l-.924-.924h2.338l-.952.84a11.852,11.852,0,0,0,2.534,2.044,7.019,7.019,0,0,1,.98-1.19A8.332,8.332,0,0,1,40.18-1.568h.476c.406,0,.7.014,1.2.042-.028-.406-.042-.9-.042-1.456V-7.616c0-.546.014-.924.042-1.33-.336.028-.616.042-1.372.042H39.424a6.994,6.994,0,0,0,.392-.994h.994a10.427,10.427,0,0,1,1.5.07v-1.5a7.972,7.972,0,0,1-1.5.084H37.3a7.891,7.891,0,0,1-1.484-.084v1.5a8.181,8.181,0,0,1,1.33-.07H38.3a5.052,5.052,0,0,1-.364.994h-.658a8.613,8.613,0,0,1-1.176-.042c.028.294.042.812.042,1.344v4.788c0,.462-.014.9-.042,1.288.364-.028.672-.042,1.106-.042Zm-.028-6.1h2.9v.826h-2.9Zm0,1.974h2.9v.84h-2.9Zm0,1.988h2.9v.84h-2.9ZM33.348-8.946V-10.71a4.193,4.193,0,0,1,.07-.924h-1.47A5.608,5.608,0,0,1,32-10.71v1.764H30.716A8.848,8.848,0,0,1,29.526-9v1.3A9.158,9.158,0,0,1,30.7-7.756h.812a6.368,6.368,0,0,1-2.24,1.792,4.287,4.287,0,0,1,.672,1.2,7.778,7.778,0,0,0,2.1-2.016,5.671,5.671,0,0,0-.042.63v.322a4.064,4.064,0,0,1-.042.6H33.39a3.813,3.813,0,0,1-.042-.63v-.322a4.362,4.362,0,0,0-.056-.728A7.894,7.894,0,0,0,35.224-5.1a4.281,4.281,0,0,1,.658-1.176,6.385,6.385,0,0,1-2.058-1.484h.938a6.356,6.356,0,0,1,.882.042V-8.988a4.539,4.539,0,0,1-.9.042ZM29.6-10.892a6.645,6.645,0,0,1,1.064,1.75l1.078-.574a9.789,9.789,0,0,0-1.106-1.722Zm5.04-.56a6.19,6.19,0,0,1-1.05,1.764l.952.588a11.991,11.991,0,0,0,1.148-1.806Zm10.99,1.5c-.014.826-.014,1.288-.014,1.4H45.3a9.569,9.569,0,0,1-1.372-.07v1.54a8.836,8.836,0,0,1,1.33-.07h.21a3.3,3.3,0,0,1-1.61,2.38,4.874,4.874,0,0,1,1.12,1.162,4.884,4.884,0,0,0,1.5-1.778,5.488,5.488,0,0,0,.5-1.764h1.372V-5.8a11.733,11.733,0,0,1-.084,1.526H49.35c.014.21.014.308.014.462v.42h-2.8a9.346,9.346,0,0,1-1.442-.07v1.512c.448-.042.952-.07,1.61-.07h2.632V-.742H45.6a15.141,15.141,0,0,1-1.61-.07V.756A14.206,14.206,0,0,1,45.71.672h9.044a14.817,14.817,0,0,1,1.764.084V-.812a14.977,14.977,0,0,1-1.638.07H50.932V-2.016H53.76a16.047,16.047,0,0,1,1.624.07V-3.472a11.4,11.4,0,0,1-1.652.084h-2.8v-.434A3.789,3.789,0,0,1,51-4.7H49.854c-.028-.392-.028-.6-.028-1.106V-7.154h.126a11.478,11.478,0,0,1,1.33.056V-8.61a11.1,11.1,0,0,1-1.358.056h-.1v-1.4a8.207,8.207,0,0,1,1.19.056v-1.5a10.074,10.074,0,0,1-1.5.07H45.752a14.541,14.541,0,0,1-1.5-.07v1.5a9.873,9.873,0,0,1,1.274-.056Zm2.73,0v1.4H47.1c0-.294.014-.616.014-.966v-.434ZM53.3-6.062a9.378,9.378,0,0,1-.042-1.008v-2.94a7.239,7.239,0,0,1,.056-1.064h-1.6a8.367,8.367,0,0,1,.07,1.148v2.744a8.073,8.073,0,0,1-.07,1.12Zm2.814-4.326a9.493,9.493,0,0,1,.07-1.316H54.5a7.217,7.217,0,0,1,.07,1.2v4.592c0,.294-.042.322-.574.322a10.572,10.572,0,0,1-1.484-.126,4.523,4.523,0,0,1,.406,1.526,11.3,11.3,0,0,0,1.162.056c1.652,0,2.03-.266,2.03-1.47Z" transform="translate(483.543 489.408)" fill="#006bc7"/>
      <g id="グループ_10722" data-name="グループ 10722" transform="translate(333.305 343.5)">
        <g id="グループ_10721" data-name="グループ 10721" clip-path="url(#clip-path)">
          <g id="グループ_10709" data-name="グループ 10709">
            <g id="グループ_10708" data-name="グループ 10708" clip-path="url(#clip-path)">
              <g id="グループ_10696" data-name="グループ 10696" transform="translate(0.999)" opacity="0.15">
                <g id="グループ_10695" data-name="グループ 10695">
                  <g id="グループ_10694" data-name="グループ 10694" clip-path="url(#clip-path-3)">
                    <g id="グループ_10693" data-name="グループ 10693" transform="translate(0)">
                      <g id="グループ_10692" data-name="グループ 10692" clip-path="url(#clip-path-4)">
                        <path id="パス_46951" data-name="パス 46951" d="M160.919,0c88.365,0,160,68.484,160,152.961s-71.635,152.96-160,152.959-160-68.483-160-152.96S72.552,0,160.918,0Z" transform="translate(-0.918)" fill="#17c4c0"/>
                      </g>
                    </g>
                  </g>
                </g>
              </g>
              <g id="グループ_10699" data-name="グループ 10699" transform="translate(59.328)" opacity="0.1">
                <g id="グループ_10698" data-name="グループ 10698">
                  <g id="グループ_10697" data-name="グループ 10697" clip-path="url(#clip-path-5)">
                    <path id="パス_46952" data-name="パス 46952" d="M160.252,0C31.547,57.7,55.344,184.737,57.737,211.586c25.461,16.868,66.715,29.252,107.176,27.925,66.41-2.177,113.223-31.572,150.238-82.74a23.657,23.657,0,0,0,1.015-3.858C316.166,69.74,246.729,2.073,160.252,0" transform="translate(-54.495)" fill="#006bc7"/>
                  </g>
                </g>
              </g>
              <g id="グループ_10702" data-name="グループ 10702" transform="translate(78.392 20.857)" opacity="0.1">
                <g id="グループ_10701" data-name="グループ 10701">
                  <g id="グループ_10700" data-name="グループ 10700" clip-path="url(#clip-path-6)">
                    <path id="パス_46953" data-name="パス 46953" d="M153.448,220.465c-27.871,0-58.339-8.107-79.976-21-1.882-17.767-3.564-48.6,5.832-83.909,11.448-43.025,37.48-73.369,78.066-96.4a133.123,133.123,0,0,1,89.3,40.933c23.77,24.671,39.25,58.333,40.034,92.608-33.45,47.512-75.252,65.838-128.162,67.678-1.68.059-3.393.087-5.092.087Z" transform="translate(-72.007 -19.158)" fill="#006bc7"/>
                  </g>
                </g>
              </g>
              <g id="グループ_10707" data-name="グループ 10707" transform="translate(112.419 68.587)" opacity="0.3">
                <g id="グループ_10706" data-name="グループ 10706">
                  <g id="グループ_10705" data-name="グループ 10705" clip-path="url(#clip-path-7)">
                    <g id="グループ_10704" data-name="グループ 10704" transform="translate(0)">
                      <g id="グループ_10703" data-name="グループ 10703" clip-path="url(#clip-path-8)">
                        <rect id="長方形_23468" data-name="長方形 23468" width="148.043" height="158.948" transform="translate(-4.296 0)" fill="url(#radial-gradient)"/>
                      </g>
                    </g>
                  </g>
                </g>
              </g>
            </g>
          </g>
          <line id="線_32" data-name="線 32" y1="26.128" x2="47.221" transform="translate(63.199 185.223)" fill="none" stroke="#fff" stroke-miterlimit="10" stroke-width="1"/>
          <g id="グループ_10720" data-name="グループ 10720">
            <g id="グループ_10719" data-name="グループ 10719" clip-path="url(#clip-path)">
              <line id="線_33" data-name="線 33" y1="68.587" transform="translate(164.493)" fill="none" stroke="#fff" stroke-miterlimit="10" stroke-width="1"/>
              <line id="線_34" data-name="線 34" y1="0.272" x2="64.232" transform="translate(256.84 154.049)" fill="none" stroke="#fff" stroke-miterlimit="10" stroke-width="1"/>
              <g id="グループ_10712" data-name="グループ 10712" transform="translate(164.776 153.641)" opacity="0.2">
                <g id="グループ_10711" data-name="グループ 10711">
                  <g id="グループ_10710" data-name="グループ 10710" clip-path="url(#clip-path-10)">
                    <line id="線_35" data-name="線 35" y1="0.003" x2="1.089" transform="translate(0.002 0.813)" fill="none" stroke="#fff" stroke-miterlimit="10" stroke-width="1"/>
                    <line id="線_36" data-name="線 36" y1="0.256" x2="87.044" transform="translate(3.294 0.551)" fill="none" stroke="#fff" stroke-miterlimit="10" stroke-width="1" stroke-dasharray="2.024 2.024"/>
                    <line id="線_37" data-name="線 37" y1="0.003" x2="1.089" transform="translate(91.439 0.544)" fill="none" stroke="#fff" stroke-miterlimit="10" stroke-width="1"/>
                  </g>
                </g>
              </g>
              <g id="グループ_10715" data-name="グループ 10715" transform="translate(163.698 69.671)" opacity="0.2">
                <g id="グループ_10714" data-name="グループ 10714">
                  <g id="グループ_10713" data-name="グループ 10713" clip-path="url(#clip-path-11)">
                    <line id="線_38" data-name="線 38" x1="0.009" y1="1.089" transform="translate(1.214 84.106)" fill="none" stroke="#fff" stroke-miterlimit="10" stroke-width="1"/>
                    <line id="線_39" data-name="線 39" x1="0.636" y1="79.82" transform="translate(0.562 2.157)" fill="none" stroke="#fff" stroke-miterlimit="10" stroke-width="1" stroke-dasharray="1.955 1.955"/>
                    <line id="線_40" data-name="線 40" x1="0.009" y1="1.089" transform="translate(0.544 0.004)" fill="none" stroke="#fff" stroke-miterlimit="10" stroke-width="1"/>
                  </g>
                </g>
              </g>
              <g id="グループ_10718" data-name="グループ 10718" transform="translate(62.245 154.093)" opacity="0.2">
                <g id="グループ_10717" data-name="グループ 10717">
                  <g id="グループ_10716" data-name="グループ 10716" clip-path="url(#clip-path-12)">
                    <line id="線_41" data-name="線 41" x1="0.952" y2="0.529" transform="translate(102.183 0.475)" fill="none" stroke="#fff" stroke-miterlimit="10" stroke-width="1"/>
                    <line id="線_42" data-name="線 42" x1="98.109" y2="54.534" transform="translate(2.169 2.063)" fill="none" stroke="#fff" stroke-miterlimit="10" stroke-width="1" stroke-dasharray="2.002 2.002"/>
                    <line id="線_43" data-name="線 43" x1="0.952" y2="0.529" transform="translate(0.265 57.127)" fill="none" stroke="#fff" stroke-miterlimit="10" stroke-width="1"/>
                  </g>
                </g>
              </g>
              <path id="パス_46955" data-name="パス 46955" d="M.418,143.677s56.612,86.006,170.923,82.74c82.5-2.357,130.642-54.434,150.238-84.917" transform="translate(0.037 12.549)" fill="none" stroke="#fff" stroke-miterlimit="10" stroke-width="1"/>
            </g>
          </g>
        </g>
      </g>
      <path id="パス_46957" data-name="パス 46957" d="M-18325.912-16426.389h31.027v-39.9" transform="translate(18904.961 16848.984)" fill="rgba(0,0,0,0)" stroke="#006bc7" stroke-miterlimit="10" stroke-width="1" stroke-dasharray="2.012 2.012"/>
      <path id="パス_46959" data-name="パス 46959" d="M0,46.1H39.9V0" transform="translate(421.858 382.693) rotate(90)" fill="rgba(0,0,0,0)" stroke="#006bc7" stroke-miterlimit="10" stroke-width="1" stroke-dasharray="2.012 2.012"/>
    </g>
  </g>
</svg>
